<?xml version="1.0" encoding="UTF-8"?>
<!DOCTYPE svg PUBLIC "-//W3C//DTD SVG 1.1//EN" "http://www.w3.org/Graphics/SVG/1.1/DTD/svg11.dtd">
<!-- Creator: CorelDRAW 2021 (64-Bit) -->
<svg xmlns="http://www.w3.org/2000/svg" xml:space="preserve" width="273px" height="286px" version="1.1" shape-rendering="geometricPrecision" text-rendering="geometricPrecision" image-rendering="optimizeQuality" fill-rule="evenodd" clip-rule="evenodd"
viewBox="0 0 16.27 17.09"
 xmlns:xlink="http://www.w3.org/1999/xlink"
 xmlns:xodm="http://www.corel.com/coreldraw/odm/2003">
 <g id="Layer_x0020_1">
  <metadata id="CorelCorpID_0Corel-Layer"/>
  <g id="_2241328597056">
   <path fill="#1FCDFF" d="M7.89 5.34l-0.39 -0.1c-0.54,-0.12 -0.39,-0.07 -0.58,-0.69 -5.73,0.13 -3.99,-0.44 -5.18,-0.86 -1.07,-0.38 -2.1,0.58 -1.62,1.73 0.2,0.47 0.86,0.91 1.63,0.62 0.71,-0.26 0.32,-0.64 1.74,-0.76 1.87,-0.14 2.38,0.53 2.52,2.33 0.26,3.24 -0.53,3.38 -0.81,4.08 -0.64,1.58 1.55,2.56 2.33,1.13 0.42,-0.76 -0.02,-1.23 -0.36,-1.68 -0.41,-0.57 -1.14,-4.89 0.72,-5.8z"/>
   <path fill="#255EFF" d="M10.32 8.61c0.56,-1.78 -2.42,-2.19 -2.44,-0.4 -0.02,1.42 1.04,0.05 0.92,4.49 -0.07,2.26 -0.63,1.99 -0.85,2.75 -0.54,1.93 2.4,2.25 2.45,0.44 0.04,-1.41 -0.97,0.04 -0.88,-4.49 0.05,-2.28 0.55,-2 0.8,-2.79z"/>
   <path fill="#255EFF" d="M8.83 0.97l-0.02 0.67c1.24,-0.04 3.44,-0.09 4.56,0.2 0.72,0.19 0.84,0.76 1.71,0.72 0.72,-0.03 1.22,-0.58 1.19,-1.33 -0.02,-0.71 -0.5,-1.17 -1.19,-1.2 -0.85,-0.04 -1.02,0.54 -1.66,0.73 -0.84,0.26 -3.62,0.29 -4.59,0.21z"/>
   <path fill="#255EFF" d="M6.92 4.55c0.19,0.62 0.04,0.57 0.58,0.69l0.39 0.1c0.53,-0.11 1.14,-0.12 1.68,0.01 0.55,0.13 0.7,0.47 1.13,0.65 1.07,0.45 2.15,-0.46 1.78,-1.56 -0.14,-0.4 -0.6,-0.75 -1.01,-0.8 -0.7,-0.09 -0.9,0.18 -1.28,0.47 -0.78,0.58 -2.18,0.43 -3.27,0.44z"/>
   <path fill="#1FCDFF" d="M8.81 1.64l0.02 -0.67c-0.48,0 -0.98,-0.04 -1.44,-0.14 -0.59,-0.13 -0.7,-0.4 -1.07,-0.62 -0.89,-0.56 -1.96,0.07 -2.01,1.02 -0.05,0.98 0.92,1.66 1.88,1.17 0.42,-0.21 0.48,-0.46 1.1,-0.6 0.46,-0.1 1.04,-0.15 1.52,-0.16z"/>
  </g>
 </g>
</svg>
