<svg width="93" height="93" viewBox="0 0 93 93" fill="none" xmlns="http://www.w3.org/2000/svg"><g clip-path="url(#clip0_5642_38606)"><path d="M14.384 16.99h-3.96l.538-4.386h4.174c1.862 0 2.802.8 2.638 2.1v.048c-.188 1.51-1.527 2.238-3.39 2.238zm3.456 4.713v-.05c.18-1.387-.834-2.212-3.12-2.212h-4.6l-.555 4.526h4.81c1.978 0 3.277-.776 3.465-2.263zm24.896 2.622c1.96 0 3.75-1.535 4.052-3.986v-.05c.302-2.4-1.135-3.986-3.063-3.986-1.928 0-3.83 1.6-4.117 3.986v.05c-.294 2.376 1.2 3.985 3.137 3.985h-.01zm14.41 0c1.91 0 3.806-1.6 4.09-3.986v-.05c.304-2.4-1.2-3.986-3.11-3.986-1.912 0-3.766 1.51-4.077 3.986v.05c-.303 2.4 1.15 3.985 3.087 3.985h.008zM34.657 37.852l-.31 2.565h22.985c4.803 0 7.5-2.573 8.895-4.41l2.827 5.202a1.29 1.29 0 0 0 1.29.66 1.3 1.3 0 0 0 1.087-.97l5.783-25.315 2.703 30.672a1.51 1.51 0 0 0 1.495 1.38c.588 0 1.103-.343 1.348-.833l4.346-9.018c.817 1.267 2.092 2.63 4.02 2.63h1.494v52.196H0V0h92.62v37.852h-1.495c-1.16 0-2.05-1.716-2.532-2.64-.245-.472-.408-.783-.653-1.02a1.29 1.29 0 0 0-1.095-.343c-.4.065-.743.31-.93.67l-3.783 8.086-2.916-32.24a1.65 1.65 0 0 0-3.243-.23l-6.25 26.932-2.237-4.133a1.284 1.284 0 0 0-1.838-.466c-.285.187-.432.424-.67.816-.775 1.25-2.826 4.566-7.637 4.566H34.66zm21.5-11.052c2.025 0 3.446-1.037 4.524-2.336l-.253 2.075h2.85l1.527-12.45h-2.85l-.238 1.936c-.752-1.176-1.92-2.19-3.97-2.19-2.974 0-6.06 2.337-6.568 6.462v.05c-.514 4.124 2.05 6.46 4.975 6.46V26.8zm-20.57 3.512h2.852l.702-5.7c.727 1.15 1.904 2.188 3.97 2.188 2.95 0 6.06-2.336 6.567-6.46v-.05c.514-4.15-2.05-6.46-4.975-6.46-2.026 0-3.455 1.036-4.525 2.335l.253-2.075h-2.85l-1.994 16.222zM6.405 26.54h7.637c3.677 0 6.3-1.578 6.658-4.526v-.05c.278-2.238-.923-3.348-2.777-4.01 1.308-.637 2.566-1.7 2.81-3.676v-.05c.14-1.11-.122-2-.767-2.735-.825-.94-2.246-1.462-4.133-1.462h-7.4l-2.026 16.5v.01zm28.45-12.45H31.98l-.867 7.025c-.237 1.936-1.527 3.063-3.177 3.063-1.65 0-2.533-1.086-2.296-3.014l.866-7.074h-2.85l-.973 7.924c-.36 2.9 1.038 4.786 3.848 4.786 1.936 0 3.21-1.013 4.158-2.19l-.237 1.937h2.877l1.527-12.45v-.007z" fill="#0079C8"/><path d="M92.62 37.852v2.564h-1.495c-1.936 0-3.202-1.372-4.02-2.638l-4.344 9.018a1.503 1.503 0 0 1-2.843-.547l-2.702-30.673L71.43 40.89a1.29 1.29 0 0 1-1.085.972 1.29 1.29 0 0 1-1.29-.66l-2.827-5.205c-1.396 1.838-4.1 4.41-8.895 4.41H34.348l.31-2.564h22.667c4.81 0 6.87-3.316 7.637-4.566.237-.392.384-.62.67-.816a1.286 1.286 0 0 1 1.838.466l2.238 4.133 6.25-26.931a1.65 1.65 0 0 1 3.243.23l2.915 32.237 3.78-8.086c.19-.36.532-.604.933-.67.4-.064.807.066 1.093.344.245.237.41.547.654 1.02.482.924 1.372 2.64 2.532 2.64h1.494l.016.008zM51.174 20.34v-.05c.515-4.125 3.602-6.46 6.576-6.46 2.05 0 3.226 1.012 3.97 2.188l.236-1.936h2.85L63.28 26.53h-2.85l.252-2.074c-1.078 1.298-2.5 2.336-4.525 2.336-2.924 0-5.49-2.336-4.983-6.46v.007zm5.97 3.985c1.913 0 3.808-1.6 4.093-3.986v-.05c.303-2.402-1.2-3.986-3.112-3.986-1.91 0-3.765 1.51-4.076 3.986v.05c-.303 2.4 1.15 3.985 3.087 3.985h.008zm-39.223-6.363c1.855.662 3.064 1.764 2.787 4.01v.05c-.368 2.948-2.99 4.525-6.666 4.525H6.405l2.026-16.5h7.4c1.887 0 3.308.523 4.133 1.462.637.726.907 1.624.776 2.735v.05c-.246 1.984-1.512 3.038-2.82 3.675v-.008zm-7.49-.972h3.963c1.862 0 3.2-.727 3.39-2.238v-.05c.163-1.298-.777-2.098-2.64-2.098H10.97l-.54 4.386zm4.29 2.45h-4.6l-.555 4.525h4.81c1.978 0 3.277-.776 3.465-2.262v-.05c.18-1.388-.834-2.213-3.12-2.213zm17.26-5.35l-.867 7.025c-.237 1.936-1.527 3.063-3.177 3.063-1.65 0-2.533-1.087-2.296-3.014l.866-7.074h-2.85l-.973 7.923c-.36 2.9 1.038 4.787 3.848 4.787 1.936 0 3.21-1.013 4.158-2.19l-.237 1.937h2.877l1.527-12.45H31.98v-.007zm6.468 16.222h-2.85L37.59 14.09h2.85l-.252 2.075c1.078-1.3 2.5-2.336 4.525-2.336 2.924 0 5.49 2.31 4.983 6.46v.05c-.515 4.124-3.627 6.46-6.576 6.46-2.074 0-3.242-1.038-3.97-2.19l-.702 5.702zm4.288-5.987c1.96 0 3.75-1.536 4.052-3.986v-.05c.302-2.402-1.135-3.986-3.063-3.986-1.928 0-3.83 1.6-4.117 3.986v.05c-.294 2.376 1.2 3.985 3.137 3.985h-.01z" fill="#fff"/></g><defs><clipPath id="clip0_5642_38606"><path fill="#fff" d="M0 0h92.62v92.62H0z"/></clipPath></defs></svg>