<?xml version="1.0" encoding="UTF-8"?>
<svg version="1.1" xmlns="http://www.w3.org/2000/svg" width="1614" height="656">
<path d="M0 0 C125.76615515 0 125.76615515 0 154.09765625 28.0078125 C174.62324036 48.96530433 180.44776607 76.16526036 180.3125 104.6875 C180.31067719 105.48369751 180.30885437 106.27989502 180.30697632 107.10021973 C180.2624179 118.64825207 179.908235 129.76576963 177 141 C176.75056641 141.99338379 176.75056641 141.99338379 176.49609375 143.00683594 C170.09490295 167.86479356 155.62118506 189.86954962 133.36328125 203.10546875 C93.17733368 225.74215234 43.87137608 218 0 218 C0 146.06 0 74.12 0 0 Z M58 49 C58 88.6 58 128.2 58 169 C83.97477534 169.33366754 83.97477534 169.33366754 105.140625 157 C119.78610258 141.81209732 120.40809972 120.38782024 120.21484375 100.4921875 C119.8576922 85.06590254 116.31383273 70.4304269 105.31640625 59.125 C91.80547363 46.73048508 75.99433691 49 58 49 Z " fill="#000000" transform="translate(216,219)"/>
<path d="M0 0 C1.5260284 1.32476589 3.02780408 2.67815664 4.5 4.0625 C5.52287109 5.00609375 5.52287109 5.00609375 6.56640625 5.96875 C19.78694137 19.42213212 27.09110527 40.38964086 27.5 59.0625 C27.55027344 60.34769531 27.60054687 61.63289063 27.65234375 62.95703125 C28.34353304 87.85372506 23.42445758 112.05199344 5.90625 130.6796875 C-7.20631986 143.66453752 -24.93958082 151.37719221 -43.5 152.0625 C-44.72976563 152.1140625 -45.95953125 152.165625 -47.2265625 152.21875 C-69.92213798 152.85727833 -91.23219191 147.34939775 -108.12109375 131.46484375 C-125.57941298 113.83452137 -131.21419833 91.24055048 -131.75 67.0625 C-131.18577522 43.03316246 -125.57861279 20.58460141 -108.375 2.875 C-80.14150636 -23.74515115 -30.03358295 -23.00737776 0 0 Z M-67.25 32.625 C-74.73661039 42.56499285 -74.70212464 55.29380153 -74.75 67.125 C-74.770625 68.37216797 -74.79125 69.61933594 -74.8125 70.90429688 C-74.8656057 83.66957988 -73.42434192 97.05496288 -64.01171875 106.56640625 C-58.67237578 110.36886638 -51.72627095 109.82506096 -45.5 109.0625 C-40.81023576 107.66713001 -37.23285272 104.57942057 -34.6328125 100.4296875 C-26.34196578 83.10467676 -26.58072137 58.32403195 -32.1015625 40.1953125 C-34.83493383 34.07194991 -38.50465251 29.65576994 -44.4375 26.5 C-53.76450611 25.16757056 -60.16981856 26.0275582 -67.25 32.625 Z " fill="#000000" transform="translate(791.5,287.9375)"/>
<path d="M0 0 C1.3096875 0.00829834 2.619375 0.01659668 3.96875 0.02514648 C24.57349258 0.38272632 43.28066135 5.30645553 58.25 20.4375 C77.74601118 43.35765238 75.25 69.65992334 75.25 99.4375 C43.24 99.4375 11.23 99.4375 -21.75 99.4375 C-17.70177688 114.30696776 -17.70177688 114.30696776 -6.54296875 123.2109375 C0.2409243 126.19015766 6.68387962 126.82558048 14 126.8125 C14.90451904 126.81161377 15.80903809 126.81072754 16.7409668 126.80981445 C27.83545034 126.6204363 39.20785155 124.87029212 49.57421875 120.80078125 C53.25 119.4375 53.25 119.4375 57.25 119.4375 C58.41787176 124.36475588 59.57523817 129.294316 60.72290039 134.22631836 C61.11487015 135.9040788 61.50971191 137.58117094 61.9074707 139.25756836 C62.47842096 141.66610883 63.03902908 144.07685695 63.59765625 146.48828125 C63.77780777 147.23837967 63.95795929 147.98847809 64.14356995 148.76130676 C65.36387171 154.09588488 65.36387171 154.09588488 64.25 157.4375 C61.97325853 158.59241245 59.81469804 159.54155944 57.4375 160.4375 C56.75461914 160.69950195 56.07173828 160.96150391 55.36816406 161.23144531 C26.79585353 171.94772993 -9.88489921 172.53256331 -37.9453125 160.01171875 C-54.34637784 151.88873249 -66.06639074 138.43693187 -72.75 121.4375 C-81.95063164 93.28857612 -80.28943406 60.40693306 -67.125 33.8125 C-58.67378503 19.12038782 -44.90863474 8.43488932 -28.75 3.4375 C-19.12241457 0.8443328 -9.95057586 -0.08193226 0 0 Z M-16.125 48.0625 C-19.55659151 53.19871275 -19.55659151 53.19871275 -20.75 63.4375 C-5.57 63.4375 9.61 63.4375 25.25 63.4375 C23.19290569 52.12348127 21.27989378 46.8694661 12.25 40.4375 C0.96198999 36.67483 -8.59593367 39.30860949 -16.125 48.0625 Z " fill="#000000" transform="translate(1246.75,271.5625)"/>
<path d="M0 0 C1.26392578 -0.01611328 2.52785156 -0.03222656 3.83007812 -0.04882812 C23.59245907 -0.05894711 42.17819487 5.81065417 56.875 19.375 C77.46079106 41.10444611 75.1875 71.08381733 75.1875 99.3125 C43.1775 99.3125 11.1675 99.3125 -21.8125 99.3125 C-18.95717256 112.03743299 -18.95717256 112.03743299 -10.66796875 120.83984375 C-3.00086077 125.34606565 4.27990712 126.67989625 13.0625 126.625 C14.44199829 126.61871582 14.44199829 126.61871582 15.84936523 126.61230469 C28.01510344 126.41474411 39.43430973 124.33353315 50.8671875 120.08203125 C53.1875 119.3125 53.1875 119.3125 56.1875 119.3125 C58.45288814 127.48235723 60.5825302 135.67880486 62.5 143.9375 C62.68336914 144.69466309 62.86673828 145.45182617 63.05566406 146.23193359 C64.76751633 153.77657636 64.76751633 153.77657636 63.1875 157.3125 C42.74600105 171.12432361 8.00667154 170.68310716 -15.3359375 166.99609375 C-35.58115467 163.01529262 -52.70304631 154.51475959 -64.8125 137.41015625 C-79.30879935 114.95788011 -81.3160902 84.87678384 -76.68530273 58.85058594 C-72.68023789 40.44182295 -63.53288712 22.78271038 -47.515625 12.1171875 C-32.27555845 2.86707115 -17.68952967 -0.0446931 0 0 Z M-13.4375 44.5625 C-18.95677347 50.95323771 -19.8417848 54.57606319 -20.8125 63.3125 C-5.9625 63.3125 8.8875 63.3125 24.1875 63.3125 C23.25502341 53.98773413 22.51451372 48.94802636 15.5625 42.8984375 C6.61138535 36.67741282 -5.3753611 37.65209523 -13.4375 44.5625 Z " fill="#000000" transform="translate(489.8125,271.6875)"/>
<path d="M0 0 C0 16.5 0 33 0 50 C11.55 50 23.1 50 35 50 C35 64.19 35 78.38 35 93 C23.45 93 11.9 93 0 93 C0.09090276 104.5597559 0.09090276 104.5597559 0.20898438 116.11914062 C0.26320667 120.83729002 0.31432036 125.55532322 0.34643555 130.27368164 C0.37254327 134.07994894 0.41299744 137.8858236 0.46318626 141.69184685 C0.47980474 143.14016759 0.49135018 144.58855616 0.49761391 146.03695869 C0.39598977 156.43656166 0.39598977 156.43656166 4 166 C7.24731729 169.14256512 10.20339361 169.98686691 14.671875 170.01953125 C24.12320904 169.38384508 31.42859685 167.39285079 41 165 C41 178.86 41 192.72 41 207 C18.57061394 216.34557752 -6.92078756 220.22573735 -30.38671875 211.78125 C-40.17873869 207.35825479 -46.50140058 200.44077146 -50.97265625 190.73046875 C-56.22732144 176.76464759 -56.14939952 162.09324933 -56.09765625 147.39453125 C-56.09578692 145.81841578 -56.09436545 144.24229973 -56.09336853 142.66618347 C-56.08958387 138.55470117 -56.07978909 134.44325523 -56.06866455 130.33178711 C-56.05836243 126.12158703 -56.05385221 121.91138097 -56.04882812 117.70117188 C-56.03816243 109.46742952 -56.02059936 101.2337235 -56 93 C-62.27 93 -68.54 93 -75 93 C-75 78.81 -75 64.62 -75 50 C-68.73 50 -62.46 50 -56 50 C-56 36.47 -56 22.94 -56 9 C-48.12270162 6.74934332 -48.12270162 6.74934332 -44.35327148 6.13037109 C-43.51227402 5.99037689 -42.67127655 5.85038269 -41.80479431 5.70614624 C-40.91917313 5.56335236 -40.03355194 5.42055847 -39.12109375 5.2734375 C-38.19079849 5.12089508 -37.26050323 4.96835266 -36.30201721 4.81118774 C-34.3449938 4.49151243 -32.38762383 4.17395228 -30.42993164 3.85839844 C-27.44239529 3.37579079 -24.45653754 2.88364001 -21.47070312 2.390625 C-19.56259364 2.08015315 -17.6543934 1.77023836 -15.74609375 1.4609375 C-14.85844833 1.31409515 -13.97080292 1.16725281 -13.05625916 1.01596069 C-11.7994912 0.81542587 -11.7994912 0.81542587 -10.51733398 0.61083984 C-9.78788071 0.49251801 -9.05842743 0.37419617 -8.30686951 0.25228882 C-5.55305582 -0.04887967 -2.77023326 0 0 0 Z " fill="#000000" transform="translate(1116,224)"/>
<path d="M0 0 C0 16.5 0 33 0 50 C11.55 50 23.1 50 35 50 C35 64.19 35 78.38 35 93 C23.45 93 11.9 93 0 93 C0.12001917 104.38196384 0.12001917 104.38196384 0.2578125 115.76367188 C0.3179965 120.40938114 0.37614931 125.05505073 0.421875 129.70092773 C0.45889323 133.44876488 0.50529672 137.19638152 0.55806351 140.94402885 C0.57651999 142.37003121 0.59165984 143.79608069 0.60334396 145.22215462 C0.62035638 147.22770709 0.65052052 149.23313469 0.68115234 151.23852539 C0.69447601 152.37769913 0.70779968 153.51687286 0.7215271 154.69056702 C1.14345883 159.70489615 1.75632877 163.75632877 5.375 167.375 C11.69955048 171.29019792 17.80407487 169.80643989 25 169 C32.92 167.02 32.92 167.02 41 165 C41 178.86 41 192.72 41 207 C18.57061394 216.34557752 -6.92078756 220.22573735 -30.38671875 211.78125 C-40.17698068 207.35904888 -46.5126231 200.43862072 -50.97265625 190.72265625 C-56.42197107 176.28093597 -56.15324001 160.85323636 -56.09765625 145.63671875 C-56.09578567 144.10830227 -56.0943648 142.57988519 -56.09336853 141.0514679 C-56.08959363 137.07482173 -56.07980779 133.09821347 -56.06866455 129.12158203 C-56.05834085 125.04525261 -56.0538477 120.96891692 -56.04882812 116.89257812 C-56.03817975 108.92836628 -56.02062522 100.96419226 -56 93 C-62.27 93 -68.54 93 -75 93 C-75 78.81 -75 64.62 -75 50 C-68.73 50 -62.46 50 -56 50 C-56 36.47 -56 22.94 -56 9 C-48.82904182 7.71427858 -41.65771699 6.43118067 -34.48510742 5.15478516 C-32.04537802 4.71980847 -29.60592193 4.2832959 -27.16674805 3.84521484 C-23.66005092 3.21567956 -20.15240696 2.59168006 -16.64453125 1.96875 C-15.55477493 1.77188599 -14.46501862 1.57502197 -13.34223938 1.37219238 C-11.81121834 1.10191223 -11.81121834 1.10191223 -10.24926758 0.82617188 C-9.35436111 0.66628784 -8.45945465 0.50640381 -7.53742981 0.3416748 C-5 0 -5 0 0 0 Z " fill="#000000" transform="translate(990,224)"/>
<path d="M0 0 C18.15 0 36.3 0 55 0 C55 71.94 55 143.88 55 218 C36.85 218 18.7 218 0 218 C0 146.06 0 74.12 0 0 Z " fill="#000000" transform="translate(585,219)"/>
<path d="M0 0 C18.48 0 36.96 0 56 0 C56 53.79 56 107.58 56 163 C37.52 163 19.04 163 0 163 C0 109.21 0 55.42 0 0 Z " fill="#000000" transform="translate(839,274)"/>
<path d="M0 0 C7.63096708 5.55083901 14.20529457 12.44583287 16 22 C16.94310213 33.40998975 14.90031077 42.24961154 7.703125 51.24609375 C1.31208652 57.82769071 -6.6013488 60.28642246 -15.625 60.5 C-24.49178046 60.50818063 -31.36260487 58.01458708 -38.15234375 52.13671875 C-44.86751805 45.05242282 -48.10503707 36.73843717 -48 27 C-47.33159863 17.88414302 -43.42365878 9.9042345 -36.75 3.625 C-26.66804702 -4.10669379 -11.37334756 -6.49022551 0 0 Z " fill="#86BC25" transform="translate(1382,380)"/>
<path d="M0 0 C18.48 0 36.96 0 56 0 C56 12.21 56 24.42 56 37 C37.52 37 19.04 37 0 37 C0 24.79 0 12.58 0 0 Z " fill="#000000" transform="translate(839,219)"/>
</svg>
