<?xml version="1.0" encoding="UTF-8"?>
<svg version="1.1" xmlns="http://www.w3.org/2000/svg" width="460" height="118">
<path d="M0 0 C13.15467942 10.39977273 20.35754874 23.35641324 22.8125 39.875 C24.08849095 55.60639522 20.08432182 69.98586198 10.70703125 82.73828125 C1.07276219 93.97541985 -12.26186024 102.36989347 -27.1875 103.875 C-44.856457 104.96712096 -60.48855655 100.87475744 -74.125 89.125 C-85.96493763 77.63329583 -91.94749691 62.94541769 -92.5 46.5625 C-92.10102038 30.08698878 -85.83948041 15.50956339 -74.1875 3.875 C-52.55755484 -13.99917521 -23.28807982 -16.4994127 0 0 Z " fill="#4AB648" transform="translate(94.1875,13.125)"/>
<path d="M0 0 C3.96 0 7.92 0 12 0 C12 19.47 12 38.94 12 59 C8.04 59 4.08 59 0 59 C-0.33 58.34 -0.66 57.68 -1 57 C-1.55171875 57.32097656 -2.1034375 57.64195313 -2.671875 57.97265625 C-7.53950437 60.12062022 -13.34766311 59.96002093 -18.3203125 58.16015625 C-23.92439135 54.99587599 -27.70554725 50.18017543 -29.61328125 44.01953125 C-31.08371427 36.34060328 -29.91239235 29.65796084 -25.78125 23.05078125 C-22.09477034 18.1661957 -18.03555366 15.94975717 -12 15 C-7.45237287 14.95989747 -4.10649584 15.94675208 0 18 C0 12.06 0 6.12 0 0 Z M-14.875 28.5625 C-17.28102948 31.97570462 -18.07293248 34.76991594 -18 39 C-16.12204259 44.41396628 -16.12204259 44.41396628 -12 48 C-8.16808162 48.42576871 -6.47050317 48.30321315 -3.1875 46.1875 C-0.33513833 43.33513833 -0.03474603 41.62542861 0.1875 37.625 C-0.03223224 33.37684332 -0.87720486 30.71373995 -3.1875 27.1875 C-7.58390793 24.3070948 -11.16028727 25.25156039 -14.875 28.5625 Z " fill="#23AFE2" transform="translate(375,23)"/>
<path d="M0 0 C4.34256079 3.07747593 7.94277336 7.36885585 9.890625 12.33984375 C10.75480598 19.72631696 11.00893321 26.61162156 6.38671875 32.7265625 C2.53806286 36.87667968 -1.64790162 40.7805921 -7.40625 41.7109375 C-13.96674018 41.88853039 -18.09583896 40.61642349 -23.109375 36.33984375 C-28.30154406 31.17409794 -30.41093195 26.91477525 -30.546875 19.58984375 C-30.43041406 12.1130511 -28.77654957 8.07421786 -23.6171875 2.8203125 C-16.45972075 -3.61399051 -8.35339343 -4.62067629 0 0 Z " fill="#FBFDFB" transform="translate(91.109375,40.66015625)"/>
<path d="M0 0 C3.22222552 3.12458232 3.21308839 6.03664265 3.37890625 10.32421875 C3.42080078 11.35224609 3.46269531 12.38027344 3.50585938 13.43945312 C3.54517578 14.51130859 3.58449219 15.58316406 3.625 16.6875 C3.66818359 17.77095703 3.71136719 18.85441406 3.75585938 19.97070312 C3.86196838 22.64700791 3.96402361 25.32340526 4.0625 28 C5.0525 28.33 6.0425 28.66 7.0625 29 C6.50011722 32.93667948 5.62514345 35.90715445 3.0625 39 C-0.35204829 39.51960517 -2.39070886 39.23433906 -5.5625 37.875 C-6.34625 37.58625 -7.13 37.2975 -7.9375 37 C-8.53820312 37.30421875 -9.13890625 37.6084375 -9.7578125 37.921875 C-14.45218114 40.24382078 -20.45253545 39.77630132 -25.36328125 38.2421875 C-29.25830722 36.43352827 -31.4040248 35.15070451 -32.9375 31 C-33.67057411 25.82218181 -33.882111 21.46262349 -31 17 C-24.42368576 12.70526417 -17.66203632 11.61305844 -9.9375 11 C-10.5975 9.68 -11.2575 8.36 -11.9375 7 C-17.86752267 6.62148791 -22.40989641 7.89424625 -27.9375 10 C-29.5875 7.69 -31.2375 5.38 -32.9375 3 C-32.375 1.1875 -32.375 1.1875 -30.9375 -1 C-20.33051758 -6.40355708 -9.91943136 -6.75365539 0 0 Z M-14.875 20.875 C-15.58527344 21.03742188 -16.29554688 21.19984375 -17.02734375 21.3671875 C-19.14784148 21.91110146 -19.14784148 21.91110146 -20.9375 24 C-20.61708603 26.60280568 -20.61708603 26.60280568 -19.9375 29 C-14.85446314 29.11320856 -14.85446314 29.11320856 -9.9375 28 C-9.9375 25.36 -9.9375 22.72 -9.9375 20 C-11.63320365 20 -13.22956003 20.48818771 -14.875 20.875 Z " fill="#717272" transform="translate(199.9375,43)"/>
<path d="M0 0 C4.08641886 3.44205341 5.92367369 6.36649936 7.6875 11.4375 C7.6875 15.0675 7.6875 18.6975 7.6875 22.4375 C-0.8925 22.4375 -9.4725 22.4375 -18.3125 22.4375 C-15.98998574 27.32245525 -15.98998574 27.32245525 -13.3125 28.4375 C-7.62187216 28.81687519 -4.32874348 28.44724609 0.6875 25.4375 C1.72281726 26.33777588 2.74044165 27.25843035 3.75 28.1875 C4.31847656 28.69796875 4.88695312 29.2084375 5.47265625 29.734375 C6.6875 31.4375 6.6875 31.4375 6.58203125 33.50390625 C5.49315392 35.85759305 4.59444756 36.44551234 2.3125 37.625 C1.70664062 37.94855469 1.10078125 38.27210937 0.4765625 38.60546875 C-5.27602641 41.2807994 -12.34520494 41.57827898 -18.4453125 39.82421875 C-23.61899044 37.19097908 -28.09364134 32.0494836 -29.953125 26.5390625 C-31.50145131 17.48471951 -30.55937994 10.06932537 -25.3125 2.4375 C-18.46899409 -4.76619043 -8.0578936 -5.49674154 0 0 Z M-15 8.8125 C-17.53284351 11.10456542 -17.53284351 11.10456542 -17.3125 13.4375 C-12.6925 13.4375 -8.0725 13.4375 -3.3125 13.4375 C-5.81306593 8.46128257 -5.81306593 8.46128257 -9.3125 6.4375 C-12.5355924 6.1064011 -12.5355924 6.1064011 -15 8.8125 Z " fill="#23AFE2" transform="translate(335.3125,41.5625)"/>
<path d="M0 0 C3.54243966 2.32328835 5.91419129 4.21503694 8.28125 7.765625 C8.28125 8.755625 8.28125 9.745625 8.28125 10.765625 C2.93545561 13.80300818 2.93545561 13.80300818 0.09375 13.640625 C-1.71875 12.765625 -1.71875 12.765625 -2.96875 11.203125 C-5.40977253 9.19799935 -7.70088163 9.22698878 -10.78125 9.3515625 C-12.99690205 9.66126999 -12.99690205 9.66126999 -15.15625 11.890625 C-17.62009181 16.42409393 -17.977873 19.37578345 -17.03125 24.453125 C-15.65199554 27.93410054 -15.06909358 29.18351831 -11.71875 30.765625 C-8.71875 31.34895833 -8.71875 31.34895833 -5.71875 30.765625 C-3.41599444 28.8985259 -2.04051129 27.40914759 -0.71875 24.765625 C-4.01875 24.765625 -7.31875 24.765625 -10.71875 24.765625 C-10.71875 21.795625 -10.71875 18.825625 -10.71875 15.765625 C-4.11875 15.765625 2.48125 15.765625 9.28125 15.765625 C9.28125 24.345625 9.28125 32.925625 9.28125 41.765625 C5.98125 41.765625 2.68125 41.765625 -0.71875 41.765625 C-0.71875 41.105625 -0.71875 40.445625 -0.71875 39.765625 C-1.28980469 40.08789062 -1.86085938 40.41015625 -2.44921875 40.7421875 C-6.6505011 42.63674168 -11.28968388 42.58678703 -15.6484375 41.11328125 C-21.94227378 37.85447269 -26.50504844 32.46710336 -28.71875 25.765625 C-29.8861995 17.7655237 -28.30670667 11.39665613 -23.71875 4.765625 C-17.6522818 -1.83165917 -8.26829629 -3.75399659 0 0 Z " fill="#F6FBF6" transform="translate(45.71875,40.234375)"/>
<path d="M0 0 C3.51118776 2.6685027 6.13293108 5.41840228 8.125 9.375 C8.125 10.365 8.125 11.355 8.125 12.375 C2.68 13.86 2.68 13.86 -2.875 15.375 C-3.57625 14.385 -4.2775 13.395 -5 12.375 C-7.07747788 9.90321329 -7.65801975 9.42813802 -10.9375 8.625 C-14.08383226 9.15084025 -14.08383226 9.15084025 -16.25 11.875 C-18.31222463 16.31671458 -18.41475467 18.51720798 -17.875 23.375 C-16.23812815 26.96052881 -15.18527417 28.16815055 -11.875 30.375 C-9.32039786 30.44772562 -9.32039786 30.44772562 -6.875 29.375 C-5.03065651 26.91384453 -5.03065651 26.91384453 -3.875 24.375 C0.4427458 24.88297009 4.15802114 25.57182779 8.125 27.375 C6.90584942 33.6231467 3.09952989 36.79924881 -1.875 40.375 C-7.85624663 42.36874888 -14.54934022 42.37408576 -20.3125 39.6875 C-25.65867293 36.55617014 -28.36719309 32.30857737 -30.3359375 26.54296875 C-32.06488636 19.58958746 -31.01347183 12.77648618 -27.875 6.375 C-25.4375 3.5 -25.4375 3.5 -22.875 1.375 C-22.194375 0.7975 -21.51375 0.22 -20.8125 -0.375 C-14.92540767 -4.17312408 -6.03115101 -3.08847953 0 0 Z " fill="#717272" transform="translate(156.875,40.625)"/>
<path d="M0 0 C0 4.95 0 9.9 0 15 C3.3 15 6.6 15 10 15 C10 18.63 10 22.26 10 26 C6.7 26 3.4 26 0 26 C0.33 32.93 0.66 39.86 1 47 C3.64 47 6.28 47 9 47 C9.50367757 48.45706726 10.00282556 49.91570096 10.5 51.375 C10.7784375 52.18710938 11.056875 52.99921875 11.34375 53.8359375 C12 56 12 56 12 58 C8.35256851 59.12788405 4.86588933 59.20129064 1.0625 59.25 C-0.14277344 59.27578125 -1.34804688 59.3015625 -2.58984375 59.328125 C-6.2532528 58.97563203 -8.09211643 58.20634997 -11 56 C-12.40912096 53.18175808 -12.11183553 50.82748718 -12.09765625 47.6796875 C-12.09443359 46.42285156 -12.09121094 45.16601562 -12.08789062 43.87109375 C-12.07951172 42.55238281 -12.07113281 41.23367187 -12.0625 39.875 C-12.05748489 38.53515789 -12.05292201 37.195314 -12.04882812 35.85546875 C-12.03701086 32.57026794 -12.02053617 29.28515603 -12 26 C-14.31 26 -16.62 26 -19 26 C-19 22.37 -19 18.74 -19 15 C-16.69 15 -14.38 15 -12 15 C-12 11.04 -12 7.08 -12 3 C-1.125 0 -1.125 0 0 0 Z " fill="#23AFE2" transform="translate(427,23)"/>
<path d="M0 0 C3.00094321 2.64368807 5.3088606 5.04265614 7.625 8.3125 C7.625 9.6325 7.625 10.9525 7.625 12.3125 C6.35660474 12.81865298 5.08516898 13.31719099 3.8125 13.8125 C3.10480469 14.0909375 2.39710938 14.369375 1.66796875 14.65625 C-0.375 15.3125 -0.375 15.3125 -3.375 15.3125 C-3.7875 14.508125 -4.2 13.70375 -4.625 12.875 C-6.21986609 9.95358531 -6.21986609 9.95358531 -9.875 9.3125 C-13.23491924 9.00487166 -13.23491924 9.00487166 -15.1875 10.4375 C-17.99248299 14.86642051 -18.81362499 18.20552508 -17.98046875 23.37109375 C-16.93855132 26.71195157 -15.18026172 28.33606561 -12.375 30.3125 C-9.75383489 30.6384856 -9.75383489 30.6384856 -7.375 29.3125 C-6.75625 28.44625 -6.1375 27.58 -5.5 26.6875 C-4.448125 25.511875 -4.448125 25.511875 -3.375 24.3125 C0.77895838 24.38667783 4.0597874 25.17337244 7.625 27.3125 C7.20317695 32.09316121 5.01760355 35.0867458 1.625 38.3125 C-3.8166933 42.29422681 -9.90677702 41.93701808 -16.375 41.3125 C-22.21081482 39.55074458 -25.85158365 35.12686503 -29.375 30.3125 C-31.57480405 23.71308784 -31.71539894 14.09817571 -28.75 7.6875 C-25.95555714 3.16128974 -22.42978439 0.36378504 -17.6875 -2.0625 C-11.50270733 -3.22944201 -5.65333106 -2.82666553 0 0 Z " fill="#23AFE2" transform="translate(267.375,40.6875)"/>
<path d="M0 0 C0 3.96 0 7.92 0 12 C-2.5390625 12.68359375 -5.078125 13.3671875 -7.6171875 14.05078125 C-10.32113319 14.86669852 -10.32113319 14.86669852 -12 18 C-12.36844508 20.8086043 -12.36844508 20.8086043 -12.4140625 23.98046875 C-12.47207031 25.72553711 -12.47207031 25.72553711 -12.53125 27.50585938 C-12.57765625 29.32827148 -12.57765625 29.32827148 -12.625 31.1875 C-12.66367187 32.41404297 -12.70234375 33.64058594 -12.7421875 34.90429688 C-12.83655794 37.93594715 -12.91937174 40.96795312 -13 44 C-17.29 44 -21.58 44 -26 44 C-26 29.81 -26 15.62 -26 1 C-21.71 1 -17.42 1 -13 1 C-13 1.66 -13 2.32 -13 3 C-11.96875 2.505 -10.9375 2.01 -9.875 1.5 C-6.15420862 -0.28597986 -4.66443965 0 0 0 Z " fill="#23AFE2" transform="translate(303,38)"/>
<path d="M0 0 C0 3.96 0 7.92 0 12 C-2.5390625 12.71614583 -5.078125 13.43229167 -7.6171875 14.1484375 C-10.14569726 14.8604315 -10.14569726 14.8604315 -12 17 C-12.37239227 19.81402683 -12.37239227 19.81402683 -12.4140625 23.1015625 C-12.47207031 24.91914062 -12.47207031 24.91914062 -12.53125 26.7734375 C-12.5621875 28.04445313 -12.593125 29.31546875 -12.625 30.625 C-12.68300781 32.543125 -12.68300781 32.543125 -12.7421875 34.5 C-12.83670756 37.66642211 -12.919452 40.83319166 -13 44 C-17.29 44 -21.58 44 -26 44 C-26 29.81 -26 15.62 -26 1 C-21.71 1 -17.42 1 -13 1 C-13 1.66 -13 2.32 -13 3 C-11.96875 2.505 -10.9375 2.01 -9.875 1.5 C-6.15420862 -0.28597986 -4.66443965 0 0 0 Z " fill="#717272" transform="translate(235,38)"/>
<path d="M0 0 C3.96 0 7.92 0 12 0 C12 14.19 12 28.38 12 43 C8.04 43 4.08 43 0 43 C0 28.81 0 14.62 0 0 Z " fill="#23AEE3" transform="translate(393,39)"/>
<path d="M0 0 C3.29303545 2.7019778 4.28225316 5.29150824 5 9.375 C5.36884044 14.39625966 3.94821659 16.98714965 1 21 C-2.51253146 23.34168764 -3.86469356 23.49623677 -8 23 C-10.88595644 21.22907219 -12.57622844 19.67418203 -14.375 16.8125 C-15.2851718 12.71672691 -15.03724944 9.06072122 -14 5 C-10.16381696 -0.93989632 -6.79658055 -1.9111177 0 0 Z " fill="#50B84E" transform="translate(86,49)"/>
<path d="M0 0 C2 2 2 2 2.3125 5.4375 C2 9 2 9 0.875 10.875 C-1.88622381 12.53173428 -3.76578825 13 -7 13 C-9.9375 11 -9.9375 11 -12 8 C-12.125 4.375 -12.125 4.375 -11 1 C-7.12126632 -2.65709176 -4.65429004 -2.17200202 0 0 Z " fill="#23AFE3" transform="translate(404,25)"/>
</svg>
