<?xml version="1.0" encoding="UTF-8"?>
<svg version="1.1" xmlns="http://www.w3.org/2000/svg" width="1126" height="417">
<path d="M0 0 C2.76240429 0.00848181 5.52271175 -0.02032027 8.28491211 -0.05200195 C43.00716313 -0.18792309 73.73352446 12.77389382 100.59545898 34.44604492 C100.01184289 38.11214037 98.55310764 39.89801053 96.03295898 42.57104492 C93.1595972 45.69913736 90.41255171 48.86015662 87.78295898 52.19604492 C82.87344454 58.40888356 77.73246014 64.42140018 72.59545898 70.44604492 C69.01151979 69.16606664 66.39136491 67.68522913 63.47045898 65.25854492 C50.22885947 54.77832987 36.0994976 48.82961626 19.59545898 45.44604492 C18.73952148 45.26299805 17.88358398 45.07995117 17.00170898 44.89135742 C-6.39211772 41.83299017 -29.02139616 45.54966901 -48.21704102 59.75854492 C-49.63912855 60.95723939 -51.03330635 62.18949533 -52.40454102 63.44604492 C-53.31977539 64.28135742 -54.23500977 65.11666992 -55.17797852 65.97729492 C-60.51897935 71.01112552 -64.82687038 76.04472985 -68.28344727 82.54760742 C-69.40454102 84.44604492 -69.40454102 84.44604492 -71.40454102 85.44604492 C-72.12189085 87.42843077 -72.77756664 89.43324896 -73.40454102 91.44604492 C-74.12146524 93.247342 -74.83868491 95.04853055 -75.56225586 96.84716797 C-84.36793064 119.13704918 -84.32296416 141.38004757 -78.40454102 164.44604492 C-78.11579102 165.57655273 -77.82704102 166.70706055 -77.52954102 167.87182617 C-71.72918404 187.42213652 -58.12555101 203.9296987 -40.36547852 213.74291992 C-33.30498524 217.46619442 -26.2172803 220.66654424 -18.40454102 222.44604492 C-17.79384766 222.61088379 -17.1831543 222.77572266 -16.55395508 222.94555664 C9.31170053 229.49670891 36.79672351 222.37897407 59.52124023 209.74291992 C61.70687049 208.4844298 61.70687049 208.4844298 63.59545898 206.44604492 C63.92562404 204.34624449 63.92562404 204.34624449 63.91430664 201.90454102 C63.93417633 200.96371674 63.95404602 200.02289246 63.97451782 199.05355835 C63.98606903 198.03581329 63.99762024 197.01806824 64.00952148 195.96948242 C64.02888763 194.92909821 64.04825378 193.88871399 64.06820679 192.81680298 C64.12811626 189.48496773 64.1744335 186.15309814 64.22045898 182.82104492 C64.25862829 180.56582129 64.29767939 178.31061241 64.33764648 176.05541992 C64.43382697 170.51909217 64.51884095 164.98267607 64.59545898 159.44604492 C63.78335464 159.44826553 62.97125031 159.45048615 62.13453674 159.45277405 C54.4971695 159.47277563 46.85981488 159.48801837 39.22242832 159.49785709 C35.2955724 159.50308523 31.36873804 159.51018162 27.44189453 159.52148438 C23.65531641 159.53231573 19.86875908 159.53832228 16.08216667 159.54092216 C14.63441579 159.54277597 13.1866661 159.54639573 11.73892403 159.55177498 C9.71788764 159.5589886 7.69683051 159.559453 5.67578125 159.55957031 C3.94703514 159.56290123 3.94703514 159.56290123 2.18336487 159.56629944 C-0.40454102 159.44604492 -0.40454102 159.44604492 -1.40454102 158.44604492 C-1.40454102 145.24604492 -1.40454102 132.04604492 -1.40454102 118.44604492 C35.55545898 118.44604492 72.51545898 118.44604492 110.59545898 118.44604492 C110.76045898 136.28666992 110.92545898 154.12729492 111.09545898 172.50854492 C111.16829102 178.1353833 111.24112305 183.76222168 111.31616211 189.55957031 C111.35229492 196.44689941 111.35229492 196.44689941 111.35900879 199.67430115 C111.37126931 201.9216225 111.39935731 204.16889218 111.44006348 206.4158783 C111.498748 209.82667989 111.50670425 213.23427601 111.50366211 216.64550781 C111.53244698 217.64147256 111.56123184 218.63743731 111.59088898 219.6635828 C111.54266411 223.71091151 111.46236072 226.37378514 108.86203003 229.59010124 C106.84944764 231.37767802 104.82229917 232.93716641 102.59545898 234.44604492 C101.57581055 235.17952148 100.55616211 235.91299805 99.50561523 236.66870117 C98.56588867 237.27584961 97.62616211 237.88299805 96.65795898 238.50854492 C92.4966006 241.19173475 92.4966006 241.19173475 88.42358398 244.00463867 C70.92954911 256.5149078 49.37796314 262.27242153 28.59545898 266.44604492 C27.88035156 266.62111572 27.16524414 266.79618652 26.4284668 266.9765625 C22.44330186 267.63697892 18.50819797 267.66813766 14.47436523 267.71948242 C13.14172638 267.73827454 13.14172638 267.73827454 11.78216553 267.75744629 C-24.66745904 268.17208887 -24.66745904 268.17208887 -41.40454102 262.44604492 C-42.46850098 262.10911621 -42.46850098 262.10911621 -43.55395508 261.76538086 C-70.66995656 253.13699132 -96.68044136 235.15692521 -111.40454102 210.44604492 C-112.09594727 208.15307617 -112.09594727 208.15307617 -112.40454102 206.44604492 C-113.06454102 206.44604492 -113.72454102 206.44604492 -114.40454102 206.44604492 C-118.84594846 198.17195084 -122.82997247 189.94017773 -125.77954102 181.00854492 C-126.01753418 180.28876465 -126.25552734 179.56898438 -126.50073242 178.82739258 C-137.71815971 143.58995156 -134.38023516 103.5479593 -117.83496094 70.62988281 C-101.1019496 38.83677845 -72.31584819 15.43087956 -38.13891602 4.69995117 C-36.56522596 4.26558265 -34.98638995 3.84969123 -33.40454102 3.44604492 C-32.36837646 3.17896729 -31.33221191 2.91188965 -30.26464844 2.63671875 C-20.13773986 0.30908245 -10.35428394 -0.04823566 0 0 Z " fill="#7F8587" transform="translate(625.404541015625,74.553955078125)"/>
<path d="M0 0 C15.51 0 31.02 0 47 0 C47 71.28 47 142.56 47 216 C91.22 216.33 135.44 216.66 181 217 C181 230.86 181 244.72 181 259 C121.27 259 61.54 259 0 259 C0 173.53 0 88.06 0 0 Z " fill="#7F8587" transform="translate(793,79)"/>
<path d="M0 0 C58.41 0 116.82 0 177 0 C177 13.86 177 27.72 177 42 C176 43 176 43 173.86231136 43.12304783 C172.9119428 43.12212604 171.96157423 43.12120424 170.98240662 43.12025452 C169.89560608 43.12162918 168.80880554 43.12300385 167.68907166 43.12442017 C166.48642166 43.12082489 165.28377167 43.11722961 164.04467773 43.11352539 C162.78632111 43.11367142 161.52796448 43.11381744 160.23147583 43.1139679 C156.77088747 43.11425585 153.31033348 43.10835949 149.84975314 43.10139394 C146.23691909 43.09516003 142.62408433 43.09455657 139.01124573 43.09336853 C132.16536492 43.09025532 125.3195 43.08204208 118.4736262 43.07201904 C109.22594423 43.05877223 99.97825794 43.05335791 90.73056889 43.04751682 C76.15370068 43.03810218 61.57686601 43.0181832 47 43 C47 77.32 47 111.64 47 147 C31.49 147 15.98 147 0 147 C0 98.49 0 49.98 0 0 Z " fill="#808688" transform="translate(265,191)"/>
<path d="M0 0 C15.18 0 30.36 0 46 0 C46 85.47 46 170.94 46 259 C30.82 259 15.64 259 0 259 C0 173.53 0 88.06 0 0 Z " fill="#7F8587" transform="translate(152,79)"/>
<path d="M0 0 C63.69 0 127.38 0 193 0 C193 13.86 193 27.72 193 42 C129.31 42 65.62 42 0 42 C0 28.14 0 14.28 0 0 Z " fill="#04B9E4" transform="translate(265,79)"/>
<path d="M0 0 C0.99 0.33 1.98 0.66 3 1 C2.01 1.495 2.01 1.495 1 2 C0.27514244 3.97965299 -0.37713791 5.98592769 -1 8 C-1.49349254 9.36530704 -1.99660907 10.72716259 -2.5078125 12.0859375 C-2.77207031 12.78847656 -3.03632812 13.49101562 -3.30859375 14.21484375 C-3.71271484 15.28412109 -3.71271484 15.28412109 -4.125 16.375 C-4.40214844 17.11105469 -4.67929687 17.84710938 -4.96484375 18.60546875 C-5.64222223 20.40402539 -6.32097033 22.2020661 -7 24 C-8.231394 20.30581799 -7.64432764 17.7943739 -7 14 C-6.34 14 -5.68 14 -5 14 C-4.9175 12.989375 -4.835 11.97875 -4.75 10.9375 C-4.15993932 6.62213084 -2.31083998 3.65261803 0 0 Z " fill="#ADB0B2" transform="translate(553,158)"/>
<path d="M0 0 C0.99519458 3.11874358 0.93881132 5.03816169 0.125 8.1875 C-1.54422159 15.68771861 -1.6626707 23.34795109 -2 31 C-2.33 31 -2.66 31 -3 31 C-3.22918417 27.68860582 -3.42943249 24.37603595 -3.625 21.0625 C-3.68945312 20.13630859 -3.75390625 19.21011719 -3.8203125 18.25585938 C-4.15162096 12.35442749 -4.15529296 6.59675659 -2 1 C-1.34 0.67 -0.68 0.34 0 0 Z " fill="#A5A9AB" transform="translate(544,184)"/>
<path d="M0 0 C1.60938465 2.41407698 2.65490738 4.34044437 3.6875 7 C3.95949219 7.680625 4.23148438 8.36125 4.51171875 9.0625 C5 11 5 11 4 14 C1.31796037 12.01762288 0.98442756 10.9221378 0.3125 7.5625 C0 4 0 4 0 0 Z " fill="#B3B6B7" transform="translate(545,236)"/>
<path d="M0 0 C-5.49687876 2.96656949 -11.74410231 4.4036063 -18 4 C-17.34 3.67 -16.68 3.34 -16 3 C-16 2.34 -16 1.68 -16 1 C-13.02148438 1.04882812 -13.02148438 1.04882812 -10.04296875 1.09765625 C-6.55704208 0.93102496 -3.59580048 -0.0971838 0 0 Z " fill="#ADB0B1" transform="translate(672,336)"/>
<path d="M0 0 C0.99 0.33 1.98 0.66 3 1 C-0.42388092 4.82669043 -3.00724943 6.72278474 -8 8 C-5.6166139 4.85052551 -3.44915025 2.0027324 0 0 Z " fill="#969B9D" transform="translate(546,100)"/>
<path d="M0 0 C3.7952131 1.49097658 5.61042731 3.75700849 8 7 C4.0521912 7 2.81491174 5.66275435 0 3 C0 2.01 0 1.02 0 0 Z " fill="#8E9495" transform="translate(535,307)"/>
<path d="M0 0 C0.99 0.33 1.98 0.66 3 1 C2.01 1.495 2.01 1.495 1 2 C0.690625 2.99 0.38125 3.98 0.0625 5 C-0.288125 5.99 -0.63875 6.98 -1 8 C-1.99 8.33 -2.98 8.66 -4 9 C-2.94124926 5.59687262 -1.99097846 2.98646769 0 0 Z " fill="#979C9D" transform="translate(553,158)"/>
<path d="M0 0 C0.66 0.33 1.32 0.66 2 1 C-6.261959 6.74031891 -6.261959 6.74031891 -11 6 C-7.57874946 3.12614955 -4.16111563 1.54115394 0 0 Z " fill="#A5A9AB" transform="translate(577,83)"/>
<path d="M0 0 C1.09054687 0.02320312 2.18109375 0.04640625 3.3046875 0.0703125 C4.40039062 0.08835937 5.49609375 0.10640625 6.625 0.125 C7.46804688 0.14820312 8.31109375 0.17140625 9.1796875 0.1953125 C4.01152064 2.86850226 0.97809877 3.17994838 -4.8203125 2.1953125 C-2.8203125 0.1953125 -2.8203125 0.1953125 0 0 Z " fill="#ABAFB0" transform="translate(609.8203125,74.8046875)"/>
<path d="M0 0 C4 1 4 1 5.8125 2.875 C6.204375 3.57625 6.59625 4.2775 7 5 C6.67 5.99 6.34 6.98 6 8 C4.02 5.36 2.04 2.72 0 0 Z " fill="#9B9FA1" transform="translate(518,290)"/>
<path d="M0 0 C3.0916909 2.52956528 3.90931332 5.22454612 5 9 C2 8 2 8 0.8125 6.1875 C0 4 0 4 0 0 Z " fill="#9EA3A4" transform="translate(552,255)"/>
<path d="M0 0 C1.33332095 2.6666419 0.67102033 4.16680303 0 7 C-0.66 7 -1.32 7 -2 7 C-2.33 8.32 -2.66 9.64 -3 11 C-4 8 -4 8 -3.22265625 5.95703125 C-2.83980469 5.24933594 -2.45695312 4.54164063 -2.0625 3.8125 C-1.68222656 3.09707031 -1.30195313 2.38164062 -0.91015625 1.64453125 C-0.60980469 1.10183594 -0.30945313 0.55914062 0 0 Z " fill="#B4B7B9" transform="translate(509,143)"/>
<path d="M0 0 C0 0.66 0 1.32 0 2 C0.99 2.33 1.98 2.66 3 3 C0.36749612 4.31625194 -0.80179056 3.74813658 -3.625 3.0625 C-4.85089844 2.77052734 -4.85089844 2.77052734 -6.1015625 2.47265625 C-7.04128906 2.23869141 -7.04128906 2.23869141 -8 2 C-8 1.67 -8 1.34 -8 1 C-2.25 0 -2.25 0 0 0 Z " fill="#ACAFB1" transform="translate(605,338)"/>
<path d="M0 0 C6.75 1.75 6.75 1.75 9 4 C8.01 4.33 7.02 4.66 6 5 C2.8125 3.125 2.8125 3.125 0 1 C0 0.67 0 0.34 0 0 Z " fill="#93989A" transform="translate(547,318)"/>
</svg>
