<svg xmlns="http://www.w3.org/2000/svg" width="840" height="859" viewBox="0 0 840 859">
<g>
<path d="M 644.68 397.02 L 633.85 397.00 L 627.75 402.75 C624.39,405.91 622.48,407.38 623.51,406.00 C624.54,404.62 627.56,401.59 630.22,399.25 L 635.07 395.00 L 647.43 395.00 C658.01,395.00 659.88,395.24 660.42,396.66 C660.81,397.67 660.20,399.22 658.85,400.66 C656.15,403.54 653.96,403.81 656.56,400.94 C659.41,397.79 657.11,397.03 644.68,397.02 ZM 436.27 400.75 C436.64,402.28 436.36,403.00 435.41,403.00 C434.58,403.00 434.00,401.98 434.00,400.52 C434.00,397.27 431.15,396.57 420.82,397.27 C413.92,397.75 413.10,397.64 414.68,396.44 C415.87,395.54 419.31,395.05 424.60,395.03 C433.24,395.00 435.09,395.90 436.27,400.75 ZM 809.00 414.89 C809.00,415.26 803.22,415.55 796.16,415.55 C785.12,415.55 783.66,415.37 785.77,414.28 C789.71,412.23 809.00,412.74 809.00,414.89 ZM 162.50 414.79 C165.72,415.58 163.77,415.78 152.50,415.81 C144.80,415.83 139.18,415.62 140.00,415.35 C140.82,415.08 142.45,414.40 143.61,413.84 C145.91,412.72 156.19,413.24 162.50,414.79 ZM 357.68 414.29 C359.51,415.30 358.07,415.51 348.93,415.58 C338.72,415.66 335.82,415.05 339.58,413.61 C342.37,412.54 355.42,413.03 357.68,414.29 ZM 741.01 432.95 C740.41,435.18 739.72,437.00 739.46,437.00 C739.21,437.00 739.00,433.17 739.00,428.50 C739.00,423.83 739.40,420.00 739.89,420.00 C741.40,420.00 742.16,428.69 741.01,432.95 ZM 692.50 506.09 C687.37,507.11 669.00,507.24 669.00,506.25 C669.00,505.84 675.19,505.45 682.75,505.39 C692.01,505.32 695.19,505.55 692.50,506.09 ZM 782.00 431.48 C782.00,431.70 781.21,431.82 780.24,431.74 C779.25,431.67 777.67,429.94 776.68,427.85 C775.15,424.65 775.07,423.75 776.19,421.80 C777.45,419.59 777.51,419.65 777.83,423.50 C778.01,425.81 778.96,428.25 780.08,429.28 C781.13,430.27 782.00,431.26 782.00,431.48 ZM 777.68 506.22 C776.19,507.17 761.33,507.05 758.00,506.06 C756.60,505.64 760.62,505.35 767.18,505.39 C773.61,505.43 778.33,505.80 777.68,506.22 ZM 191.00 473.94 C191.00,477.82 190.82,481.00 190.61,481.00 C188.90,481.00 188.34,468.53 190.00,467.50 C190.63,467.11 191.00,469.49 191.00,473.94 ZM 496.86 506.11 C495.19,507.16 481.00,507.29 481.00,506.25 C481.00,505.84 484.88,505.44 489.62,505.37 C494.79,505.29 497.68,505.59 496.86,506.11 ZM 592.00 438.00 C592.00,439.63 587.99,439.14 587.34,437.43 C587.00,436.57 587.36,434.69 588.12,433.26 L 589.50 430.65 L 589.81 433.82 C589.99,435.57 590.55,437.00 591.06,437.00 C591.58,437.00 592.00,437.45 592.00,438.00 ZM 235.00 506.07 C231.68,507.04 219.80,507.16 218.35,506.23 C217.72,505.83 221.77,505.46 227.35,505.42 C233.14,505.37 236.43,505.65 235.00,506.07 ZM 823.00 397.28 C824.46,397.54 823.63,397.77 821.00,397.83 C818.53,397.88 815.38,397.29 814.00,396.50 L 811.50 395.07 L 815.05 395.04 C817.00,395.02 819.03,395.41 819.55,395.92 C820.07,396.42 821.62,397.03 823.00,397.28 ZM 178.00 396.50 L 180.50 397.93 L 177.50 397.92 C175.85,397.91 173.15,397.29 171.50,396.54 L 168.50 395.16 L 172.00 395.12 C173.93,395.09 176.62,395.71 178.00,396.50 ZM 5.89 478.25 C5.95,482.51 5.81,486.00 5.59,486.00 C4.60,486.00 4.15,478.15 4.92,474.50 C5.67,470.95 5.78,471.38 5.89,478.25 ZM 386.64 500.81 C386.58,503.11 386.50,505.00 386.47,505.00 C386.43,505.00 385.86,504.46 385.20,503.80 C383.64,502.24 383.68,500.81 385.38,498.50 C386.62,496.80 386.74,497.01 386.64,500.81 ZM 121.50 506.00 C118.77,507.17 114.81,507.17 113.00,506.00 C111.94,505.32 113.28,505.05 117.50,505.09 C121.77,505.12 122.92,505.39 121.50,506.00 ZM 587.01 457.03 C587.65,458.21 587.90,459.43 587.58,459.75 C587.26,460.07 587.00,459.81 587.00,459.17 C587.00,458.52 585.84,458.00 584.42,458.00 C582.79,458.00 581.99,457.53 582.25,456.75 C582.96,454.61 585.81,454.78 587.01,457.03 ZM 717.98 430.81 C717.98,432.29 717.53,434.17 717.00,435.00 C716.30,436.08 716.03,435.16 716.02,431.69 C716.01,428.74 716.39,427.12 717.00,427.50 C717.55,427.84 717.99,429.33 717.98,430.81 ZM 257.56 503.53 C255.42,505.15 252.00,505.51 252.00,504.12 C252.00,503.19 255.42,502.01 258.00,502.05 C259.14,502.06 259.03,502.42 257.56,503.53 ZM 716.45 502.93 C714.98,504.37 710.00,505.36 710.00,504.22 C710.00,503.00 712.40,502.00 715.28,502.00 C716.60,502.00 717.04,502.35 716.45,502.93 ZM 367.88 431.69 C367.95,434.55 367.55,437.16 367.00,437.50 C365.85,438.21 365.85,434.01 367.00,429.50 C367.66,426.92 367.78,427.23 367.88,431.69 ZM 553.61 420.42 C554.21,422.00 552.93,422.60 551.67,421.33 C550.62,420.29 550.89,416.00 552.00,416.00 C552.55,416.00 553.00,416.64 553.00,417.42 C553.00,418.20 553.27,419.55 553.61,420.42 ZM 712.00 485.00 C708.33,486.17 703.77,486.17 704.50,485.00 C704.84,484.45 707.23,484.04 709.81,484.10 C713.65,484.18 714.05,484.34 712.00,485.00 ZM 505.44 396.47 C504.37,397.28 502.15,397.90 500.50,397.85 C498.44,397.79 498.13,397.62 499.50,397.29 C500.60,397.02 501.93,396.40 502.45,395.90 C502.97,395.41 504.30,395.00 505.39,395.00 C507.36,395.00 507.36,395.02 505.44,396.47 ZM 149.00 500.44 C149.00,502.40 148.55,504.00 148.00,504.00 C147.45,504.00 147.00,502.68 147.00,501.06 C147.00,499.44 147.45,497.84 148.00,497.50 C148.60,497.13 149.00,498.32 149.00,500.44 ZM 167.57 420.45 C167.21,422.40 166.48,424.00 165.95,424.00 C164.69,424.00 164.73,421.29 166.00,420.50 C166.55,420.16 167.00,418.93 167.00,417.77 C167.00,416.62 167.28,415.95 167.62,416.29 C167.96,416.63 167.94,418.50 167.57,420.45 ZM 746.00 485.03 C747.10,485.77 746.37,485.98 743.25,485.82 C740.91,485.70 739.00,485.25 739.00,484.80 C739.00,483.66 744.20,483.83 746.00,485.03 ZM 618.15 439.00 C615.28,441.88 614.00,442.63 614.00,441.45 C614.00,440.65 619.35,436.07 620.33,436.03 C620.78,436.01 619.80,437.35 618.15,439.00 ZM 289.96 429.56 C289.98,430.69 289.34,432.49 288.53,433.56 C286.55,436.18 286.53,433.45 288.50,430.00 C289.81,427.71 289.93,427.68 289.96,429.56 ZM 258.97 455.55 C258.95,456.62 258.22,458.40 257.35,459.50 C255.83,461.42 255.79,461.38 256.45,458.50 C257.30,454.80 259.01,452.80 258.97,455.55 ZM 634.00 501.50 C634.00,502.88 633.55,504.00 633.00,504.00 C632.45,504.00 632.00,502.88 632.00,501.50 C632.00,500.12 632.45,499.00 633.00,499.00 C633.55,499.00 634.00,500.12 634.00,501.50 ZM 239.56 396.53 C238.49,397.34 236.92,397.99 236.06,397.97 C234.81,397.94 234.89,397.64 236.44,396.47 C237.51,395.66 239.08,395.01 239.94,395.03 C241.19,395.06 241.11,395.36 239.56,396.53 ZM 119.78 405.50 C116.90,408.18 116.00,408.55 116.00,407.07 C116.00,406.55 116.90,405.85 118.00,405.50 C119.10,405.15 120.00,404.45 120.00,403.93 C120.00,403.42 120.56,403.00 121.24,403.00 C121.92,403.00 121.27,404.12 119.78,405.50 ZM 632.00 495.56 C632.00,496.35 631.60,497.00 631.11,497.00 C630.09,497.00 628.71,493.95 629.41,493.26 C630.20,492.46 632.00,494.06 632.00,495.56 ZM 305.85 370.55 C305.66,371.53 304.89,372.54 304.15,372.78 C303.29,373.07 302.93,372.59 303.15,371.45 C303.34,370.47 304.11,369.46 304.85,369.22 C305.71,368.93 306.07,369.41 305.85,370.55 ZM 126.64 401.50 C125.82,402.33 124.61,403.00 123.95,403.00 C123.05,403.00 123.06,402.63 124.00,401.50 C124.68,400.67 125.90,400.00 126.69,400.00 C127.94,400.00 127.93,400.21 126.64,401.50 ZM 276.07 390.00 C275.56,390.00 274.94,391.01 274.71,392.25 C274.31,394.30 274.26,394.32 274.14,392.44 C274.06,391.31 274.66,389.51 275.47,388.44 C276.80,386.68 276.94,386.67 276.97,388.25 C276.99,389.21 276.58,390.00 276.07,390.00 ZM 542.97 471.13 C542.99,472.02 542.33,473.32 541.50,474.00 C539.58,475.60 539.56,473.97 541.47,471.44 C542.70,469.81 542.94,469.76 542.97,471.13 ZM 266.49 426.00 C265.62,429.05 263.99,431.01 264.03,428.95 C264.05,428.15 264.77,426.60 265.64,425.50 C267.16,423.56 267.19,423.57 266.49,426.00 ZM 603.57 426.57 C601.51,428.64 600.78,428.33 602.23,426.00 C602.92,424.90 603.82,424.00 604.24,424.00 C605.41,424.00 605.15,425.00 603.57,426.57 ZM 198.07 437.00 C197.56,437.00 196.94,437.79 196.69,438.75 C196.33,440.11 196.21,440.15 196.12,438.94 C196.05,438.08 196.66,436.51 197.47,435.44 C198.80,433.68 198.94,433.67 198.97,435.25 C198.99,436.21 198.58,437.00 198.07,437.00 ZM 576.98 391.69 C576.99,392.90 576.55,394.16 576.00,394.50 C574.73,395.29 574.73,392.97 576.00,391.00 C576.79,389.78 576.97,389.91 576.98,391.69 ZM 644.98 455.69 C644.99,456.90 644.55,458.16 644.00,458.50 C642.73,459.29 642.73,456.97 644.00,455.00 C644.79,453.78 644.97,453.91 644.98,455.69 ZM 269.00 417.44 C269.00,418.23 268.55,419.16 268.00,419.50 C267.45,419.84 267.00,419.19 267.00,418.06 C267.00,416.93 267.45,416.00 268.00,416.00 C268.55,416.00 269.00,416.65 269.00,417.44 ZM 791.63 502.30 C791.93,502.59 791.23,503.34 790.09,503.95 C788.64,504.73 788.00,504.74 788.00,504.00 C788.00,502.79 790.80,501.47 791.63,502.30 ZM 468.00 422.74 C468.00,424.24 465.07,427.64 465.03,426.18 C465.01,425.45 465.67,424.18 466.50,423.36 C467.33,422.53 468.00,422.25 468.00,422.74 ZM 100.00 430.74 C100.00,432.24 97.07,435.64 97.03,434.18 C97.01,433.45 97.68,432.18 98.50,431.36 C99.32,430.53 100.00,430.25 100.00,430.74 ZM 788.39 482.42 C788.06,483.29 787.38,484.00 786.89,484.00 C785.58,484.00 785.80,483.06 787.50,481.36 C789.13,479.73 789.33,479.97 788.39,482.42 ZM 144.37 482.48 C144.05,483.31 143.16,484.00 142.39,484.00 C140.44,484.00 140.66,483.25 142.98,482.01 C144.59,481.15 144.85,481.23 144.37,482.48 ZM 569.00 422.38 C569.00,423.21 568.55,424.16 568.00,424.50 C567.45,424.84 567.00,424.44 567.00,423.62 C567.00,422.79 567.45,421.84 568.00,421.50 C568.55,421.16 569.00,421.56 569.00,422.38 ZM 556.00 471.38 C556.00,472.21 555.55,473.16 555.00,473.50 C554.45,473.84 554.00,473.44 554.00,472.62 C554.00,471.79 554.45,470.84 555.00,470.50 C555.55,470.16 556.00,470.56 556.00,471.38 ZM 110.00 414.89 C110.00,415.38 109.35,416.04 108.55,416.34 C107.58,416.71 107.29,416.42 107.66,415.45 C108.26,413.87 110.00,413.46 110.00,414.89 ZM 196.00 445.44 C196.00,446.30 195.55,447.00 195.00,447.00 C194.45,447.00 194.00,446.58 194.00,446.06 C194.00,445.54 194.45,444.84 195.00,444.50 C195.55,444.16 196.00,444.58 196.00,445.44 Z" fill="rgb(242,88,106)"/>
<path d="M 337.00 505.86 C327.60,507.12 321.65,507.32 320.73,506.40 C320.40,506.06 315.48,505.42 309.81,504.96 C299.50,504.13 289.69,502.26 287.16,500.63 C285.31,499.44 285.90,495.49 290.46,478.50 C291.35,475.20 292.68,470.02 293.42,467.00 C294.17,463.98 295.96,457.23 297.40,452.00 C298.84,446.77 300.96,438.67 302.10,434.00 C303.25,429.33 304.59,424.72 305.09,423.76 C305.59,422.81 306.00,421.01 306.00,419.76 C305.99,418.52 306.65,415.48 307.45,413.00 C308.85,408.71 309.94,404.67 315.59,383.00 C316.96,377.77 318.75,371.02 319.59,368.00 C320.42,364.98 321.44,361.15 321.84,359.50 L 322.58 356.50 L 334.29 356.22 C334.73,356.21 335.15,356.20 335.55,356.19 C342.15,356.02 344.91,355.96 345.73,357.19 C346.33,358.07 345.93,359.62 345.24,362.29 C345.18,362.52 345.12,362.75 345.06,363.00 C344.56,364.92 343.18,370.55 341.99,375.50 C340.80,380.45 339.41,385.28 338.91,386.24 C338.41,387.19 338.00,389.53 338.00,391.44 L 338.00 394.90 L 353.75 395.26 C364.57,395.50 370.60,396.06 373.00,397.06 C381.97,400.80 387.92,407.27 390.88,416.52 C392.90,422.83 391.40,440.24 388.14,448.32 C387.51,449.86 387.00,452.23 387.00,453.58 C387.00,454.93 386.61,456.81 386.14,457.76 C385.67,458.72 384.52,461.98 383.60,465.00 C378.85,480.49 368.29,494.10 356.57,499.81 C352.98,501.57 349.45,503.00 348.72,503.00 C347.99,503.00 346.97,503.39 346.45,503.86 C345.93,504.33 341.67,505.23 337.00,505.86 ZM 191.00 473.94 C191.00,469.49 190.63,467.11 190.00,467.50 C189.28,467.95 188.98,470.57 189.01,473.38 C188.76,470.52 188.97,468.36 189.75,467.58 C190.49,466.84 192.58,457.15 193.65,449.50 C193.79,448.50 194.00,447.50 194.23,446.66 C194.41,446.87 194.69,447.00 195.00,447.00 C195.55,447.00 196.00,446.30 196.00,445.44 C196.00,444.70 195.66,444.28 195.22,444.40 C195.66,443.75 196.00,442.17 196.00,440.70 C196.00,440.26 196.05,439.74 196.14,439.19 C196.23,440.14 196.36,440.01 196.69,438.75 C196.94,437.79 197.56,437.00 198.07,437.00 C198.58,437.00 198.99,436.21 198.97,435.25 C198.94,433.67 198.80,433.68 197.47,435.44 C197.23,435.75 197.02,436.10 196.83,436.46 C197.00,435.98 197.19,435.53 197.39,435.15 C198.15,433.69 200.38,429.05 202.35,424.83 C207.12,414.58 215.62,405.48 224.42,401.19 C228.01,399.44 231.75,397.99 232.73,397.97 C233.70,397.95 235.37,397.28 236.44,396.47 C234.89,397.64 234.81,397.94 236.06,397.97 C236.92,397.99 238.49,397.34 239.56,396.53 C240.32,395.96 240.73,395.59 240.80,395.36 C243.74,395.09 248.47,395.00 256.19,395.00 C273.60,395.00 274.00,394.95 274.00,392.90 C274.00,392.48 274.08,391.93 274.23,391.33 C274.15,391.73 274.11,392.11 274.14,392.44 C274.26,394.32 274.31,394.30 274.71,392.25 C274.94,391.01 275.56,390.00 276.07,390.00 C276.58,390.00 276.99,389.21 276.97,388.25 C276.94,386.67 276.80,386.68 275.47,388.44 C275.12,388.90 274.81,389.49 274.58,390.11 C274.81,389.42 275.10,388.73 275.40,388.15 C276.73,385.65 281.70,367.00 282.78,360.50 C283.05,358.85 283.78,357.17 284.39,356.77 C285.71,355.89 307.40,355.73 308.26,356.59 C308.58,356.92 308.21,359.00 307.42,361.22 C306.64,363.44 306.00,366.69 306.00,368.46 C306.00,370.22 305.68,371.98 305.30,372.37 C304.25,373.42 301.03,384.18 301.01,386.69 C301.01,387.90 300.56,389.15 300.03,389.48 C299.49,389.81 298.76,392.32 298.40,395.06 C298.03,397.80 297.35,400.29 296.87,400.58 C296.39,400.88 296.00,402.26 296.00,403.66 C296.00,405.05 295.36,407.62 294.58,409.35 C293.80,411.08 292.92,414.08 292.64,416.00 C292.11,419.62 291.07,424.51 289.95,428.98 C289.89,427.72 289.65,427.98 288.50,430.00 C286.53,433.45 286.55,436.18 288.53,433.56 C288.64,433.41 288.75,433.25 288.85,433.09 C288.37,434.76 287.90,436.28 287.47,437.50 C286.49,440.25 285.35,444.08 284.93,446.00 C284.52,447.92 283.21,453.10 282.02,457.50 C280.84,461.90 279.21,467.98 278.40,471.00 C277.60,474.02 276.50,477.88 275.97,479.57 C275.44,481.26 275.00,483.82 275.00,485.26 C275.00,486.70 274.58,488.14 274.06,488.46 C273.54,488.78 272.82,491.04 272.45,493.48 C271.98,496.64 271.08,498.37 269.31,499.53 C266.77,501.20 262.69,502.59 257.46,503.60 C259.03,502.42 259.14,502.06 258.00,502.05 C255.42,502.01 252.00,503.19 252.00,504.12 C252.00,504.25 252.03,504.36 252.09,504.47 C250.31,504.70 248.45,504.89 246.50,505.05 C242.11,505.40 238.42,505.69 235.31,505.93 C235.65,505.59 232.48,505.37 227.35,505.42 C221.77,505.46 217.72,505.83 218.35,506.23 C218.60,506.39 219.16,506.52 219.93,506.62 C218.92,506.53 218.39,506.34 218.00,506.07 C217.18,505.50 215.18,505.02 213.57,505.02 C207.06,504.98 196.62,497.47 193.60,490.65 C192.25,487.59 191.13,484.15 190.32,480.87 C190.41,480.96 190.51,481.00 190.61,481.00 C190.82,481.00 191.00,477.82 191.00,473.94 ZM 178.00 396.50 C177.99,396.49 177.98,396.49 177.97,396.48 C179.66,397.32 182.01,398.00 183.27,398.00 C186.86,398.00 195.01,401.03 194.96,402.34 C194.90,403.89 193.45,410.25 191.62,417.00 C189.63,424.34 185.57,439.66 183.05,449.38 C181.92,453.71 181.00,458.04 181.00,459.01 C181.00,459.98 180.33,462.06 179.51,463.64 C178.68,465.21 178.01,467.94 178.01,469.69 C178.00,471.45 177.55,473.16 177.00,473.50 C176.45,473.84 175.98,475.33 175.96,476.81 C175.95,478.29 175.29,480.62 174.50,482.00 C173.71,483.38 173.05,485.94 173.04,487.69 C173.02,489.45 172.58,491.14 172.06,491.46 C171.54,491.78 170.81,494.17 170.44,496.77 C169.38,504.12 168.10,505.00 158.43,505.00 C152.38,505.00 149.49,504.85 148.13,503.97 C148.62,503.73 149.00,502.24 149.00,500.44 C149.00,498.32 148.60,497.13 148.00,497.50 C147.46,497.84 147.01,499.41 147.00,501.01 L 147.00 500.95 C147.00,497.54 145.68,496.47 143.99,498.51 C143.31,499.33 142.28,500.00 141.69,500.00 C141.11,500.00 138.58,500.99 136.07,502.21 C133.55,503.43 129.48,504.74 127.00,505.14 C125.45,505.38 123.38,505.71 121.50,506.00 C122.92,505.39 121.77,505.12 117.50,505.09 C113.28,505.05 111.94,505.32 113.00,506.00 C113.20,506.13 113.44,506.25 113.69,506.35 C113.40,506.27 113.17,506.17 113.00,506.06 C112.18,505.49 110.25,505.02 108.73,505.02 C106.13,505.00 101.31,502.40 96.30,498.30 C95.09,497.31 92.96,494.02 91.56,491.00 C89.46,486.45 89.03,484.04 89.05,477.00 C89.07,472.33 89.49,466.70 89.99,464.50 C90.49,462.30 91.54,457.58 92.34,454.00 C93.13,450.42 94.51,444.89 95.39,441.70 C96.28,438.51 97.00,435.02 97.00,433.95 C97.00,432.88 97.35,432.00 97.78,432.00 C98.21,432.00 100.33,428.60 102.49,424.45 C103.88,421.79 105.70,418.99 107.65,416.44 C107.82,416.54 108.12,416.51 108.55,416.34 C109.35,416.04 110.00,415.38 110.00,414.89 C110.00,414.44 109.83,414.18 109.58,414.07 C110.42,413.09 111.27,412.17 112.11,411.35 C113.69,409.81 114.98,408.56 116.04,407.53 C116.25,408.42 117.25,407.85 119.78,405.50 C121.15,404.23 121.81,403.18 121.38,403.02 C121.45,403.01 121.53,403.00 121.60,403.00 C121.98,403.00 122.91,402.48 123.74,401.83 C123.07,402.71 123.14,403.00 123.95,403.00 C124.61,403.00 125.82,402.33 126.64,401.50 C127.72,400.42 127.90,400.10 127.20,400.02 C128.10,399.67 129.07,399.34 130.00,399.07 C132.48,398.37 135.62,397.30 137.00,396.70 C138.38,396.10 147.43,395.43 157.12,395.21 C163.63,395.06 167.93,395.02 170.92,395.13 L 168.50 395.16 L 171.50 396.54 C173.15,397.29 175.85,397.91 177.50,397.92 L 180.50 397.93 ZM 505.44 396.47 C506.33,395.79 506.81,395.43 506.87,395.23 C514.73,394.82 530.39,395.49 532.50,396.63 C533.60,397.23 536.08,398.52 538.00,399.50 C544.63,402.87 549.60,408.81 552.09,416.01 C552.06,416.00 552.03,416.00 552.00,416.00 C550.89,416.00 550.62,420.29 551.67,421.33 C552.40,422.07 553.14,422.17 553.51,421.82 C553.63,422.64 553.72,423.47 553.79,424.31 C554.06,428.06 553.80,432.79 553.21,434.81 C552.62,436.84 551.41,441.65 550.52,445.50 C548.43,454.50 546.05,462.67 544.34,466.65 C543.61,468.38 543.00,470.27 543.00,470.83 C543.00,470.91 542.99,470.99 542.97,471.09 C542.94,469.76 542.69,469.82 541.47,471.44 C539.56,473.97 539.58,475.60 541.50,474.00 C541.61,473.91 541.71,473.81 541.81,473.71 C539.80,477.42 535.64,483.63 532.28,487.67 C527.29,493.67 520.41,498.85 514.00,501.43 C511.52,502.42 508.60,503.61 507.50,504.06 C506.40,504.52 503.48,505.17 501.00,505.51 C499.71,505.69 498.36,505.85 496.99,505.98 C497.18,505.54 494.35,505.30 489.62,505.37 C484.88,505.44 481.00,505.84 481.00,506.25 C481.00,506.26 481.00,506.27 481.01,506.28 C479.93,506.17 479.07,506.02 478.50,505.82 C472.20,503.63 467.32,501.14 464.16,498.48 C460.14,495.10 455.02,486.41 455.01,482.95 C455.00,481.55 454.51,479.91 453.91,479.31 C452.22,477.62 453.35,466.59 456.78,451.50 C457.28,449.30 459.16,443.45 460.96,438.50 C462.76,433.55 464.46,428.26 464.73,426.75 C465.00,425.24 465.53,424.00 465.90,424.00 C465.92,424.00 465.94,424.00 465.96,423.99 C465.41,424.74 465.02,425.62 465.03,426.18 C465.07,427.64 468.00,424.24 468.00,422.74 C468.00,422.37 467.62,422.44 467.08,422.84 C467.51,422.28 468.00,421.55 468.46,420.75 C473.43,412.22 485.61,402.37 496.00,398.49 C498.38,397.60 501.23,396.45 502.49,395.87 C502.47,395.88 502.46,395.89 502.45,395.90 C501.93,396.40 500.60,397.02 499.50,397.29 C498.13,397.62 498.44,397.79 500.50,397.85 C502.15,397.90 504.37,397.28 505.44,396.47 ZM 712.00 485.00 C713.74,484.44 713.71,484.24 711.30,484.14 C716.66,483.79 722.86,483.96 723.43,484.88 C723.73,485.37 723.31,487.96 722.50,490.63 C721.69,493.31 721.02,496.48 721.01,497.68 C721.00,499.95 719.53,501.67 716.45,502.93 C717.04,502.35 716.60,502.00 715.28,502.00 C712.40,502.00 710.00,503.00 710.00,504.22 C710.00,504.35 710.07,504.46 710.20,504.54 C708.38,504.83 706.33,505.06 704.04,505.23 C700.17,505.52 696.50,505.76 693.07,505.95 C694.59,505.51 691.20,505.33 682.75,505.39 C675.19,505.45 669.00,505.84 669.00,506.25 C669.00,506.26 669.00,506.26 669.00,506.27 C667.86,506.15 667.02,506.00 666.50,505.81 C656.03,502.00 649.42,497.03 645.67,490.13 C643.14,485.49 643.00,484.49 643.00,471.44 C643.00,466.69 643.17,461.94 643.43,458.64 C643.58,458.68 643.77,458.64 644.00,458.50 C644.55,458.16 644.99,456.90 644.98,455.69 C644.97,453.91 644.79,453.78 644.00,455.00 C643.93,455.11 643.86,455.23 643.79,455.34 C643.85,455.02 643.91,454.76 643.97,454.57 C644.50,452.88 645.68,448.80 646.59,445.50 C651.16,428.90 656.13,419.22 664.53,410.51 C671.32,403.48 675.03,401.31 686.90,397.47 C694.37,395.06 696.31,394.83 706.84,395.18 C713.25,395.39 719.40,396.06 720.50,396.66 C721.60,397.27 723.84,398.38 725.47,399.13 C732.47,402.36 737.99,410.26 740.55,420.61 C740.35,420.22 740.13,420.00 739.89,420.00 C739.40,420.00 739.00,423.83 739.00,428.50 C739.00,433.17 739.21,437.00 739.46,437.00 C739.56,437.00 739.74,436.71 739.95,436.21 C739.39,438.31 739.00,440.38 739.00,441.39 C739.00,445.50 736.15,455.17 734.36,457.16 C732.80,458.88 730.51,459.00 700.32,459.00 L 667.95 459.00 L 666.98 461.57 C665.76,464.77 665.71,473.11 666.89,476.18 C667.92,478.88 672.48,484.00 673.84,484.00 C674.35,484.00 676.06,484.67 677.64,485.49 C681.63,487.58 700.82,487.61 703.56,485.53 C703.75,485.39 704.05,485.25 704.44,485.13 C704.11,486.17 708.47,486.13 712.00,485.00 ZM 644.68 397.02 C657.11,397.03 659.41,397.79 656.56,400.94 C654.99,402.67 655.16,403.26 656.15,402.82 C655.58,403.33 654.97,403.88 654.31,404.47 C647.15,410.79 633.20,424.03 622.09,435.03 C621.29,435.83 620.44,436.64 619.59,437.45 C620.31,436.59 620.62,436.02 620.33,436.03 C619.35,436.07 614.00,440.65 614.00,441.45 C614.00,441.93 614.21,442.09 614.65,441.92 C613.65,442.77 612.82,443.45 612.25,443.85 C610.46,445.11 609.00,446.86 609.00,447.73 C609.00,448.61 611.87,455.22 615.38,462.42 C618.88,469.61 623.38,478.88 625.36,483.00 C627.23,486.88 629.45,491.30 630.46,493.18 C630.07,492.99 629.68,492.99 629.41,493.26 C628.71,493.95 630.09,497.00 631.11,497.00 C631.51,497.00 631.85,496.57 631.96,495.98 C632.60,497.23 633.09,498.32 633.43,499.25 C633.30,499.09 633.16,499.00 633.00,499.00 C632.45,499.00 632.00,500.12 632.00,501.50 C632.00,502.88 632.45,504.00 633.00,504.00 C633.55,504.00 634.00,502.88 634.00,501.50 C634.00,501.41 634.00,501.31 633.99,501.22 C634.28,502.94 633.74,503.89 632.42,504.39 C631.55,504.73 625.78,505.00 619.61,505.00 C608.50,505.00 608.35,504.97 606.33,502.23 C605.20,500.71 603.93,498.35 603.50,496.98 C603.08,495.62 601.21,491.26 599.36,487.30 C597.51,483.33 596.00,479.70 596.00,479.22 C596.00,478.75 594.72,475.69 593.16,472.43 C591.59,469.17 589.48,464.59 588.46,462.25 C588.04,461.29 587.61,460.48 587.18,459.83 C587.28,459.93 587.43,459.91 587.58,459.75 C587.90,459.43 587.65,458.21 587.01,457.03 C585.81,454.78 582.96,454.61 582.25,456.75 C581.99,457.53 582.79,458.00 584.42,458.00 C584.47,458.00 584.53,458.00 584.59,458.00 C583.70,458.02 583.00,458.17 583.00,458.34 C583.00,458.80 579.65,471.39 576.44,483.00 C574.99,488.23 573.35,494.52 572.79,497.00 C572.23,499.48 571.08,502.29 570.23,503.25 C568.96,504.69 566.97,505.00 558.97,505.00 C547.66,505.00 546.18,504.17 547.88,498.80 C550.24,491.31 553.28,479.24 553.74,475.50 C553.83,474.73 553.96,473.95 554.12,473.25 C554.28,473.62 554.62,473.74 555.00,473.50 C555.55,473.16 556.00,472.21 556.00,471.38 C556.00,470.58 555.58,470.19 555.05,470.47 C555.51,469.88 556.82,465.62 557.97,460.98 C560.30,451.60 560.75,449.89 561.97,445.50 C565.08,434.40 567.00,426.37 567.00,424.46 C567.00,424.31 567.01,424.14 567.03,423.98 C567.15,424.55 567.54,424.79 568.00,424.50 C568.55,424.16 569.00,423.21 569.00,422.38 C569.00,421.59 568.58,421.19 568.06,421.47 C568.20,421.29 568.35,421.13 568.50,421.00 C569.33,420.32 570.00,418.68 570.00,417.36 C570.00,416.05 570.95,411.72 572.11,407.74 C573.27,403.76 574.57,398.48 575.00,396.00 C575.07,395.54 575.17,395.05 575.27,394.55 C575.43,394.70 575.67,394.70 576.00,394.50 C576.55,394.16 576.99,392.90 576.98,391.69 C576.97,390.01 576.81,389.80 576.13,390.81 C576.36,389.90 576.60,389.09 576.80,388.50 C578.57,383.35 579.85,378.65 580.55,374.74 C580.92,372.67 581.63,370.73 582.11,370.43 C582.60,370.13 583.01,368.67 583.02,367.19 C583.02,365.71 583.66,362.70 584.42,360.50 L 585.81 356.50 L 597.41 356.22 C598.25,356.20 599.04,356.18 599.78,356.15 C604.99,356.01 607.56,355.93 608.50,357.13 C609.41,358.31 608.76,360.69 607.49,365.39 C607.30,366.08 607.10,366.81 606.89,367.59 C605.73,371.94 604.12,377.98 603.32,381.00 C602.51,384.02 601.62,387.62 601.35,389.00 C601.07,390.38 600.43,392.40 599.92,393.50 C599.41,394.60 598.52,397.75 597.94,400.50 C596.46,407.60 595.35,412.05 594.18,415.50 C591.45,423.60 589.85,431.31 589.97,434.90 C589.91,434.56 589.85,434.20 589.81,433.82 L 589.50 430.65 L 588.12 433.26 C587.36,434.69 587.00,436.57 587.34,437.43 C587.99,439.14 592.00,439.63 592.00,438.00 C592.00,437.45 591.58,437.00 591.06,437.00 C591.03,437.00 591.00,436.99 590.97,436.98 C592.36,436.64 598.77,430.54 601.62,427.13 C601.12,428.36 601.91,428.23 603.57,426.57 C605.15,425.00 605.41,424.00 604.24,424.00 C603.97,424.00 603.49,424.38 603.01,424.95 C603.07,424.42 603.60,424.00 604.25,424.00 C604.94,424.00 610.22,419.23 616.00,413.40 C618.60,410.78 621.38,408.01 623.86,405.56 C623.72,405.72 623.61,405.87 623.51,406.00 C622.48,407.38 624.39,405.91 627.75,402.75 L 633.85 397.00 ZM 809.00 414.89 C809.00,412.74 789.71,412.23 785.77,414.28 C783.83,415.28 784.91,415.52 793.63,415.55 C784.17,415.67 782.69,416.09 780.78,417.50 C778.62,419.09 778.06,420.32 778.03,423.50 C778.03,424.15 778.04,424.71 778.10,425.22 C777.96,424.65 777.87,424.07 777.83,423.50 C777.51,419.65 777.45,419.59 776.19,421.80 C775.07,423.75 775.15,424.65 776.68,427.85 C777.67,429.94 779.25,431.67 780.24,431.74 C781.21,431.82 782.00,431.70 782.00,431.48 C782.00,431.35 781.71,430.97 781.27,430.48 C781.86,431.07 782.57,431.74 783.40,432.50 C786.37,435.25 792.75,440.42 797.59,444.00 C814.14,456.23 815.53,458.31 815.36,470.50 C815.23,480.17 813.51,484.79 807.02,492.96 C804.69,495.90 797.95,499.96 791.64,502.68 C791.72,502.52 791.72,502.39 791.63,502.30 C790.80,501.47 788.00,502.79 788.00,504.00 C788.00,504.04 788.00,504.08 788.00,504.11 C785.94,504.84 784.03,505.35 782.50,505.53 C780.94,505.71 779.28,505.88 777.57,506.01 C776.69,505.69 772.52,505.42 767.18,505.39 C761.11,505.35 757.21,505.60 757.78,505.97 C756.23,505.53 752.41,505.15 749.03,505.10 C745.48,505.04 740.59,504.24 738.17,503.32 L 733.76 501.64 L 734.35 496.72 C734.67,494.02 735.73,490.16 736.71,488.15 C737.50,486.55 738.04,485.56 739.21,485.07 C739.78,485.42 741.38,485.73 743.25,485.82 C746.37,485.98 747.10,485.77 746.00,485.03 C745.99,485.02 745.98,485.02 745.96,485.01 C747.71,485.22 749.85,485.52 752.50,485.90 C764.39,487.60 779.63,487.28 782.79,485.27 C784.41,484.24 785.86,483.05 787.07,481.80 C785.77,483.22 785.70,484.00 786.89,484.00 C787.38,484.00 788.06,483.29 788.39,482.42 C789.33,479.97 789.13,479.73 787.50,481.36 C787.47,481.39 787.44,481.42 787.40,481.45 C789.63,479.06 790.97,476.47 790.98,474.29 C791.00,470.46 788.01,467.74 766.50,452.01 C758.50,446.16 756.77,444.25 753.86,438.05 C752.12,434.36 751.84,432.24 752.20,425.55 C752.66,417.12 753.39,415.20 758.81,408.26 C762.82,403.12 768.22,399.87 777.36,397.09 C783.18,395.31 786.82,395.00 801.55,395.00 C805.27,395.00 808.77,395.06 811.66,395.16 L 814.00 396.50 C815.38,397.29 818.53,397.88 821.00,397.83 C823.63,397.77 824.46,397.54 823.00,397.28 C822.12,397.12 821.16,396.81 820.45,396.48 C821.39,396.84 822.86,397.20 824.41,397.43 C831.08,398.43 831.65,399.70 829.32,408.28 L 827.36 415.50 L 805.43 415.50 C803.83,415.50 802.35,415.50 800.97,415.50 C805.67,415.41 809.00,415.17 809.00,414.89 ZM 5.89 478.25 C5.78,471.38 5.67,470.95 4.92,474.50 C4.91,474.53 4.91,474.56 4.90,474.60 C5.27,472.57 5.86,470.15 6.70,467.00 C7.50,463.98 9.21,457.45 10.49,452.50 C11.77,447.55 14.69,436.52 16.97,428.00 C19.25,419.48 21.52,410.70 22.02,408.50 C22.51,406.30 23.61,402.02 24.46,399.00 C25.31,395.98 27.58,387.42 29.50,380.00 C31.42,372.58 33.44,365.72 33.99,364.76 C34.55,363.81 35.00,361.72 35.00,360.12 C35.00,358.39 35.64,356.97 36.58,356.61 C37.45,356.27 43.35,356.00 49.70,356.00 C61.14,356.00 61.23,356.02 60.74,358.25 C59.67,363.17 57.69,370.61 56.95,372.50 C55.90,375.19 53.94,382.80 53.35,386.50 C53.08,388.15 52.47,390.40 51.99,391.50 C51.51,392.60 50.61,395.75 50.00,398.50 C49.39,401.25 48.49,405.08 48.00,407.00 C47.51,408.92 46.44,413.11 45.63,416.30 C44.82,419.50 43.72,422.65 43.19,423.30 C42.66,423.96 41.97,426.30 41.67,428.50 C40.66,435.76 39.88,439.47 38.93,441.50 C38.41,442.60 37.52,445.75 36.94,448.50 C35.17,457.00 34.30,460.39 33.13,463.32 C31.43,467.56 31.69,479.12 33.56,481.78 C35.03,483.88 35.81,484.00 48.31,484.01 C68.52,484.01 80.79,485.02 81.45,486.73 C81.75,487.52 81.23,491.08 80.28,494.64 C78.88,499.90 77.96,501.48 75.41,503.06 C72.52,504.84 70.34,505.00 48.38,504.95 C25.17,504.90 24.36,504.83 19.50,502.46 C12.45,499.03 7.64,493.36 5.59,486.04 L 5.58 486.00 L 5.59 486.00 C5.81,486.00 5.95,482.51 5.89,478.25 ZM 386.64 500.81 C386.74,497.01 386.62,496.80 385.38,498.50 C385.27,498.65 385.16,498.80 385.07,498.94 C385.11,498.85 385.15,498.76 385.20,498.67 C386.06,496.93 387.52,492.58 388.45,489.00 C389.37,485.42 390.52,481.15 391.00,479.50 C391.49,477.85 392.18,474.81 392.55,472.74 C392.92,470.67 393.63,468.73 394.11,468.43 C394.60,468.13 395.00,466.76 395.00,465.38 C395.00,464.00 395.70,460.54 396.56,457.69 C397.42,454.83 398.52,450.92 399.01,449.00 C399.50,447.08 400.56,443.02 401.36,440.00 C402.17,436.98 403.59,431.58 404.52,428.00 C405.46,424.42 406.58,420.60 407.01,419.50 C407.45,418.40 408.60,413.90 409.57,409.50 C411.04,402.81 412.03,399.21 414.02,397.27 C414.25,397.65 416.12,397.60 420.82,397.27 C431.15,396.57 434.00,397.27 434.00,400.52 C434.00,401.98 434.58,403.00 435.41,403.00 C436.08,403.00 436.41,402.64 436.42,401.90 C437.25,402.92 439.31,402.10 443.00,399.40 C445.44,397.62 456.27,395.00 461.19,395.00 C466.15,395.00 469.03,397.02 467.25,399.25 C466.70,399.94 465.94,402.64 465.57,405.25 C465.16,408.08 463.86,411.20 462.35,413.00 C459.98,415.81 459.38,416.00 452.81,416.00 C448.96,416.00 444.38,416.62 442.65,417.37 C440.92,418.12 437.63,419.31 435.35,420.00 C430.41,421.49 428.63,425.02 426.30,438.00 C426.05,439.38 425.47,441.40 425.01,442.50 C423.75,445.51 421.85,453.03 421.29,457.26 C421.01,459.32 420.39,461.26 419.89,461.57 C419.40,461.87 419.00,462.94 419.00,463.94 C419.00,465.72 417.35,471.87 414.43,481.00 C413.64,483.48 412.99,486.71 413.00,488.19 C413.00,489.67 412.59,491.14 412.09,491.45 C411.58,491.76 410.85,493.91 410.46,496.23 C410.07,498.56 409.08,501.48 408.26,502.73 C406.87,504.85 406.08,505.00 396.51,505.00 C391.65,505.00 388.45,504.84 386.52,504.31 C386.56,503.56 386.61,502.27 386.64,500.81 ZM 258.97 455.55 C258.99,453.99 258.45,453.96 257.83,454.90 C258.46,453.37 259.12,451.20 259.43,449.53 C259.82,447.45 260.50,445.02 260.95,444.13 C262.67,440.65 264.00,435.19 264.03,431.43 C264.04,430.87 264.08,430.29 264.17,429.70 C264.57,430.24 265.78,428.48 266.49,426.00 C267.19,423.57 267.16,423.56 265.64,425.50 C265.48,425.70 265.32,425.92 265.17,426.15 C265.29,425.92 265.41,425.72 265.53,425.56 C266.34,424.49 267.00,421.95 267.00,419.92 C267.00,416.42 266.79,416.18 263.25,415.58 C244.54,412.38 233.20,415.47 227.03,425.45 C223.99,430.37 220.00,440.89 220.00,443.99 C220.00,445.43 219.55,447.05 219.01,447.59 C217.24,449.36 215.72,458.26 215.29,469.37 C214.83,481.26 214.89,481.42 221.55,485.16 C223.75,486.40 227.03,486.82 234.50,486.81 C248.74,486.80 249.04,486.66 251.55,478.96 C254.27,470.63 256.00,463.56 256.01,460.74 C256.01,459.81 256.36,458.34 256.85,457.07 C256.70,457.51 256.57,457.99 256.45,458.50 C255.79,461.38 255.83,461.42 257.35,459.50 C258.22,458.40 258.95,456.62 258.97,455.55 ZM 367.88 431.69 C367.78,427.23 367.66,426.92 367.00,429.50 C366.81,430.23 366.66,430.96 366.53,431.65 C366.54,431.57 366.55,431.48 366.55,431.40 L 367.23 422.29 L 364.20 418.90 L 361.16 415.50 L 346.95 415.68 C338.40,415.79 332.31,416.29 331.67,416.93 C330.45,418.15 328.26,425.53 327.34,431.50 C327.01,433.70 326.34,436.00 325.86,436.61 C325.38,437.22 324.52,439.92 323.95,442.61 C323.37,445.30 322.50,449.08 322.01,451.00 C320.31,457.63 318.22,465.52 316.11,473.23 C313.43,483.05 313.45,484.84 316.25,485.97 C317.49,486.47 322.65,486.90 327.72,486.94 C335.69,486.99 337.70,486.64 342.50,484.37 C347.90,481.81 354.31,475.72 356.69,470.88 C360.72,462.69 364.67,447.72 366.14,435.56 C366.15,437.02 366.44,437.85 367.00,437.50 C367.55,437.16 367.95,434.55 367.88,431.69 ZM 167.57 420.45 C167.94,418.50 167.96,416.63 167.62,416.29 C167.28,415.95 167.00,416.62 167.00,417.77 C166.97,416.11 165.97,416.00 152.90,416.00 C136.17,416.00 133.67,416.85 128.04,424.40 C122.81,431.43 121.10,435.74 116.90,452.50 C116.35,454.70 115.25,458.59 114.45,461.13 C113.65,463.68 113.00,468.99 113.00,472.94 C113.00,479.94 113.09,480.18 116.75,483.55 C119.95,486.48 121.22,486.99 125.37,487.00 C129.39,487.00 136.13,485.09 141.73,482.77 C140.67,483.55 140.88,484.00 142.39,484.00 C143.16,484.00 144.05,483.31 144.37,482.48 C144.56,481.98 144.64,481.66 144.55,481.52 C147.88,479.94 150.44,478.29 151.10,477.00 C152.32,474.66 156.06,462.14 157.52,455.50 C159.69,445.67 160.99,440.62 161.88,438.50 C163.26,435.25 165.00,427.20 165.00,424.04 C165.00,423.69 165.02,423.35 165.06,423.01 C165.16,423.57 165.45,424.00 165.95,424.00 C166.48,424.00 167.21,422.40 167.57,420.45 ZM 487.50 484.78 C491.59,486.23 496.71,486.21 501.51,484.73 C505.87,483.39 513.00,479.28 513.00,478.11 C513.00,477.71 513.86,476.46 514.91,475.33 C517.70,472.34 520.79,465.87 522.58,459.28 C523.45,456.10 524.86,451.02 525.72,448.00 C526.58,444.98 527.48,438.67 527.72,434.00 C528.23,424.36 526.91,420.56 522.04,417.68 C517.77,415.16 506.23,415.39 501.02,418.10 C497.02,420.19 489.00,428.33 489.00,430.31 C489.00,430.88 488.39,432.05 487.65,432.92 C485.91,434.96 480.99,450.68 481.00,454.19 C481.00,455.67 480.58,457.14 480.07,457.46 C478.70,458.30 477.67,468.31 478.43,473.36 C479.18,478.39 482.98,483.17 487.50,484.78 ZM 673.60 441.16 C674.45,442.54 713.39,442.21 714.80,440.80 C715.54,440.06 716.00,436.46 716.00,431.49 C716.00,423.75 715.86,423.23 712.87,420.18 C708.98,416.20 706.76,415.62 697.57,416.21 C691.64,416.59 689.46,417.23 685.89,419.62 C678.80,424.36 671.32,437.47 673.60,441.16 ZM 162.50 414.79 C156.19,413.24 145.91,412.72 143.61,413.84 C142.45,414.40 140.82,415.08 140.00,415.35 C139.18,415.62 144.80,415.83 152.50,415.81 C163.77,415.78 165.72,415.58 162.50,414.79 ZM 357.68 414.29 C355.42,413.03 342.37,412.54 339.58,413.61 C335.82,415.05 338.72,415.66 348.93,415.58 C358.07,415.51 359.51,415.30 357.68,414.29 ZM 717.98 430.81 C717.99,429.33 717.55,427.84 717.00,427.50 C716.39,427.12 716.01,428.74 716.02,431.69 C716.03,435.16 716.30,436.08 717.00,435.00 C717.53,434.17 717.98,432.29 717.98,430.81 ZM 305.85 370.55 C306.07,369.41 305.71,368.93 304.85,369.22 C304.11,369.46 303.34,370.47 303.15,371.45 C302.93,372.59 303.29,373.07 304.15,372.78 C304.89,372.54 305.66,371.53 305.85,370.55 ZM 269.00 417.44 C269.00,416.65 268.55,416.00 268.00,416.00 C267.45,416.00 267.00,416.93 267.00,418.06 C267.00,419.19 267.45,419.84 268.00,419.50 C268.55,419.16 269.00,418.23 269.00,417.44 ZM 100.00 430.74 C100.00,430.25 99.32,430.53 98.50,431.36 C97.68,432.18 97.01,433.45 97.03,434.18 C97.07,435.64 100.00,432.24 100.00,430.74 ZM 741.28 431.71 C741.59,429.78 741.64,427.36 741.48,425.22 C741.88,427.84 741.84,429.50 741.28,431.71 ZM 585.20 458.06 C586.24,458.21 587.00,458.65 587.00,459.17 C587.00,459.39 587.03,459.57 587.09,459.69 C586.45,458.78 585.82,458.23 585.20,458.06 ZM 434.24 396.72 C432.64,395.34 429.90,395.01 424.60,395.03 C431.03,395.01 432.90,395.32 434.24,396.72 ZM 120.00 403.86 C120.00,403.88 120.00,403.91 120.00,403.93 C120.00,404.40 119.24,405.04 118.27,405.41 C119.01,404.71 119.57,404.21 120.00,403.86 ZM 4.78 475.29 C4.52,477.04 4.47,479.39 4.58,481.44 C4.34,479.52 4.39,477.67 4.78,475.29 ZM 660.39 398.22 C660.57,397.63 660.59,397.09 660.42,396.66 C660.35,396.46 660.25,396.29 660.10,396.13 C660.82,396.61 660.90,397.28 660.39,398.22 ZM 385.15 503.75 C384.51,503.34 384.19,502.82 384.15,502.14 C384.29,502.69 384.62,503.21 385.15,503.75 ZM 632.74 397.05 L 634.96 395.00 L 635.07 395.00 ZM 424.60 395.03 C421.92,395.04 419.72,395.17 418.04,395.42 C419.73,395.11 421.86,395.04 424.60,395.03 ZM 780.42 429.62 C780.31,429.51 780.19,429.40 780.08,429.28 C779.78,429.01 779.49,428.63 779.23,428.19 C779.54,428.63 779.94,429.09 780.42,429.62 ZM 177.31 396.16 C176.99,396.03 176.62,395.90 176.24,395.78 C176.63,395.89 176.98,396.02 177.31,396.16 ZM 147.01 501.55 C147.03,501.78 147.05,501.99 147.08,502.19 C147.05,501.99 147.03,501.78 147.01,501.55 Z" fill="rgb(251,11,36)"/>
<path d="M 706.40 484.31 C705.39,484.47 704.67,484.72 704.50,485.00 C704.47,485.04 704.45,485.09 704.44,485.13 C704.05,485.25 703.75,485.39 703.56,485.53 C700.82,487.61 681.63,487.58 677.64,485.49 C676.88,485.10 676.10,484.74 675.43,484.48 L 698.17 484.32 C701.04,484.30 703.81,484.30 706.40,484.31 ZM 10.47 452.50 C11.76,447.55 14.69,436.52 16.97,428.00 C14.69,436.52 11.77,447.55 10.49,452.50 C9.21,457.45 7.50,463.98 6.70,467.00 C5.86,470.15 5.27,472.57 4.90,474.60 C4.86,474.82 4.82,475.05 4.78,475.29 C4.39,477.67 4.34,479.52 4.58,481.44 C4.72,483.93 5.08,485.98 5.58,486.00 L 5.59 486.04 C6.66,489.85 8.47,493.21 10.96,496.04 C8.66,493.76 7.00,491.54 7.00,490.37 C7.00,489.62 6.64,489.00 6.20,489.00 C4.99,489.00 3.00,482.80 3.00,479.05 C3.00,475.57 4.95,467.86 6.04,467.00 C6.77,466.43 7.24,464.90 10.47,452.50 ZM 87.95 471.74 C89.58,465.94 90.64,461.65 92.34,454.00 C91.54,457.58 90.49,462.30 89.99,464.50 C89.49,466.70 89.07,472.33 89.05,477.00 C89.03,482.44 89.28,485.12 90.37,488.15 C87.39,480.84 86.72,476.12 87.95,471.74 ZM 322.03 506.84 C313.52,506.86 305.80,505.78 297.99,503.53 C301.55,504.12 305.64,504.63 309.81,504.96 C315.48,505.42 320.40,506.06 320.73,506.40 C320.93,506.60 321.37,506.74 322.03,506.84 ZM 786.84 482.04 C788.12,480.45 788.43,478.58 788.61,474.96 L 788.87 469.65 C790.57,471.55 790.99,472.84 790.98,474.29 C790.97,476.47 789.63,479.06 787.40,481.45 C787.29,481.57 787.17,481.69 787.07,481.80 ZM 121.50 506.00 C123.38,505.71 125.45,505.38 127.00,505.14 C129.48,504.74 133.55,503.43 136.07,502.21 C136.58,501.96 137.09,501.72 137.59,501.50 C136.21,502.23 133.43,503.40 130.48,504.47 C121.08,507.88 112.33,507.89 105.72,504.49 C102.90,503.05 100.61,501.65 98.71,500.17 C102.81,503.17 106.55,505.00 108.73,505.02 C110.25,505.02 112.18,505.49 113.00,506.06 C113.17,506.17 113.40,506.27 113.69,506.35 C115.69,507.16 119.08,507.04 121.50,506.00 ZM 152.87 472.20 C153.67,469.31 154.31,465.92 154.49,463.24 C154.64,460.90 155.32,458.33 155.98,457.52 C156.98,456.32 157.59,454.65 159.24,447.95 C158.73,450.08 158.17,452.58 157.52,455.50 C156.52,460.03 154.47,467.29 152.87,472.20 ZM 768.75 506.87 C761.07,506.94 753.04,506.65 751.00,506.00 C749.62,505.56 747.17,505.15 745.53,505.10 C743.90,505.04 740.59,504.24 738.17,503.32 C740.59,504.24 745.48,505.04 749.03,505.10 C752.41,505.15 756.23,505.53 757.78,505.97 C757.82,505.99 757.90,506.03 758.00,506.06 C759.69,506.56 764.37,506.84 768.75,506.87 ZM 261.81 442.14 C261.85,441.50 261.81,440.81 261.68,440.16 C261.36,438.55 261.74,436.13 262.56,434.55 C263.35,433.02 264.01,430.81 264.03,429.64 C264.03,429.54 264.04,429.44 264.05,429.34 C264.07,429.51 264.11,429.63 264.17,429.70 C264.08,430.29 264.04,430.87 264.03,431.43 C264.01,434.53 263.10,438.79 261.81,442.14 ZM 281.50 366.62 C279.59,374.77 276.42,386.23 275.40,388.15 C275.10,388.73 274.81,389.42 274.58,390.11 C274.43,390.52 274.31,390.93 274.23,391.33 C274.08,391.93 274.00,392.48 274.00,392.90 L 274.00 391.86 C274.00,390.13 274.86,386.87 275.92,384.61 C277.28,381.69 279.85,373.12 281.50,366.62 ZM 189.03 469.40 C189.16,466.82 189.59,464.40 190.36,462.27 C191.40,459.37 192.17,457.10 192.73,455.25 C191.65,461.31 190.31,467.02 189.75,467.58 C189.40,467.93 189.17,468.56 189.03,469.40 ZM 41.14 432.13 C41.31,431.03 41.49,429.82 41.67,428.50 C41.97,426.30 42.66,423.96 43.19,423.30 C43.72,422.65 44.82,419.50 45.63,416.30 C46.24,413.93 46.98,411.01 47.52,408.88 C46.95,411.20 46.14,414.60 45.47,417.50 C44.58,421.35 43.50,425.40 43.07,426.50 C42.30,428.45 41.64,430.37 41.14,432.13 ZM 235.00 506.07 C235.16,506.02 235.26,505.97 235.31,505.93 C238.42,505.69 242.11,505.40 246.50,505.05 C248.45,504.89 250.31,504.70 252.09,504.47 C252.16,504.59 252.26,504.69 252.40,504.76 C251.61,504.90 250.81,505.03 250.00,505.16 C245.77,505.79 239.50,506.22 233.26,506.41 C233.96,506.31 234.56,506.20 235.00,506.07 ZM 741.01 432.95 C741.12,432.57 741.20,432.15 741.28,431.71 C741.31,431.60 741.33,431.48 741.36,431.37 C741.29,432.26 741.19,433.15 741.06,434.04 C740.21,439.58 738.71,445.83 737.23,450.49 C738.22,447.20 739.00,443.54 739.00,441.39 C739.00,440.38 739.39,438.31 739.95,436.21 C740.26,435.47 740.66,434.28 741.01,432.95 ZM 692.50 506.09 C692.73,506.04 692.92,506.00 693.07,505.95 C696.50,505.76 700.17,505.52 704.04,505.23 C706.33,505.06 708.38,504.83 710.20,504.54 C710.36,504.64 710.61,504.69 710.93,504.71 C710.04,504.91 709.11,505.07 708.15,505.21 C704.12,505.77 697.36,506.18 690.44,506.38 C691.25,506.30 691.95,506.20 692.50,506.09 ZM 291.72 421.16 C292.10,419.30 292.41,417.54 292.64,416.00 C292.92,414.08 293.80,411.08 294.58,409.35 C294.97,408.49 295.32,407.42 295.58,406.40 C295.57,406.43 295.57,406.47 295.56,406.50 C295.18,409.25 294.03,413.98 293.00,417.00 C292.57,418.25 292.12,419.72 291.72,421.16 ZM 777.68 506.22 C777.79,506.15 777.75,506.08 777.57,506.01 C779.28,505.88 780.94,505.71 782.50,505.53 C784.03,505.35 785.94,504.84 788.00,504.11 C788.01,504.21 788.04,504.29 788.08,504.35 C786.61,504.96 785.21,505.48 783.93,505.88 C782.53,506.32 778.61,506.62 773.91,506.76 C775.84,506.66 777.27,506.48 777.68,506.22 ZM 218.60 506.36 C215.61,506.21 213.39,505.96 212.50,505.59 C210.93,504.94 209.58,504.36 208.39,503.82 C210.23,504.57 212.01,505.01 213.57,505.02 C215.18,505.02 217.18,505.50 218.00,506.07 C218.17,506.18 218.36,506.28 218.60,506.36 ZM 496.86 506.11 C496.93,506.06 496.98,506.02 496.99,505.98 C498.36,505.85 499.71,505.69 501.00,505.51 C502.60,505.29 504.38,504.94 505.75,504.60 C504.53,505.02 503.26,505.44 501.93,505.86 C500.04,506.46 496.08,506.79 491.89,506.85 C494.29,506.72 496.30,506.46 496.86,506.11 ZM 35.39 455.64 C35.83,453.74 36.34,451.42 36.94,448.50 C37.14,447.58 37.37,446.61 37.60,445.69 C37.57,445.88 37.54,446.07 37.51,446.26 C37.00,449.48 36.47,451.92 35.39,455.64 ZM 300.06 356.03 C293.47,355.97 285.19,356.24 284.39,356.77 C283.89,357.09 283.32,358.27 282.97,359.59 C282.99,359.41 283.00,359.25 283.00,359.12 C283.00,358.07 283.71,356.94 284.58,356.61 C285.80,356.14 293.71,355.95 300.06,356.03 ZM 740.55 420.61 C738.23,411.23 733.48,403.86 727.40,400.16 C733.80,404.05 738.64,411.89 740.56,420.62 ZM 205.96 502.68 C202.67,501.04 200.87,499.67 198.65,497.45 C198.30,497.10 197.96,496.73 197.63,496.35 C200.00,498.84 202.99,501.09 205.96,502.68 ZM 32.02 473.59 C31.90,469.89 32.21,465.92 33.01,463.64 C32.31,466.72 31.98,470.34 32.02,473.59 ZM 38.81 441.77 C38.85,441.67 38.89,441.58 38.93,441.50 C39.30,440.70 39.65,439.63 40.00,438.18 C40.00,438.21 40.00,438.24 40.00,438.26 C40.00,439.70 39.59,441.14 39.09,441.45 C39.00,441.50 38.91,441.61 38.81,441.77 ZM 290.78 502.01 C290.68,502.00 290.59,502.00 290.51,502.00 C289.28,502.00 287.74,501.35 287.04,500.55 C287.08,500.58 287.12,500.60 287.16,500.63 C287.86,501.08 289.11,501.55 290.78,502.01 ZM 295.99 403.95 C296.00,403.85 296.00,403.75 296.00,403.66 C296.00,402.26 296.39,400.88 296.87,400.58 C296.98,400.51 297.11,400.31 297.25,400.00 C297.16,400.23 297.08,400.40 297.00,400.50 C296.72,400.87 296.33,402.24 295.99,403.95 ZM 121.10 486.52 C122.25,486.89 123.56,486.97 125.50,486.96 C128.69,486.94 134.12,485.57 139.14,483.79 C134.16,485.62 128.78,487.00 125.37,487.00 C123.51,486.99 122.23,486.89 121.10,486.52 ZM 192.31 487.43 C191.42,485.28 190.70,483.00 190.15,480.68 C190.21,480.76 190.26,480.82 190.32,480.87 C190.85,483.04 191.52,485.28 192.31,487.43 ZM 521.74 497.22 C525.60,494.59 529.28,491.28 532.28,487.67 C529.06,491.54 525.77,494.59 521.74,497.22 ZM 257.19 503.79 C257.28,503.73 257.37,503.67 257.46,503.60 C258.78,503.35 260.03,503.07 261.20,502.76 C259.94,503.12 258.59,503.47 257.19,503.79 ZM 784.31 465.46 L 784.11 465.30 C780.86,462.73 778.59,460.96 775.59,458.71 C779.30,461.48 782.15,463.67 784.31,465.46 ZM 290.46 478.50 C287.93,487.92 286.62,493.33 286.27,496.48 C286.57,493.45 287.84,488.24 290.46,478.50 ZM 793.93 501.64 C793.15,502.04 792.35,502.43 791.56,502.80 C791.59,502.76 791.62,502.72 791.64,502.68 C792.40,502.35 793.17,502.01 793.93,501.64 ZM 723.46 484.94 C723.46,484.95 723.47,484.95 723.47,484.96 C723.75,485.40 723.31,487.95 722.50,490.62 C723.28,488.04 723.70,485.54 723.46,484.94 ZM 298.71 393.19 C299.10,391.26 299.62,389.73 300.03,389.48 C300.56,389.15 301.01,387.90 301.01,386.69 C301.01,387.90 300.58,389.14 300.06,389.46 C299.65,389.72 299.10,391.26 298.71,393.19 ZM 194.03 447.44 C194.06,447.13 194.09,446.83 194.14,446.54 C194.17,446.58 194.20,446.62 194.23,446.66 C194.16,446.91 194.10,447.17 194.03,447.44 ZM 195.00 444.50 C195.25,444.35 195.48,443.93 195.65,443.36 C195.53,443.80 195.38,444.16 195.22,444.40 C195.15,444.42 195.08,444.45 195.00,444.50 ZM 259.43 449.53 C259.12,451.20 258.46,453.37 257.83,454.90 L 257.82 454.91 C258.46,453.36 259.13,451.13 259.45,449.41 C259.51,449.10 259.57,448.79 259.64,448.49 C259.56,448.84 259.49,449.19 259.43,449.53 ZM 159.99 444.84 L 160.07 444.50 C160.34,443.41 160.67,442.20 160.99,441.13 C160.70,442.13 160.37,443.36 159.99,444.84 ZM 668.72 479.24 C667.90,478.14 667.22,477.04 666.89,476.18 C667.18,476.94 667.88,478.08 668.72,479.24 ZM 782.79 485.27 C781.70,485.96 779.17,486.46 775.85,486.73 C779.17,486.45 781.70,485.96 782.79,485.26 C783.01,485.12 783.22,484.98 783.43,484.85 C783.22,484.99 783.00,485.13 782.79,485.27 ZM 662.25 504.11 C659.24,502.78 656.60,501.31 654.31,499.67 C656.59,501.30 659.23,502.77 662.25,504.11 ZM 481.02 506.32 C480.71,506.27 480.40,506.23 480.12,506.17 C480.39,506.21 480.69,506.25 481.01,506.28 C481.01,506.30 481.02,506.31 481.02,506.32 ZM 264.89 426.61 C265.09,426.22 265.30,425.86 265.53,425.56 C265.41,425.72 265.29,425.92 265.17,426.15 C265.08,426.30 264.98,426.45 264.89,426.61 ZM 510.20 502.96 C510.85,502.70 511.56,502.41 512.27,502.13 C511.60,502.41 510.91,502.69 510.20,502.96 ZM 345.73 504.19 C346.10,504.06 346.35,503.95 346.45,503.86 C346.91,503.45 347.75,503.10 348.44,503.02 C347.75,503.10 346.91,503.45 346.45,503.87 C346.35,503.96 346.10,504.07 345.73,504.19 Z" fill="rgb(252,155,164)"/>
<path d="M 0.00 429.50 L 0.00 0.00 L 420.00 0.00 L 840.00 0.00 L 840.00 429.50 L 840.00 859.00 L 420.00 859.00 L 0.00 859.00 L 0.00 429.50 ZM 130.48 504.47 C134.32,503.08 137.90,501.50 138.43,500.97 C138.96,500.44 140.15,500.00 141.08,500.00 C142.00,500.00 143.31,499.33 143.99,498.51 C145.68,496.47 147.00,497.54 147.00,500.95 C147.00,504.56 148.24,505.00 158.43,505.00 C168.10,505.00 169.38,504.12 170.44,496.77 C170.81,494.17 171.54,491.78 172.06,491.46 C172.58,491.14 173.02,489.45 173.04,487.69 C173.05,485.94 173.71,483.38 174.50,482.00 C175.29,480.62 175.95,478.29 175.96,476.81 C175.98,475.33 176.45,473.84 177.00,473.50 C177.55,473.16 178.00,471.45 178.01,469.69 C178.01,467.94 178.68,465.21 179.51,463.64 C180.33,462.06 181.00,459.98 181.00,459.01 C181.00,458.04 181.92,453.71 183.05,449.38 C185.57,439.66 189.63,424.34 191.62,417.00 C193.45,410.25 194.90,403.89 194.96,402.34 C195.01,401.03 186.86,398.00 183.27,398.00 C181.97,398.00 179.51,397.28 177.82,396.41 C175.24,395.07 171.84,394.88 157.12,395.21 C147.43,395.43 138.38,396.10 137.00,396.70 C135.62,397.30 132.48,398.37 130.00,399.07 C127.53,399.78 124.79,400.95 123.92,401.68 C123.05,402.40 122.01,403.00 121.60,403.00 C120.75,403.00 119.89,403.76 112.11,411.35 C108.62,414.76 104.91,419.82 102.49,424.45 C100.33,428.60 98.21,432.00 97.78,432.00 C97.35,432.00 97.00,432.88 97.00,433.95 C97.00,435.02 96.28,438.51 95.39,441.70 C94.51,444.89 93.13,450.42 92.34,454.00 C90.64,461.65 89.58,465.94 87.95,471.74 C86.57,476.67 87.58,482.03 91.61,491.03 C94.25,496.95 98.01,500.53 105.72,504.49 C112.33,507.89 121.08,507.88 130.48,504.47 ZM 250.00 505.16 C258.25,503.91 266.13,501.62 269.31,499.53 C271.08,498.37 271.98,496.64 272.45,493.48 C272.82,491.04 273.54,488.78 274.06,488.46 C274.58,488.14 275.00,486.70 275.00,485.26 C275.00,483.82 275.44,481.26 275.97,479.57 C276.50,477.88 277.60,474.02 278.40,471.00 C279.21,467.98 280.84,461.90 282.02,457.50 C283.21,453.10 284.51,447.92 284.92,446.00 C285.33,444.08 286.60,439.80 287.74,436.50 C288.88,433.20 290.11,428.70 290.47,426.50 C290.82,424.30 291.96,420.02 293.00,417.00 C294.03,413.98 295.18,409.25 295.56,406.50 C295.94,403.75 296.59,401.05 297.00,400.50 C297.41,399.95 298.06,397.37 298.43,394.77 C298.81,392.17 299.54,389.78 300.06,389.46 C300.58,389.14 301.01,387.90 301.01,386.69 C301.03,384.18 304.25,373.42 305.30,372.37 C305.68,371.98 306.00,370.22 306.00,368.46 C306.00,366.69 306.64,363.44 307.42,361.22 C308.21,359.00 308.58,356.92 308.26,356.59 C307.48,355.81 286.62,355.83 284.58,356.61 C283.71,356.94 283.00,358.07 283.00,359.12 C283.00,362.17 278.01,380.11 275.92,384.61 C274.86,386.87 274.00,390.13 274.00,391.86 L 274.00 395.00 L 256.19 395.00 C242.08,395.00 237.98,395.30 236.44,396.47 C235.37,397.28 233.70,397.95 232.73,397.97 C231.75,397.99 228.01,399.44 224.42,401.19 C215.62,405.48 207.12,414.58 202.35,424.83 C200.38,429.05 198.15,433.69 197.39,435.15 C196.62,436.61 196.00,439.18 196.00,440.85 C196.00,442.52 195.55,444.16 195.00,444.50 C194.45,444.84 194.00,446.52 194.00,448.24 C194.00,451.26 193.18,454.43 190.36,462.27 C186.70,472.44 190.72,489.52 198.65,497.45 C202.02,500.82 204.42,502.23 212.50,505.59 C215.95,507.02 239.40,506.75 250.00,505.16 ZM 336.50 505.85 C341.45,505.24 345.93,504.34 346.45,503.87 C346.97,503.39 347.99,503.00 348.72,503.00 C349.45,503.00 352.98,501.57 356.57,499.81 C368.29,494.10 378.85,480.49 383.60,465.00 C384.52,461.98 385.67,458.72 386.14,457.76 C386.61,456.81 387.00,454.93 387.00,453.58 C387.00,452.23 387.51,449.86 388.14,448.32 C391.40,440.24 392.90,422.83 390.88,416.52 C387.92,407.27 381.97,400.80 373.00,397.06 C370.60,396.06 364.57,395.50 353.75,395.26 L 338.00 394.90 L 338.00 391.44 C338.00,389.53 338.41,387.19 338.91,386.24 C339.41,385.28 340.80,380.45 341.99,375.50 C343.18,370.55 344.56,364.92 345.06,363.00 C346.93,355.66 347.32,355.90 334.29,356.22 L 322.58 356.50 L 321.84 359.50 C321.44,361.15 320.42,364.98 319.59,368.00 C318.75,371.02 316.96,377.77 315.59,383.00 C309.94,404.67 308.85,408.71 307.45,413.00 C306.65,415.48 305.99,418.52 306.00,419.76 C306.00,421.01 305.59,422.81 305.09,423.76 C304.59,424.72 303.25,429.33 302.10,434.00 C300.96,438.67 298.84,446.77 297.40,452.00 C295.96,457.23 294.17,463.98 293.42,467.00 C292.68,470.02 291.35,475.20 290.46,478.50 C285.96,495.26 285.43,498.61 287.01,500.51 C287.69,501.33 289.26,502.00 290.51,502.00 C291.75,502.00 294.96,502.64 297.64,503.42 C309.75,506.97 321.61,507.71 336.50,505.85 ZM 501.93 505.86 C517.46,500.91 525.06,496.36 532.28,487.67 C536.89,482.13 543.00,472.53 543.00,470.83 C543.00,470.27 543.61,468.38 544.34,466.65 C546.05,462.67 548.43,454.50 550.52,445.50 C551.41,441.65 552.62,436.84 553.21,434.81 C553.80,432.79 554.06,428.06 553.79,424.31 C553.00,413.46 547.05,404.10 538.00,399.50 C536.08,398.52 533.60,397.23 532.50,396.63 C529.83,395.18 505.36,394.50 502.63,395.80 C501.46,396.36 498.48,397.57 496.00,398.49 C485.61,402.37 473.43,412.22 468.46,420.75 C467.42,422.54 466.27,424.00 465.90,424.00 C465.53,424.00 465.00,425.24 464.73,426.75 C464.46,428.26 462.76,433.55 460.96,438.50 C459.16,443.45 457.28,449.30 456.78,451.50 C453.35,466.59 452.22,477.62 453.91,479.31 C454.51,479.91 455.00,481.55 455.01,482.95 C455.02,486.41 460.14,495.10 464.16,498.48 C467.35,501.17 472.43,503.75 478.50,505.78 C482.68,507.18 497.63,507.23 501.93,505.86 ZM 708.15 505.21 C715.72,504.15 720.99,501.06 721.01,497.68 C721.02,496.48 721.69,493.31 722.50,490.63 C723.31,487.96 723.75,485.40 723.47,484.96 C723.20,484.51 711.81,484.23 698.17,484.32 L 673.36 484.49 L 670.57 481.49 C669.03,479.85 667.38,477.46 666.89,476.18 C665.71,473.11 665.76,464.77 666.98,461.57 L 667.95 459.00 L 700.32 459.00 C730.44,459.00 732.81,458.87 734.35,457.17 C736.25,455.06 739.60,443.51 741.06,434.04 C743.24,419.87 736.17,404.06 725.47,399.13 C723.84,398.38 721.60,397.27 720.50,396.66 C719.40,396.06 713.25,395.39 706.84,395.18 C696.31,394.83 694.37,395.06 686.90,397.47 C675.03,401.31 671.32,403.48 664.53,410.51 C656.13,419.22 651.16,428.90 646.59,445.50 C645.68,448.80 644.50,452.88 643.97,454.57 C643.44,456.26 643.00,463.85 643.00,471.44 C643.00,484.49 643.14,485.49 645.67,490.13 C649.42,497.03 656.13,502.08 666.50,505.80 C669.97,507.04 697.88,506.65 708.15,505.21 ZM 783.93 505.88 C791.78,503.42 804.26,496.44 807.02,492.96 C813.51,484.79 815.23,480.17 815.36,470.50 C815.53,458.31 814.14,456.23 797.59,444.00 C792.75,440.42 786.37,435.25 783.40,432.50 C778.58,428.04 778.00,427.08 778.03,423.50 C778.06,420.32 778.62,419.09 780.78,417.50 C783.30,415.64 785.07,415.50 805.43,415.50 L 827.36 415.50 L 829.32 408.28 C831.65,399.70 831.08,398.43 824.41,397.43 C821.97,397.07 819.73,396.37 819.43,395.88 C819.13,395.40 811.08,395.00 801.55,395.00 C786.82,395.00 783.18,395.31 777.36,397.09 C768.22,399.87 762.82,403.12 758.81,408.26 C753.39,415.20 752.66,417.12 752.20,425.55 C751.84,432.24 752.12,434.36 753.86,438.05 C756.77,444.25 758.50,446.16 766.50,452.01 C775.67,458.72 778.36,460.74 784.11,465.30 L 788.90 469.09 L 788.61 474.96 C788.31,480.98 787.65,482.15 782.79,485.26 C779.63,487.28 764.42,487.60 752.50,485.90 C739.15,483.99 738.72,484.05 736.71,488.15 C735.73,490.16 734.67,494.02 734.35,496.72 L 733.76 501.64 L 738.17 503.32 C740.59,504.24 743.90,505.04 745.53,505.10 C747.17,505.15 749.62,505.56 751.00,506.00 C754.85,507.23 779.90,507.14 783.93,505.88 ZM 75.41 503.06 C77.96,501.48 78.88,499.90 80.28,494.64 C81.23,491.08 81.75,487.52 81.45,486.73 C80.79,485.02 68.52,484.01 48.31,484.01 C35.81,484.00 35.03,483.88 33.56,481.78 C31.49,478.83 31.50,468.03 33.58,461.50 C36.00,453.92 36.78,450.90 37.51,446.26 C37.87,443.92 38.58,441.76 39.09,441.45 C39.59,441.14 40.00,439.70 40.00,438.26 C40.00,435.83 41.19,431.25 43.07,426.50 C43.50,425.40 44.58,421.35 45.47,417.50 C46.36,413.65 47.50,408.92 47.99,407.00 C48.48,405.08 49.39,401.25 50.00,398.50 C50.61,395.75 51.51,392.60 51.99,391.50 C52.47,390.40 53.08,388.15 53.35,386.50 C53.94,382.80 55.90,375.19 56.95,372.50 C57.69,370.61 59.67,363.17 60.74,358.25 C61.23,356.02 61.14,356.00 49.70,356.00 C43.35,356.00 37.45,356.27 36.58,356.61 C35.64,356.97 35.00,358.39 35.00,360.12 C35.00,361.72 34.55,363.81 33.99,364.76 C33.44,365.72 31.42,372.58 29.50,380.00 C27.58,387.42 25.31,395.98 24.46,399.00 C23.61,402.02 22.51,406.30 22.02,408.50 C21.52,410.70 19.25,419.48 16.97,428.00 C14.69,436.52 11.76,447.55 10.47,452.50 C7.24,464.90 6.77,466.43 6.04,467.00 C4.95,467.86 3.00,475.57 3.00,479.05 C3.00,482.80 4.99,489.00 6.20,489.00 C6.64,489.00 7.00,489.62 7.00,490.37 C7.00,492.83 14.38,499.97 19.50,502.46 C24.36,504.83 25.17,504.90 48.38,504.95 C70.34,505.00 72.52,504.84 75.41,503.06 ZM 408.26 502.73 C409.08,501.48 410.07,498.56 410.46,496.23 C410.85,493.91 411.58,491.76 412.09,491.45 C412.59,491.14 413.00,489.67 413.00,488.19 C412.99,486.71 413.64,483.48 414.43,481.00 C417.35,471.87 419.00,465.72 419.00,463.94 C419.00,462.94 419.40,461.87 419.89,461.57 C420.39,461.26 421.01,459.32 421.29,457.26 C421.85,453.03 423.75,445.51 425.01,442.50 C425.47,441.40 426.05,439.38 426.30,438.00 C428.63,425.02 430.41,421.49 435.35,420.00 C437.63,419.31 440.92,418.12 442.65,417.37 C444.38,416.62 448.96,416.00 452.81,416.00 C459.38,416.00 459.98,415.81 462.35,413.00 C463.86,411.20 465.16,408.08 465.57,405.25 C465.94,402.64 466.70,399.94 467.25,399.25 C469.03,397.02 466.15,395.00 461.19,395.00 C456.27,395.00 445.44,397.62 443.00,399.40 C438.02,403.04 436.00,403.26 436.00,400.16 C436.00,399.33 435.26,397.83 434.35,396.83 C433.00,395.34 431.19,395.01 424.60,395.03 C413.56,395.08 412.52,396.07 409.57,409.50 C408.60,413.90 407.45,418.40 407.01,419.50 C406.58,420.60 405.46,424.42 404.52,428.00 C403.59,431.58 402.17,436.98 401.36,440.00 C400.56,443.02 399.50,447.08 399.01,449.00 C398.52,450.92 397.42,454.83 396.56,457.69 C395.70,460.54 395.00,464.00 395.00,465.38 C395.00,466.76 394.60,468.13 394.11,468.43 C393.63,468.73 392.92,470.67 392.55,472.74 C392.18,474.81 391.49,477.85 391.00,479.50 C390.52,481.15 389.37,485.42 388.45,489.00 C387.52,492.58 386.06,496.93 385.20,498.67 C382.56,504.01 384.34,505.00 396.51,505.00 C406.08,505.00 406.87,504.85 408.26,502.73 ZM 570.23 503.25 C571.08,502.29 572.23,499.48 572.79,497.00 C573.35,494.52 574.99,488.23 576.44,483.00 C579.65,471.39 583.00,458.80 583.00,458.34 C583.00,458.15 583.81,458.00 584.81,458.00 C585.98,458.00 587.27,459.50 588.46,462.25 C589.48,464.59 591.59,469.17 593.16,472.43 C594.72,475.69 596.00,478.75 596.00,479.22 C596.00,479.70 597.51,483.33 599.36,487.30 C601.21,491.26 603.08,495.62 603.50,496.98 C603.93,498.35 605.20,500.71 606.33,502.23 C608.35,504.97 608.50,505.00 619.61,505.00 C625.78,505.00 631.55,504.73 632.42,504.39 C635.05,503.38 634.60,500.63 630.64,493.50 C629.72,491.85 627.35,487.12 625.36,483.00 C623.38,478.88 618.88,469.61 615.38,462.42 C611.87,455.22 609.00,448.61 609.00,447.73 C609.00,446.86 610.46,445.11 612.25,443.85 C614.04,442.59 618.47,438.62 622.09,435.03 C633.20,424.03 647.15,410.79 654.31,404.47 C664.05,395.86 663.41,395.00 647.37,395.00 L 634.96 395.00 L 630.73 398.90 C628.40,401.05 621.78,407.57 616.00,413.40 C610.22,419.23 604.94,424.00 604.25,424.00 C603.56,424.00 603.00,424.47 603.00,425.04 C603.00,426.45 592.29,437.00 590.86,437.00 C588.82,437.00 590.42,426.62 594.18,415.50 C595.35,412.05 596.46,407.60 597.94,400.50 C598.52,397.75 599.41,394.60 599.92,393.50 C600.43,392.40 601.07,390.38 601.35,389.00 C601.62,387.62 602.51,384.02 603.32,381.00 C604.12,377.98 605.73,371.94 606.89,367.59 C610.23,355.08 610.90,355.89 597.41,356.22 L 585.81 356.50 L 584.42 360.50 C583.66,362.70 583.02,365.71 583.02,367.19 C583.01,368.67 582.60,370.13 582.11,370.43 C581.63,370.73 580.92,372.67 580.55,374.74 C579.85,378.65 578.57,383.35 576.80,388.50 C576.23,390.15 575.42,393.52 575.00,396.00 C574.57,398.48 573.27,403.76 572.11,407.74 C570.95,411.72 570.00,416.05 570.00,417.36 C570.00,418.68 569.33,420.32 568.50,421.00 C567.67,421.68 567.00,423.24 567.00,424.46 C567.00,426.37 565.08,434.40 561.97,445.50 C560.75,449.89 560.30,451.60 557.97,460.98 C556.82,465.64 555.50,469.91 555.05,470.48 C554.59,471.04 554.01,473.30 553.74,475.50 C553.28,479.24 550.24,491.31 547.88,498.80 C546.18,504.17 547.66,505.00 558.97,505.00 C566.97,505.00 568.96,504.69 570.23,503.25 ZM 116.75 483.55 C113.09,480.18 113.00,479.94 113.00,472.94 C113.00,468.99 113.65,463.68 114.45,461.13 C115.25,458.59 116.35,454.70 116.90,452.50 C121.10,435.74 122.81,431.43 128.04,424.40 C133.67,416.85 136.17,416.00 152.90,416.00 C166.19,416.00 167.00,416.11 167.00,417.94 C167.00,419.01 166.55,420.16 166.00,420.50 C165.45,420.84 165.00,422.44 165.00,424.04 C165.00,427.20 163.26,435.25 161.88,438.50 C161.42,439.60 160.60,442.30 160.07,444.50 C157.76,454.12 157.13,456.14 155.98,457.52 C155.32,458.33 154.64,460.90 154.49,463.24 C154.15,468.32 152.14,475.95 150.62,477.89 C148.05,481.15 132.07,486.93 125.50,486.96 C121.17,486.99 119.99,486.53 116.75,483.55 ZM 221.55 485.16 C214.89,481.42 214.83,481.26 215.29,469.37 C215.72,458.26 217.24,449.36 219.01,447.59 C219.55,447.05 220.00,445.43 220.00,443.99 C220.00,440.89 223.99,430.37 227.03,425.45 C233.20,415.47 244.54,412.38 263.25,415.58 C266.79,416.18 267.00,416.42 267.00,419.92 C267.00,421.95 266.34,424.49 265.53,425.56 C264.72,426.63 264.05,428.46 264.03,429.64 C264.01,430.81 263.35,433.02 262.56,434.55 C261.74,436.13 261.36,438.55 261.68,440.16 C261.99,441.72 261.78,443.56 261.21,444.25 C260.64,444.94 259.85,447.26 259.45,449.41 C259.05,451.56 258.11,454.48 257.37,455.91 C256.62,457.33 256.01,459.51 256.01,460.74 C256.00,463.56 254.27,470.63 251.55,478.96 C249.04,486.66 248.74,486.80 234.50,486.81 C227.03,486.82 223.75,486.40 221.55,485.16 ZM 316.25 485.97 C313.45,484.84 313.43,483.05 316.11,473.23 C318.22,465.52 320.31,457.63 322.01,451.00 C322.50,449.08 323.37,445.30 323.95,442.61 C324.52,439.92 325.38,437.22 325.86,436.61 C326.34,436.00 327.01,433.70 327.34,431.50 C328.26,425.53 330.45,418.15 331.67,416.93 C332.31,416.29 338.40,415.79 346.95,415.68 L 361.16 415.50 L 364.20 418.90 L 367.23 422.29 L 366.55 431.40 C365.60,444.10 361.20,461.73 356.69,470.88 C354.31,475.72 347.90,481.81 342.50,484.37 C337.70,486.64 335.69,486.99 327.72,486.94 C322.65,486.90 317.49,486.47 316.25,485.97 ZM 487.50 484.78 C482.98,483.17 479.18,478.39 478.43,473.36 C477.67,468.31 478.70,458.30 480.07,457.46 C480.58,457.14 481.00,455.67 481.00,454.19 C480.99,450.68 485.91,434.96 487.65,432.92 C488.39,432.05 489.00,430.88 489.00,430.31 C489.00,428.33 497.02,420.19 501.02,418.10 C506.23,415.39 517.77,415.16 522.04,417.68 C526.91,420.56 528.23,424.36 527.72,434.00 C527.48,438.67 526.58,444.98 525.72,448.00 C524.86,451.02 523.45,456.10 522.58,459.28 C520.79,465.87 517.70,472.34 514.91,475.33 C513.86,476.46 513.00,477.71 513.00,478.11 C513.00,479.28 505.87,483.39 501.51,484.73 C496.71,486.21 491.59,486.23 487.50,484.78 ZM 673.60 441.16 C671.32,437.47 678.80,424.36 685.89,419.62 C689.46,417.23 691.64,416.59 697.57,416.21 C706.76,415.62 708.98,416.20 712.87,420.18 C715.86,423.23 716.00,423.75 716.00,431.49 C716.00,436.46 715.54,440.06 714.80,440.80 C713.39,442.21 674.45,442.54 673.60,441.16 Z" fill="rgb(254,254,254)"/>
</g>
</svg>