<?xml version="1.0" encoding="UTF-8"?>
<svg version="1.1" xmlns="http://www.w3.org/2000/svg" width="2560" height="703">
<path d="M0 0 C4.28078491 0.81104557 6.7744694 -0.04355846 10.83007812 -1.43432617 C15.17813517 -2.91767271 19.64239887 -3.90687572 24.109375 -4.96484375 C24.99882812 -5.18140625 25.88828125 -5.39796875 26.8046875 -5.62109375 C28.11953125 -5.93433594 28.11953125 -5.93433594 29.4609375 -6.25390625 C30.23518066 -6.43904785 31.00942383 -6.62418945 31.80712891 -6.81494141 C68.18572434 -13.94734886 108.00958131 -5.81643671 139.4375 13.47265625 C141.00022834 14.56152503 142.54395179 15.678444 144.0625 16.828125 C146.00189715 18.2951851 147.95133017 19.66964261 149.96875 21.0234375 C150.57154785 21.42949219 151.1743457 21.83554688 151.79541016 22.25390625 C152.985228 23.05331011 154.17753836 23.84901924 155.37255859 24.640625 C156.77864149 25.59694789 158.13677161 26.62305082 159.484375 27.66015625 C159.484375 28.32015625 159.484375 28.98015625 159.484375 29.66015625 C160.3196875 30.00046875 160.3196875 30.00046875 161.171875 30.34765625 C164.12160773 32.02182888 166.1217634 34.23847936 168.484375 36.66015625 C169.2475 37.21703125 170.010625 37.77390625 170.796875 38.34765625 C171.6321875 38.99734375 171.6321875 38.99734375 172.484375 39.66015625 C172.484375 40.32015625 172.484375 40.98015625 172.484375 41.66015625 C173.144375 41.66015625 173.804375 41.66015625 174.484375 41.66015625 C176.140625 43.26953125 176.140625 43.26953125 177.984375 45.41015625 C178.5928125 46.10625 179.20125 46.80234375 179.828125 47.51953125 C181.36414463 49.50476417 182.4567716 51.3788767 183.484375 53.66015625 C184.144375 53.66015625 184.804375 53.66015625 185.484375 53.66015625 C186.45801286 55.07025247 187.42374031 56.48690071 188.3359375 57.9375 C189.50773939 59.69520283 190.7887088 61.25261777 192.171875 62.84765625 C194.484375 65.66015625 194.484375 65.66015625 195.484375 68.66015625 C196.144375 68.99015625 196.804375 69.32015625 197.484375 69.66015625 C198.4140625 71.26171875 198.4140625 71.26171875 199.359375 73.28515625 C201.19906883 77.1964381 203.32493832 80.91947669 205.484375 84.66015625 C214.83520024 100.8952678 221.49040112 117.94191765 225.68359375 136.2109375 C226.37884523 139.20560606 227.20752348 142.09858554 228.109375 145.03515625 C230.03244102 151.98937877 230.55063507 159.12997132 231.24169922 166.28857422 C231.47991891 168.61660847 231.75753047 170.93611981 232.05078125 173.2578125 C236.67733622 210.27423381 236.67733622 210.27423381 231.484375 220.66015625 C231.16048197 223.43091387 230.87414417 226.19625727 230.609375 228.97265625 C229.81379789 236.71796949 228.41292119 244.1109808 226.484375 251.66015625 C226.08159511 253.42942251 225.68496365 255.20010952 225.296875 256.97265625 C225.02875 258.18953125 224.760625 259.40640625 224.484375 260.66015625 C223.824375 260.66015625 223.164375 260.66015625 222.484375 260.66015625 C222.278125 261.79453125 222.071875 262.92890625 221.859375 264.09765625 C220.78453869 268.96148387 219.20570014 273.59666426 217.546875 278.28515625 C217.16764893 279.35914673 217.16764893 279.35914673 216.78076172 280.45483398 C215.17223761 284.93321684 213.39944489 289.30408683 211.484375 293.66015625 C210.824375 293.66015625 210.164375 293.66015625 209.484375 293.66015625 C209.33742188 294.19382812 209.19046875 294.7275 209.0390625 295.27734375 C207.09702895 301.72846668 204.05751282 306.98461808 200.484375 312.66015625 C199.76810663 313.90562634 199.05876242 315.15512902 198.359375 316.41015625 C193.24113176 325.28177787 193.24113176 325.28177787 190.484375 326.66015625 C190.21625 327.56765625 189.948125 328.47515625 189.671875 329.41015625 C188.27111148 333.24382482 186.45214551 334.90436935 183.484375 337.66015625 C180.69372753 340.97049007 180.69372753 340.97049007 178.484375 344.66015625 C177.824375 344.66015625 177.164375 344.66015625 176.484375 344.66015625 C176.484375 345.32015625 176.484375 345.98015625 176.484375 346.66015625 C174.98046875 348.140625 174.98046875 348.140625 172.921875 349.84765625 C167.88460287 354.12844759 163.30084591 358.76111848 158.734375 363.53515625 C156.484375 365.66015625 156.484375 365.66015625 153.484375 366.66015625 C153.484375 367.32015625 153.484375 367.98015625 153.484375 368.66015625 C152.824375 368.66015625 152.164375 368.66015625 151.484375 368.66015625 C151.484375 369.32015625 151.484375 369.98015625 151.484375 370.66015625 C149.26744709 372.41473021 147.05267761 374.05022388 144.734375 375.66015625 C143.78304687 376.33691406 143.78304687 376.33691406 142.8125 377.02734375 C139.79837438 379.14979054 136.86714315 381.15670374 133.484375 382.66015625 C133.484375 383.32015625 133.484375 383.98015625 133.484375 384.66015625 C132.71351563 385.07007813 131.94265625 385.48 131.1484375 385.90234375 C130.14554688 386.44117188 129.14265625 386.98 128.109375 387.53515625 C127.11164063 388.06882812 126.11390625 388.6025 125.0859375 389.15234375 C122.43089105 390.54217005 122.43089105 390.54217005 120.484375 392.66015625 C119.783125 392.92828125 119.081875 393.19640625 118.359375 393.47265625 C115.88164862 394.49606497 114.01343457 395.57088356 111.796875 397.03515625 C108.07499433 399.41437717 104.31972559 401.05679478 100.19921875 402.625 C97.20578625 403.76638074 94.25240621 404.98657266 91.296875 406.22265625 C90.35457031 406.61582031 89.41226562 407.00898437 88.44140625 407.4140625 C86.34209768 408.29871169 84.25593246 409.21484307 82.1796875 410.15234375 C78.02583436 411.84725634 73.87433194 413.06501587 69.546875 414.22265625 C68.40702148 414.53493164 68.40702148 414.53493164 67.24414062 414.85351562 C54.40346866 418.35152959 41.4990532 421.65502649 28.16796875 422.44921875 C25.47847157 422.61059094 25.47847157 422.61059094 22.84545898 423.16723633 C18.88789058 423.7476337 15.01189147 423.78502448 11.0234375 423.7578125 C10.23286957 423.75639755 9.44230164 423.7549826 8.6277771 423.75352478 C6.12160334 423.74796129 3.61552142 423.73541569 1.109375 423.72265625 C-0.59765495 423.71763653 -2.30468632 423.71307445 -4.01171875 423.70898438 C-8.17972248 423.69800384 -12.34765821 423.68076464 -16.515625 423.66015625 C-16.515625 423.00015625 -16.515625 422.34015625 -16.515625 421.66015625 C-17.37800781 421.91732422 -17.37800781 421.91732422 -18.2578125 422.1796875 C-27.05817559 424.05242913 -37.8998347 420.04696052 -46.49609375 418.08984375 C-48.17696485 417.7322116 -49.87690078 417.46568828 -51.578125 417.22265625 C-54.81684084 416.60247662 -57.64340765 415.53450226 -60.68359375 414.28125 C-62.66674444 413.49962126 -62.66674444 413.49962126 -65.515625 413.66015625 C-65.515625 413.00015625 -65.515625 412.34015625 -65.515625 411.66015625 C-66.49402344 411.49580078 -66.49402344 411.49580078 -67.4921875 411.328125 C-72.68776824 410.38556389 -76.82634456 409.16110582 -81.515625 406.66015625 C-82.57652344 406.37785156 -83.63742187 406.09554688 -84.73046875 405.8046875 C-88.80313374 404.5732212 -92.19133049 402.90297968 -95.890625 400.84765625 C-96.54836914 400.48873291 -97.20611328 400.12980957 -97.88378906 399.76000977 C-99.18364152 399.04944296 -100.48188495 398.33592298 -101.77832031 397.61914062 C-103.21424189 396.82651837 -104.65702991 396.04634938 -106.1015625 395.26953125 C-111.27854163 392.46611295 -116.20908875 389.33965294 -121.1328125 386.11328125 C-123.52431213 384.53284147 -123.52431213 384.53284147 -126.515625 383.66015625 C-126.515625 383.00015625 -126.515625 382.34015625 -126.515625 381.66015625 C-127.175625 381.66015625 -127.835625 381.66015625 -128.515625 381.66015625 C-128.515625 381.00015625 -128.515625 380.34015625 -128.515625 379.66015625 C-129.09828125 379.54542969 -129.6809375 379.43070313 -130.28125 379.3125 C-132.68085635 378.61191563 -134.24423433 377.6782303 -136.265625 376.22265625 C-137.18601562 375.57490234 -137.18601562 375.57490234 -138.125 374.9140625 C-138.58390625 374.50027344 -139.0428125 374.08648438 -139.515625 373.66015625 C-139.515625 373.00015625 -139.515625 372.34015625 -139.515625 371.66015625 C-140.175625 371.66015625 -140.835625 371.66015625 -141.515625 371.66015625 C-143.515625 369.66015625 -143.515625 369.66015625 -144.515625 367.66015625 C-145.134375 367.35078125 -145.753125 367.04140625 -146.390625 366.72265625 C-148.63279422 365.60157164 -149.82557227 364.49104671 -151.515625 362.66015625 C-152.134375 362.04140625 -152.753125 361.42265625 -153.390625 360.78515625 C-154.091875 360.08390625 -154.793125 359.38265625 -155.515625 358.66015625 C-156.815 357.42265625 -156.815 357.42265625 -158.140625 356.16015625 C-160.19769551 353.99481887 -161.40367652 352.38948435 -162.515625 349.66015625 C-163.505625 349.66015625 -164.495625 349.66015625 -165.515625 349.66015625 C-166.53699957 348.00650219 -167.53174794 346.33639123 -168.515625 344.66015625 C-169.51072936 343.61422666 -170.53348839 342.59411787 -171.578125 341.59765625 C-173.85241758 339.41299096 -175.21723886 337.5565561 -176.515625 334.66015625 C-176.95132813 334.2321875 -177.38703125 333.80421875 -177.8359375 333.36328125 C-179.90054594 331.26986432 -181.51348067 329.0028313 -183.203125 326.59765625 C-183.82574219 325.71980469 -184.44835937 324.84195312 -185.08984375 323.9375 C-186.515625 321.66015625 -186.515625 321.66015625 -186.515625 319.66015625 C-187.175625 319.33015625 -187.835625 319.00015625 -188.515625 318.66015625 C-191.88014284 314.71964759 -193.81015025 310.08392987 -196.015625 305.4375 C-197.3249709 302.69510685 -197.3249709 302.69510685 -199.140625 301.0390625 C-200.87482738 299.29993341 -200.99440332 298.04226856 -201.515625 295.66015625 C-202.77386031 292.81778207 -204.11432394 290.02207942 -205.45703125 287.21875 C-206.515625 284.66015625 -206.515625 284.66015625 -206.515625 281.66015625 C-207.175625 281.33015625 -207.835625 281.00015625 -208.515625 280.66015625 C-209.61218939 277.66952609 -210.58721164 274.70399549 -211.515625 271.66015625 C-211.84949219 270.59023438 -212.18335938 269.5203125 -212.52734375 268.41796875 C-215.88748234 257.60057091 -218.69422698 246.81142766 -221.06494141 235.74267578 C-221.42353004 234.08570879 -221.80042034 232.43270498 -222.18359375 230.78125 C-225.04106502 217.39625301 -224.59380909 203.15635733 -224.640625 189.53515625 C-224.64529785 188.61250977 -224.6499707 187.68986328 -224.65478516 186.73925781 C-224.62909779 175.76482428 -223.24419479 165.24518193 -221.203125 154.47265625 C-220.86873413 152.69580444 -220.86873413 152.69580444 -220.52758789 150.88305664 C-216.07960444 127.6331724 -216.07960444 127.6331724 -211.56640625 117.1953125 C-210.31101566 114.1665077 -209.30446533 111.08222848 -208.265625 107.97265625 C-205.69461478 100.69471963 -202.24382812 94.10362902 -198.47363281 87.38378906 C-197.09015287 84.89465339 -195.78030008 82.36715974 -194.453125 79.84765625 C-190.92383842 73.39492793 -186.76189848 67.43844186 -182.140625 61.72265625 C-180.32783955 59.66133236 -180.32783955 59.66133236 -179.515625 56.66015625 C-178.855625 56.66015625 -178.195625 56.66015625 -177.515625 56.66015625 C-177.515625 56.00015625 -177.515625 55.34015625 -177.515625 54.66015625 C-176.43104335 53.54058809 -175.33701735 52.42938178 -174.2109375 51.3515625 C-171.23564911 48.38312962 -168.49092126 45.20256053 -165.69921875 42.0625 C-161.68463908 37.6457442 -161.68463908 37.6457442 -159.515625 35.66015625 C-158.855625 35.66015625 -158.195625 35.66015625 -157.515625 35.66015625 C-157.185625 34.67015625 -156.855625 33.68015625 -156.515625 32.66015625 C-155.855625 32.66015625 -155.195625 32.66015625 -154.515625 32.66015625 C-154.515625 32.00015625 -154.515625 31.34015625 -154.515625 30.66015625 C-153.02539062 29.29077148 -153.02539062 29.29077148 -150.921875 27.71875 C-150.14666504 27.13931641 -149.37145508 26.55988281 -148.57275391 25.96289062 C-147.72890137 25.34736328 -146.88504883 24.73183594 -146.015625 24.09765625 C-145.15501465 23.46794922 -144.2944043 22.83824219 -143.40771484 22.18945312 C-135.76262416 16.68419895 -127.90233974 11.93483795 -119.515625 7.66015625 C-118.47792969 7.12132812 -117.44023437 6.5825 -116.37109375 6.02734375 C-81.56937658 -11.03845337 -36.22060232 -15.55406248 0 0 Z M-91.515625 57.66015625 C-92.44246094 58.14742187 -93.36929688 58.6346875 -94.32421875 59.13671875 C-99.67993056 61.97081319 -104.77732666 64.86951758 -109.515625 68.66015625 C-109.515625 69.32015625 -109.515625 69.98015625 -109.515625 70.66015625 C-110.0725 70.72203125 -110.629375 70.78390625 -111.203125 70.84765625 C-114.50505366 72.00779335 -116.14470491 74.1157542 -118.515625 76.66015625 C-119.9078125 77.99046875 -119.9078125 77.99046875 -121.328125 79.34765625 C-123.74469162 81.37177774 -123.74469162 81.37177774 -123.515625 83.66015625 C-124.08152344 83.881875 -124.64742187 84.10359375 -125.23046875 84.33203125 C-128.21915848 86.0690475 -129.91000134 88.22476451 -132.078125 90.91015625 C-132.84253906 91.8434375 -133.60695313 92.77671875 -134.39453125 93.73828125 C-136.47510537 96.60433915 -137.94006529 99.49990315 -139.515625 102.66015625 C-140.505625 103.15515625 -140.505625 103.15515625 -141.515625 103.66015625 C-142.34575315 105.12817235 -143.10606874 106.6360766 -143.828125 108.16015625 C-145.50232188 111.62213858 -147.23702578 115.00629327 -149.140625 118.34765625 C-156.77611978 132.00115782 -160.52018324 147.51402256 -163.703125 162.72265625 C-163.97189453 163.96305664 -163.97189453 163.96305664 -164.24609375 165.22851562 C-165.28959461 170.37672493 -165.66708627 175.17884282 -165.48168945 180.43139648 C-165.51599464 182.68443264 -165.95681674 184.48733902 -166.515625 186.66015625 C-166.60487512 188.14120304 -166.64623448 189.62564311 -166.6484375 191.109375 C-166.64972656 191.95822266 -166.65101563 192.80707031 -166.65234375 193.68164062 C-166.64847656 194.56142578 -166.64460938 195.44121094 -166.640625 196.34765625 C-166.64449219 197.20810547 -166.64835937 198.06855469 -166.65234375 198.95507812 C-166.64031673 206.93500333 -165.72521335 214.65393213 -164.515625 222.53515625 C-164.350625 223.62570312 -164.185625 224.71625 -164.015625 225.83984375 C-163.57458346 228.72622607 -163.57458346 228.72622607 -162.515625 231.66015625 C-162.28746094 232.67980469 -162.05929687 233.69945312 -161.82421875 234.75 C-158.25341987 250.52236277 -152.15619667 265.42090904 -144.515625 279.66015625 C-143.855625 279.66015625 -143.195625 279.66015625 -142.515625 279.66015625 C-142.391875 280.42328125 -142.268125 281.18640625 -142.140625 281.97265625 C-141.63459708 284.86282761 -141.63459708 284.86282761 -139.515625 287.66015625 C-138.855625 287.66015625 -138.195625 287.66015625 -137.515625 287.66015625 C-137.2990625 288.58828125 -137.2990625 288.58828125 -137.078125 289.53515625 C-136.58410275 291.69273947 -136.58410275 291.69273947 -135.515625 293.66015625 C-134.855625 293.66015625 -134.195625 293.66015625 -133.515625 293.66015625 C-133.185625 294.98015625 -132.855625 296.30015625 -132.515625 297.66015625 C-131.855625 297.66015625 -131.195625 297.66015625 -130.515625 297.66015625 C-130.20625 298.68109375 -130.20625 298.68109375 -129.890625 299.72265625 C-128.08667473 303.57655 -125.6145905 306.73803389 -122.515625 309.66015625 C-121.855625 309.66015625 -121.195625 309.66015625 -120.515625 309.66015625 C-120.268125 310.2325 -120.020625 310.80484375 -119.765625 311.39453125 C-118.32246301 314.01026236 -116.63346278 315.80789081 -114.515625 317.91015625 C-113.814375 318.6165625 -113.113125 319.32296875 -112.390625 320.05078125 C-110.67451732 321.87726024 -110.67451732 321.87726024 -108.515625 321.66015625 C-108.515625 322.32015625 -108.515625 322.98015625 -108.515625 323.66015625 C-107.15238171 325.02384102 -107.15238171 325.02384102 -105.32421875 326.3828125 C-104.63457031 326.91688721 -103.94492187 327.45096191 -103.234375 328.0012207 C-102.4815625 328.56929443 -101.72875 329.13736816 -100.953125 329.72265625 C-100.18097656 330.30684326 -99.40882813 330.89103027 -98.61328125 331.49291992 C-71.56226844 351.66199986 -38.46025017 364.6274494 -4.515625 365.66015625 C-3.25234375 365.70011719 -1.9890625 365.74007813 -0.6875 365.78125 C36.71003271 366.55762383 71.61816708 355.46786564 102.484375 334.66015625 C103.474375 334.00015625 104.464375 333.34015625 105.484375 332.66015625 C105.484375 332.00015625 105.484375 331.34015625 105.484375 330.66015625 C106.061875 330.55703125 106.639375 330.45390625 107.234375 330.34765625 C109.84098658 329.5511916 111.4579061 328.46950348 113.484375 326.66015625 C113.484375 326.00015625 113.484375 325.34015625 113.484375 324.66015625 C114.144375 324.66015625 114.804375 324.66015625 115.484375 324.66015625 C115.484375 324.00015625 115.484375 323.34015625 115.484375 322.66015625 C116.53625 322.35078125 116.53625 322.35078125 117.609375 322.03515625 C121.28610859 320.27671845 123.95732579 317.85587484 126.484375 314.66015625 C126.484375 314.00015625 126.484375 313.34015625 126.484375 312.66015625 C127.144375 312.66015625 127.804375 312.66015625 128.484375 312.66015625 C128.484375 312.00015625 128.484375 311.34015625 128.484375 310.66015625 C129.144375 310.66015625 129.804375 310.66015625 130.484375 310.66015625 C133.692474 307.16974454 136.55674034 303.38712834 139.484375 299.66015625 C140.43763672 298.4690625 140.43763672 298.4690625 141.41015625 297.25390625 C141.95027344 296.56296875 142.49039062 295.87203125 143.046875 295.16015625 C143.52253906 294.55171875 143.99820312 293.94328125 144.48828125 293.31640625 C145.74206858 291.55379581 145.74206858 291.55379581 145.484375 288.66015625 C146.144375 288.66015625 146.804375 288.66015625 147.484375 288.66015625 C153.48548304 278.19972683 159.00008339 267.87088528 163.484375 256.66015625 C164.03351563 255.41105469 164.03351563 255.41105469 164.59375 254.13671875 C169.32089924 243.19155012 171.60927356 231.42381353 173.08984375 219.6484375 C173.484375 216.66015625 173.484375 216.66015625 173.99633789 214.45654297 C174.60964969 210.94234921 174.66536524 207.48560819 174.6875 203.9296875 C174.69442368 203.18583298 174.70134735 202.44197845 174.70848083 201.67558289 C174.72575533 199.27455378 174.73207316 196.87374466 174.734375 194.47265625 C174.73571442 193.65780762 174.73705383 192.84295898 174.73843384 192.00341797 C174.73423562 180.27619903 174.26770467 169.09989655 171.484375 157.66015625 C171.24460937 156.54640625 171.00484375 155.43265625 170.7578125 154.28515625 C169.47315786 148.63832266 167.70211167 143.40390668 165.44140625 138.078125 C164.49530021 135.68775912 163.82405377 133.33233732 163.171875 130.84765625 C161.26610368 124.27991746 157.85282476 118.5733593 154.484375 112.66015625 C153.79686671 111.41739067 153.11068901 110.17388816 152.42578125 108.9296875 C149.155337 103.05405187 145.86817024 97.75824401 141.484375 92.66015625 C140.47240211 91.31491344 139.47048929 89.96196778 138.484375 88.59765625 C134.75032764 83.5839098 130.54497818 79.35302884 125.484375 75.66015625 C124.824375 75.66015625 124.164375 75.66015625 123.484375 75.66015625 C123.484375 74.67015625 123.484375 73.68015625 123.484375 72.66015625 C122.494375 72.66015625 121.504375 72.66015625 120.484375 72.66015625 C120.484375 72.00015625 120.484375 71.34015625 120.484375 70.66015625 C112.61303237 63.55593599 103.01404316 59.06756349 93.484375 54.66015625 C92.56398438 54.22445312 91.64359375 53.78875 90.6953125 53.33984375 C82.3962626 49.69042441 73.50797493 48.49805565 64.484375 48.66015625 C65.06445312 49.31371094 65.06445312 49.31371094 65.65625 49.98046875 C68.22324448 52.91599215 70.6528194 55.7939752 72.734375 59.09765625 C73.311875 59.94328125 73.889375 60.78890625 74.484375 61.66015625 C75.144375 61.66015625 75.804375 61.66015625 76.484375 61.66015625 C76.5875 62.21703125 76.690625 62.77390625 76.796875 63.34765625 C77.62158231 66.12167175 78.97455242 68.19051788 80.484375 70.66015625 C84.18904644 77.18037798 87.59725444 83.73831491 90.484375 90.66015625 C90.82339844 91.45035156 91.16242188 92.24054688 91.51171875 93.0546875 C99.26982931 111.64487697 105.40228961 140.05939819 98.484375 159.66015625 C98.18072658 161.11604196 97.88995274 162.57464891 97.609375 164.03515625 C96.56101697 168.91085312 94.60192481 173.16918603 92.484375 177.66015625 C92.154375 178.50578125 91.824375 179.35140625 91.484375 180.22265625 C88.2236436 188.17068903 83.92227752 197.2626902 77.76953125 203.359375 C76.2501012 204.59251714 76.2501012 204.59251714 76.484375 206.66015625 C75.92234375 206.90765625 75.3603125 207.15515625 74.78125 207.41015625 C72.09344931 208.87290492 70.02032018 210.62820498 67.734375 212.66015625 C66.93515625 213.36140625 66.1359375 214.06265625 65.3125 214.78515625 C63.25167495 216.46237053 63.25167495 216.46237053 63.484375 218.66015625 C62.80375 218.90765625 62.123125 219.15515625 61.421875 219.41015625 C58.63419839 220.59640162 56.09180122 222.01306293 53.47265625 223.52734375 C35.35408488 233.8503019 12.43060972 240.55791837 -8.515625 236.66015625 C-9.27101563 236.52222656 -10.02640625 236.38429688 -10.8046875 236.2421875 C-13.0608692 235.77580365 -15.28258845 235.22674761 -17.515625 234.66015625 C-18.50949219 234.43199219 -19.50335938 234.20382812 -20.52734375 233.96875 C-25.9005033 232.706421 -30.68793206 231.41883793 -35.515625 228.66015625 C-36.464375 228.20640625 -37.413125 227.75265625 -38.390625 227.28515625 C-41.68106018 225.57412996 -44.70928284 223.62257305 -47.78125 221.55078125 C-48.35359375 221.256875 -48.9259375 220.96296875 -49.515625 220.66015625 C-50.175625 220.99015625 -50.835625 221.32015625 -51.515625 221.66015625 C-51.515625 221.00015625 -51.515625 220.34015625 -51.515625 219.66015625 C-54.99561007 216.02382086 -54.99561007 216.02382086 -59.515625 214.66015625 C-60.175625 213.34015625 -60.835625 212.02015625 -61.515625 210.66015625 C-62.175625 210.66015625 -62.835625 210.66015625 -63.515625 210.66015625 C-63.77859375 210.06460938 -64.0415625 209.4690625 -64.3125 208.85546875 C-65.57116553 206.55881282 -66.82644247 205.27343248 -68.765625 203.53515625 C-72.99842501 199.4073017 -75.67560798 194.80813647 -78.515625 189.66015625 C-79.11761719 188.6340625 -79.71960938 187.60796875 -80.33984375 186.55078125 C-83.95802358 180.20948494 -86.44431885 174.37600292 -87.96484375 167.23046875 C-88.47849167 164.53970157 -88.47849167 164.53970157 -89.640625 161.59765625 C-93.80358941 147.62199001 -92.38609079 129.73723503 -89.515625 115.66015625 C-89.34804688 114.8196875 -89.18046875 113.97921875 -89.0078125 113.11328125 C-84.78569393 93.14199023 -76.08666702 73.81659488 -63.23046875 57.91015625 C-61.34524731 55.68827977 -61.34524731 55.68827977 -60.515625 52.66015625 C-59.525625 52.33015625 -58.535625 52.00015625 -57.515625 51.66015625 C-57.185625 50.67015625 -56.855625 49.68015625 -56.515625 48.66015625 C-68.9875326 47.60371231 -80.76743643 51.61320788 -91.515625 57.66015625 Z M3.484375 62.66015625 C2.494375 63.32015625 1.504375 63.98015625 0.484375 64.66015625 C0.484375 65.32015625 0.484375 65.98015625 0.484375 66.66015625 C-0.09828125 66.92957031 -0.6809375 67.19898438 -1.28125 67.4765625 C-3.52670676 68.66602648 -5.32257344 69.96599116 -7.265625 71.59765625 C-7.87921875 72.10167969 -8.4928125 72.60570312 -9.125 73.125 C-10.85130381 74.68549594 -10.85130381 74.68549594 -10.515625 77.66015625 C-11.4128125 78.00046875 -11.4128125 78.00046875 -12.328125 78.34765625 C-15.10910903 80.01624667 -16.0798166 81.78853945 -17.515625 84.66015625 C-17.515625 85.32015625 -17.515625 85.98015625 -17.515625 86.66015625 C-18.175625 86.99015625 -18.835625 87.32015625 -19.515625 87.66015625 C-23.19272622 92.37500382 -25.87412367 97.04484798 -28.203125 102.53515625 C-28.65691528 103.59005249 -28.65691528 103.59005249 -29.11987305 104.66625977 C-31.19507839 109.60920833 -32.63213818 114.3696293 -33.515625 119.66015625 C-33.89040582 121.07688092 -34.26541454 122.49354531 -34.640625 123.91015625 C-37.42435721 136.73759426 -35.54912446 150.48242157 -28.796875 161.7578125 C-26.75911839 164.78525766 -26.75911839 164.78525766 -24.515625 167.66015625 C-23.855625 167.66015625 -23.195625 167.66015625 -22.515625 167.66015625 C-22.515625 168.32015625 -22.515625 168.98015625 -22.515625 169.66015625 C-21.855625 169.66015625 -21.195625 169.66015625 -20.515625 169.66015625 C-20.515625 170.32015625 -20.515625 170.98015625 -20.515625 171.66015625 C-12.66758579 178.30249111 -2.91856692 180.27979677 7.109375 180.0078125 C16.12815145 179.07879502 25.08517352 176.36816638 31.484375 169.66015625 C33.02888695 166.98867889 33.02888695 166.98867889 33.484375 164.66015625 C34.144375 164.66015625 34.804375 164.66015625 35.484375 164.66015625 C36.4546071 163.00038813 37.40993173 161.33190325 38.359375 159.66015625 C38.89304687 158.73203125 39.42671875 157.80390625 39.9765625 156.84765625 C46.21838114 143.65251632 44.91296064 126.65061098 40.69140625 113.03125 C37.88511072 105.19360263 34.81139334 97.77879933 30.484375 90.66015625 C29.73075218 89.34973307 28.98070589 88.03724609 28.234375 86.72265625 C27.656875 85.71203125 27.079375 84.70140625 26.484375 83.66015625 C25.824375 83.66015625 25.164375 83.66015625 24.484375 83.66015625 C24.2471875 83.1084375 24.01 82.55671875 23.765625 81.98828125 C22.17192357 79.09240914 20.19520227 76.86503588 17.984375 74.41015625 C17.1903125 73.518125 16.39625 72.62609375 15.578125 71.70703125 C13.73402829 69.42713725 13.73402829 69.42713725 11.484375 69.66015625 C11.484375 69.00015625 11.484375 68.34015625 11.484375 67.66015625 C9.69471953 66.29738539 9.69471953 66.29738539 7.484375 65.03515625 C6.741875 64.58914062 5.999375 64.143125 5.234375 63.68359375 C4.656875 63.34585938 4.079375 63.008125 3.484375 62.66015625 Z " fill="#0072BD" transform="translate(450.515625,144.33984375)"/>
<path d="M0 0 C1.04670868 -0.00419449 2.09341736 -0.00838898 3.17184448 -0.01271057 C4.32032364 -0.00709106 5.4688028 -0.00147156 6.65208435 0.00431824 C7.86231262 0.00241989 9.07254089 0.00052155 10.31944275 -0.00143433 C13.64484004 -0.00450969 16.96998988 0.00138611 20.29535794 0.01151872 C23.79031798 0.02032015 27.28527406 0.01854116 30.78024292 0.01815796 C36.66576868 0.0190956 42.55124302 0.02778219 48.43675232 0.04142761 C55.19668117 0.05704471 61.9565533 0.06242949 68.71649891 0.06169206 C75.95197393 0.06100984 83.18742765 0.06800054 90.42289615 0.07713866 C92.48447234 0.07924804 94.54604498 0.07997689 96.60762215 0.08037758 C158.32151167 0.10387838 158.32151167 0.10387838 176.93894958 16.24723816 C181.41458217 20.80066274 184.53976773 25.55106117 187.12644958 31.37223816 C187.46813171 32.14068054 187.80981384 32.90912292 188.16184998 33.70085144 C191.97980853 42.89970788 193.03580444 52.40424472 193.93894958 62.24723816 C194.02593298 63.10353223 194.11291637 63.9598263 194.20253563 64.84206867 C194.9784341 73.02835188 195.04600645 81.14679821 194.97654724 89.36320496 C194.96801895 90.84116367 194.95995024 92.3191251 194.95230103 93.79708862 C194.93031764 97.77156877 194.90161735 101.74597309 194.871346 105.72039771 C194.84047807 109.88921996 194.81498974 114.05807585 194.78865051 118.22692871 C194.74364047 125.21281437 194.69416561 132.19865781 194.64207458 139.18449402 C194.58186275 147.26786112 194.52915759 155.35125181 194.48030627 163.43469495 C194.43305314 171.22060413 194.38022974 179.00646618 194.32494736 186.79232216 C194.30154816 190.10450645 194.28018023 193.41669475 194.26044083 196.72890282 C194.23704098 200.61712244 194.20880707 204.50527691 194.17675209 208.39343452 C194.16576156 209.8233507 194.1564805 211.25328113 194.14898872 212.68321991 C194.13853322 214.62656097 194.12141567 216.56986286 194.10389709 218.51315308 C194.09227004 220.14761902 194.09227004 220.14761902 194.0804081 221.81510448 C193.93894958 224.24723816 193.93894958 224.24723816 192.93894958 225.24723816 C190.95004737 225.34834995 188.95750248 225.37801326 186.96603394 225.38095093 C185.66675964 225.38521591 184.36748535 225.3894809 183.02883911 225.39387512 C181.5749664 225.39352553 180.12109371 225.39306396 178.66722107 225.39250183 C177.14625465 225.39549203 175.62528899 225.39889424 174.10432434 225.40267944 C169.95674328 225.41154814 165.80918283 225.41385905 161.6615932 225.41449523 C159.06589782 225.41520531 156.4702077 225.41733905 153.87451363 225.41999245 C144.80459892 225.42926259 135.73469895 225.43332616 126.66477966 225.43254089 C118.23821785 225.43194297 109.81172066 225.44243402 101.38517517 225.45828456 C94.13740346 225.47142687 86.88965264 225.47672184 79.64186913 225.47608548 C75.31983143 225.47583201 70.99785086 225.47859797 66.67582512 225.48926353 C62.59564997 225.49905487 58.51558512 225.4989494 54.43540573 225.4917469 C52.95050836 225.49071388 51.46560373 225.49298603 49.98071861 225.49910736 C29.65919382 225.5773396 10.5413236 223.93968236 -4.99073792 209.54411316 C-8.58305371 205.55867601 -10.82749189 201.09118256 -13.06105042 196.24723816 C-13.44003479 195.49055847 -13.81901917 194.73387878 -14.20948792 193.95426941 C-22.38550731 176.09612178 -21.01378145 154.65057583 -18.81105042 135.68473816 C-18.7019635 134.71004578 -18.59287659 133.73535339 -18.48048401 132.73112488 C-17.58141145 125.82252411 -15.66999952 119.6932114 -13.06105042 113.24723816 C-12.68947815 112.317099 -12.31790588 111.38695984 -11.93507385 110.42863464 C-11.50243225 109.34884338 -11.50243225 109.34884338 -11.06105042 108.24723816 C-10.40105042 108.24723816 -9.74105042 108.24723816 -9.06105042 108.24723816 C-8.87542542 107.56661316 -8.68980042 106.88598816 -8.49855042 106.18473816 C-4.17226475 97.34406745 5.31759753 91.75678601 14.31394958 88.49723816 C23.60085859 85.8105442 32.86038 84.95057725 42.4907074 85.02018738 C43.57510605 85.01989532 44.6595047 85.01960327 45.77676392 85.01930237 C49.31528591 85.02068141 52.85358997 85.0361748 56.39207458 85.05192566 C58.86357 85.05566086 61.3350669 85.05850544 63.80656433 85.0605011 C70.27718777 85.06809758 76.74771987 85.0877115 83.2183075 85.10990906 C89.83481104 85.13045373 96.45132951 85.13952118 103.06785583 85.14958191 C116.02492581 85.17096143 128.98193281 85.20465838 141.93894958 85.24723816 C141.82440155 82.37147948 141.69766488 79.49711704 141.56394958 76.62223816 C141.51754333 75.40987488 141.51754333 75.40987488 141.47019958 74.17301941 C141.24270925 69.50946764 140.60799089 65.65730664 138.93894958 61.24723816 C138.93894958 60.58723816 138.93894958 59.92723816 138.93894958 59.24723816 C138.27894958 59.24723816 137.61894958 59.24723816 136.93894958 59.24723816 C136.53458679 58.46942993 136.130224 57.6916217 135.71360779 56.89024353 C132.71827676 52.42928537 128.17065096 52.02207708 123.16697693 50.98857117 C112.66941604 49.26481827 101.8779528 49.74998596 91.27743912 49.84166241 C87.84489956 49.86699277 84.41233968 49.86904257 80.97972107 49.87376404 C74.50608276 49.88610235 68.03272081 49.91879721 61.55920315 49.959162 C54.17811703 50.004168 46.79701639 50.02593852 39.4158268 50.04594374 C24.25671484 50.08754031 9.0978601 50.1577103 -6.06105042 50.24723816 C-7.35765917 46.66091549 -8.31149771 43.5613818 -8.33570862 39.74235535 C-8.34524063 38.90839233 -8.35477264 38.07442932 -8.36459351 37.2151947 C-8.3636821 36.33373779 -8.36277069 35.45228088 -8.36183167 34.54411316 C-8.36611679 33.6251123 -8.37040192 32.70611145 -8.37481689 31.75926208 C-8.38053855 29.82622601 -8.38107648 27.89316842 -8.37672424 25.96012878 C-8.37354584 22.99296459 -8.39711355 20.02678058 -8.42237854 17.05973816 C-8.4246498 15.17953108 -8.42535583 13.29932133 -8.42433167 11.41911316 C-8.43354141 10.52955933 -8.44275116 9.64000549 -8.45223999 8.72349548 C-8.4460112 7.90214111 -8.43978241 7.08078674 -8.43336487 6.23454285 C-8.43399429 5.51095581 -8.43462372 4.78736877 -8.43527222 4.04185486 C-7.53990341 -0.25197252 -3.56216452 -0.00213154 0 0 Z M36.93894958 135.24723816 C31.44973936 143.13797786 31.87712424 154.99041224 32.93894958 164.24723816 C34.06769237 167.54316708 35.41870386 169.85300472 37.93894958 172.24723816 C38.43086792 172.76429825 38.92278625 173.28135834 39.42961121 173.81408691 C43.34065365 176.04778939 47.14607036 175.63967233 51.57273865 175.58781433 C53.03665039 175.58847145 53.03665039 175.58847145 54.53013611 175.58914185 C57.75515261 175.58705224 60.97964892 175.56371267 64.20457458 175.54020691 C66.44087948 175.53461158 68.67718804 175.53034118 70.91349792 175.52734375 C76.79903824 175.5158901 82.68435641 175.48641821 88.56980896 175.45323181 C94.57563776 175.42254229 100.58150247 175.40884079 106.58738708 175.39372253 C118.37135455 175.36154916 130.15509884 175.30877675 141.93894958 175.24723816 C141.93894958 161.05723816 141.93894958 146.86723816 141.93894958 132.24723816 C125.09619116 132.15992527 125.09619116 132.15992527 108.25340271 132.10075378 C101.38004068 132.08284698 94.50679899 132.06170308 87.63352966 132.0209198 C82.08977886 131.98823264 76.54615719 131.97036535 71.00231743 131.96260643 C68.89130052 131.95707972 66.78029037 131.94628748 64.66932869 131.93004799 C61.70379194 131.9081495 58.73878319 131.90527644 55.7731781 131.90666199 C54.90786469 131.89587616 54.04255127 131.88509033 53.15101624 131.87397766 C47.44146173 131.90268791 42.08944537 132.62702535 36.93894958 135.24723816 Z " fill="#0072BD" transform="translate(1720.061050415039,232.7527618408203)"/>
<path d="M0 0 C1.04677917 -0.00281982 2.09355835 -0.00563965 3.17205811 -0.00854492 C4.32570358 -0.00652069 5.47934906 -0.00449646 6.66795349 -0.00241089 C8.4854863 -0.00503937 8.4854863 -0.00503937 10.33973694 -0.00772095 C13.67332 -0.01137828 17.0068413 -0.01050461 20.34042096 -0.00734186 C23.84119579 -0.00480873 27.34196799 -0.00715926 30.84274292 -0.00872803 C36.73842338 -0.01055054 42.63409134 -0.00814505 48.5297699 -0.00338745 C55.30503181 0.00201752 62.08026346 0.00032052 68.8555246 -0.00521386 C74.69272764 -0.00978818 80.52992167 -0.01037349 86.36712593 -0.00777519 C89.84352641 -0.00623107 93.31991281 -0.00596581 96.79631233 -0.00931168 C159.71738733 -0.06121619 159.71738733 -0.06121619 177.09153748 17.14651489 C197.30119462 39.63513338 194.50897992 71.79488404 194.38958836 100.09604859 C194.37431984 104.42851167 194.37572137 108.76097461 194.37492371 113.09346008 C194.37126207 120.33897233 194.35643632 127.58438804 194.33372498 134.8298645 C194.30461882 144.13446381 194.29447519 153.4389867 194.29004288 162.74362659 C194.28607224 170.77029344 194.2735901 178.79694368 194.25969601 186.82359862 C194.25559975 189.39665359 194.25267336 191.96970797 194.24990082 194.54276466 C194.24502024 198.56736284 194.23483817 202.59191429 194.2204628 206.61648941 C194.21593262 208.09437959 194.21309944 209.57227605 194.21205521 211.05017281 C194.21031535 213.06043036 194.20181145 215.07067873 194.19291687 217.08091736 C194.18994221 218.20697293 194.18696754 219.33302851 194.18390274 220.49320698 C194.05247498 223.12698364 194.05247498 223.12698364 193.05247498 225.12698364 C172.20665444 225.197271 151.36085363 225.25006803 130.51493835 225.28242016 C120.83437625 225.2978455 111.15388806 225.31885152 101.47337341 225.353302 C93.02932494 225.38333772 84.58533004 225.40259008 76.14122963 225.40924913 C71.67605069 225.41313753 67.21102491 225.42218392 62.74589539 225.44417381 C58.53028464 225.46476372 54.31488798 225.47077277 50.09923172 225.46630669 C48.56433569 225.46712195 47.02943137 225.47295211 45.49457932 225.48460007 C26.1440333 225.62406119 8.90286728 222.54024121 -5.94752502 209.12698364 C-5.94752502 208.46698364 -5.94752502 207.80698364 -5.94752502 207.12698364 C-6.60752502 207.12698364 -7.26752502 207.12698364 -7.94752502 207.12698364 C-7.94752502 206.46698364 -7.94752502 205.80698364 -7.94752502 205.12698364 C-8.60752502 204.79698364 -9.26752502 204.46698364 -9.94752502 204.12698364 C-11.01783752 202.13088989 -11.01783752 202.13088989 -12.07252502 199.68948364 C-12.42572815 198.88639771 -12.77893127 198.08331177 -13.14283752 197.25588989 C-13.94752502 195.12698364 -13.94752502 195.12698364 -13.94752502 193.12698364 C-14.60752502 192.79698364 -15.26752502 192.46698364 -15.94752502 192.12698364 C-16.64763122 189.8516385 -17.00144645 187.56688554 -17.40919495 185.22195435 C-17.75639315 183.22584021 -18.11144427 181.23106841 -18.47608948 179.23806763 C-19.89939492 170.91848466 -20.21900404 162.86832461 -20.13502502 154.43948364 C-20.13405823 152.57839966 -20.13405823 152.57839966 -20.1330719 150.67971802 C-20.08630106 140.86303909 -19.79617988 131.51565409 -16.76002502 122.12698364 C-16.54152893 121.44273315 -16.32303284 120.75848267 -16.09791565 120.05349731 C-13.36358927 111.88614144 -9.48301829 104.86546553 -2.94752502 99.12698364 C-2.45897034 98.64745239 -1.97041565 98.16792114 -1.46705627 97.67385864 C13.98008717 83.144004 36.36827307 84.70315583 56.01731873 84.83401489 C58.50694522 84.83962055 60.99657505 84.84388606 63.48620605 84.84687805 C69.99136228 84.85825044 76.49631277 84.88765116 83.00138855 84.92098999 C89.65836679 84.95185602 96.31536575 84.96541849 102.97239685 84.98049927 C115.99917657 85.01252895 129.02581475 85.06304289 142.05247498 85.12698364 C141.89832172 83.04590882 141.74247883 80.96495912 141.58592224 78.88406372 C141.45601646 77.1458007 141.45601646 77.1458007 141.32348633 75.37242126 C141.02593554 71.80916637 140.57131409 68.3412743 139.98997498 64.81448364 C139.72507263 63.18059692 139.72507263 63.18059692 139.45481873 61.51370239 C139.32204529 60.72608521 139.18927185 59.93846802 139.05247498 59.12698364 C138.39247498 59.12698364 137.73247498 59.12698364 137.05247498 59.12698364 C136.72247498 58.13698364 136.39247498 57.14698364 136.05247498 56.12698364 C135.06247498 55.79698364 134.07247498 55.46698364 133.05247498 55.12698364 C133.05247498 54.46698364 133.05247498 53.80698364 133.05247498 53.12698364 C131.87684998 52.81760864 130.70122498 52.50823364 129.48997498 52.18948364 C128.82868591 52.01546021 128.16739685 51.84143677 127.48606873 51.66213989 C120.21724194 50.06369805 113.20493429 49.99012713 105.78318787 50.01345825 C104.56296936 50.01331223 103.34275085 50.0131662 102.08555603 50.01301575 C98.75753965 50.01359097 95.42958613 50.01858894 92.10158086 50.0255897 C88.61690664 50.03186225 85.13223148 50.03243012 81.64755249 50.03361511 C75.05686609 50.03671696 68.46619638 50.04491483 61.87551731 50.0549646 C54.36884958 50.06616142 46.86218103 50.07164517 39.35550702 50.07666004 C23.92115171 50.08709845 8.48681937 50.10542961 -6.94752502 50.12698364 C-6.94752502 33.95698364 -6.94752502 17.78698364 -6.94752502 1.12698364 C-4.45536906 -0.11909434 -2.78898628 0.0011522 0 0 Z M36.05247498 136.12698364 C30.91687652 144.62728453 30.98080923 154.53502685 32.80247498 164.12698364 C33.9610665 168.57369056 35.8845983 171.83254507 39.91794968 174.24085808 C42.2392711 175.20453007 43.82743768 175.37378022 46.32987976 175.36749268 C47.17679382 175.370242 48.02370789 175.37299133 48.89628601 175.37582397 C49.81697876 175.36863342 50.73767151 175.36144287 51.68626404 175.35403442 C53.15017578 175.3544725 53.15017578 175.3544725 54.6436615 175.35491943 C57.86856485 175.35352641 61.09323699 175.33796634 64.31809998 175.32229614 C66.55440647 175.31856592 68.7907146 175.31571899 71.02702332 175.3137207 C76.91250624 175.30608501 82.79789043 175.28643697 88.68333435 175.26431274 C94.68918014 175.243853 100.69504188 175.23471871 106.70091248 175.22463989 C118.484817 175.20319109 130.26862233 175.16800937 142.05247498 175.12698364 C142.05247498 160.93698364 142.05247498 146.74698364 142.05247498 132.12698364 C129.11772988 132.03660381 116.18319462 131.9632219 103.24820518 131.91973495 C97.24192444 131.8988631 91.235871 131.87055218 85.22972107 131.82522583 C79.43310437 131.78175467 73.63670625 131.75784351 67.83993912 131.74747467 C65.62874028 131.74008566 63.41755335 131.72565668 61.2064476 131.70406342 C58.10847397 131.67501324 55.01140281 131.67102841 51.91331482 131.67288208 C50.99981262 131.65850098 50.08631042 131.64411987 49.14512634 131.62930298 C43.62881527 131.66500218 40.3885694 132.37759558 36.05247498 136.12698364 Z " fill="#0072BD" transform="translate(2139.947525024414,232.87301635742188)"/>
<path d="M0 0 C5.2941999 3.84089012 9.38947704 8.56285152 13 14 C13 14.66 13 15.32 13 16 C13.66 16 14.32 16 15 16 C15.54269531 17.09699219 16.08539062 18.19398438 16.64453125 19.32421875 C17.3670797 20.77869939 18.08974196 22.2331235 18.8125 23.6875 C19.16892578 24.40873047 19.52535156 25.12996094 19.89257812 25.87304688 C20.41948242 26.93168945 20.41948242 26.93168945 20.95703125 28.01171875 C21.27647705 28.65584717 21.59592285 29.29997559 21.92504883 29.96362305 C22.72187733 31.47312714 23.57307673 32.95419636 24.4519043 34.41748047 C26.00363495 37.00606379 27.4194376 39.63160176 28.8125 42.30859375 C29.33070313 43.30310547 29.84890625 44.29761719 30.3828125 45.32226562 C30.91648437 46.35029297 31.45015625 47.37832031 32 48.4375 C32.53367187 49.46166016 33.06734375 50.48582031 33.6171875 51.54101562 C35.0831652 54.35809964 36.54228544 57.17863432 38 60 C38.34417969 60.65629395 38.68835938 61.31258789 39.04296875 61.98876953 C41 65.77305238 41 65.77305238 41 68 C41.66 68 42.32 68 43 68 C43.37584229 68.80497925 43.37584229 68.80497925 43.75927734 69.6262207 C49.16326858 81.16821469 54.76353641 92.56189138 60.7734375 103.80078125 C67 115.49662162 67 115.49662162 67 118 C67.66 118.33 68.32 118.66 69 119 C69.89561083 120.59152464 70.71449335 122.22634942 71.5 123.875 C74.22721768 129.47649121 77.08240948 134.99534854 80 140.5 C91 161.33245975 91 161.33245975 91 164 C91.99 163.67 92.98 163.34 94 163 C93.92681549 161.80945511 93.85363098 160.61891022 93.77822876 159.39228821 C92.83844582 142.6320486 92.93475783 125.89588748 93.06760359 109.11868834 C93.09875599 105.06070162 93.12405867 101.00267727 93.15029907 96.94465637 C93.19509078 90.15976667 93.24455165 83.37492342 93.296875 76.59008789 C93.35731995 68.74395369 93.40995738 60.89779498 93.45864332 53.05157965 C93.50587536 45.47068014 93.55867715 37.88982919 93.61400223 30.30898476 C93.63737346 27.09169758 93.65874564 23.87440626 93.67850876 20.65709496 C93.70189561 16.88857458 93.7301258 13.12012166 93.76219749 9.3516655 C93.77318711 7.96689285 93.78246845 6.58210548 93.78996086 5.19730949 C93.80041578 3.31580941 93.81753338 1.43434979 93.83505249 -0.44709778 C93.84667954 -2.0288969 93.84667954 -2.0288969 93.85854149 -3.64265156 C94 -6 94 -6 95 -7 C96.52386231 -7.10358779 98.05246986 -7.13851138 99.57983398 -7.14526367 C100.55431992 -7.15164352 101.52880585 -7.15802338 102.53282166 -7.16459656 C104.12339134 -7.16626579 104.12339134 -7.16626579 105.74609375 -7.16796875 C106.82754166 -7.17129715 107.90898956 -7.17462555 109.02320862 -7.17805481 C111.31567966 -7.18312877 113.60815812 -7.18546299 115.90063477 -7.18530273 C119.41890567 -7.18748845 122.93686281 -7.20563728 126.45507812 -7.22460938 C128.67708225 -7.22754328 130.89908788 -7.22952809 133.12109375 -7.23046875 C134.17944931 -7.23765427 135.23780487 -7.24483978 136.32823181 -7.25224304 C137.3058699 -7.24916641 138.283508 -7.24608978 139.29077148 -7.24291992 C140.58530495 -7.24505745 140.58530495 -7.24505745 141.9059906 -7.24723816 C144 -7 144 -7 146 -5 C146.25726891 -2.02149868 146.25726891 -2.02149868 146.26742554 1.88368225 C146.27195665 2.6002688 146.27648776 3.31685535 146.28115618 4.05515665 C146.29386955 6.46920873 146.29217529 8.88303718 146.29052734 11.29711914 C146.29650899 13.02350659 146.30331369 14.74989136 146.31088257 16.47627258 C146.32860442 21.17963914 146.33324103 25.88293298 146.33451414 30.5863297 C146.33593483 33.52962644 146.34020326 36.47290467 146.34550858 39.41619682 C146.36404166 49.69975838 146.37217664 59.98326801 146.37060547 70.2668457 C146.36940886 79.82330259 146.39040791 89.37953186 146.4220928 98.93593127 C146.44836411 107.15528829 146.45896797 115.37457162 146.45769465 123.59397024 C146.45718743 128.49567642 146.46273423 133.39718123 146.48405075 138.29884529 C146.50361198 142.92412145 146.50343718 147.54900824 146.48901749 152.17429924 C146.486949 153.85873874 146.49151103 155.54320371 146.5037384 157.2276001 C146.60179268 171.69000427 144.21163819 184.50713721 139 198 C138.67 198.99 138.34 199.98 138 201 C137.34 201 136.68 201 136 201 C135.6596875 202.0828125 135.6596875 202.0828125 135.3125 203.1875 C131.79086282 210.73386538 123.38410376 215.71317333 116 219 C111.37367449 220.01421204 106.70873641 220.51362655 102 221 C101.22527344 221.08636719 100.45054687 221.17273438 99.65234375 221.26171875 C94.47709156 221.55089469 89.62762801 220.38061399 84.625 219.1875 C83.92197754 219.02233887 83.21895508 218.85717773 82.49462891 218.68701172 C78.85098709 217.74987374 76.38507889 216.96327983 74 214 C73.278125 213.5875 72.55625 213.175 71.8125 212.75 C66.07275437 209.17860272 61.18168469 205.02845521 58 199 C57.484375 198.54625 56.96875 198.0925 56.4375 197.625 C54.21406941 195.11155672 53.78592302 192.2041477 53 189 C52.34 189 51.68 189 51 189 C50.74347656 188.47535156 50.48695313 187.95070313 50.22265625 187.41015625 C47.36219676 181.62181904 44.39078832 175.89597837 41.375 170.1875 C40.79890991 169.09417358 40.79890991 169.09417358 40.21118164 167.97875977 C38.23710728 164.25375984 36.20795553 160.59346343 34 157 C30 150.32441472 30 150.32441472 30 148 C29.34 147.67 28.68 147.34 28 147 C27.28050817 145.35544725 26.63028587 143.68076231 26 142 C25.36754654 140.45279626 24.72062519 138.91145958 24.0625 137.375 C23.74410156 136.61960937 23.42570313 135.86421875 23.09765625 135.0859375 C22.1164521 132.96279155 22.1164521 132.96279155 20.48828125 131.51953125 C18.61296123 129.60483443 18.01832659 127.8304161 17.125 125.3125 C15.52710718 121.0903755 13.56079439 117.55025148 11.0859375 113.79296875 C9.59760872 111.33562015 8.88999411 108.72560696 8 106 C5.91253347 101.91234777 3.59695797 97.96748361 1.1875 94.0625 C0 92 0 92 0 90 C-0.66 89.67 -1.32 89.34 -2 89 C-2.66666667 87 -3.33333333 85 -4 83 C-6.80589489 76.53807268 -6.80589489 76.53807268 -11 71 C-11.69269149 69.41550327 -12.33270129 67.8075833 -12.9375 66.1875 C-14.343129 62.53918203 -15.92396689 59.32165297 -18 56 C-18 55.34 -18 54.68 -18 54 C-18.99 53.505 -18.99 53.505 -20 53 C-21 51 -22 49 -23 47 C-23.99 46.505 -23.99 46.505 -25 46 C-24.835 46.8559375 -24.67 47.711875 -24.5 48.59375 C-24.00312065 51.97874054 -23.93729213 55.08242123 -24 58.5 C-24.04666197 63.7150994 -23.93631832 68.88001445 -23.65282154 74.08684635 C-22.8577806 88.75496991 -22.83614084 103.41171355 -22.83203125 118.09765625 C-22.83060265 119.45282955 -22.82900559 120.80800268 -22.82724571 122.16317558 C-22.81808519 129.22996312 -22.813901 136.29673211 -22.81469727 143.36352539 C-22.81530302 149.92361272 -22.80463094 156.48361917 -22.7889536 163.04368597 C-22.77588314 168.71720069 -22.77051281 174.3906888 -22.77115268 180.06421846 C-22.7714068 183.43600541 -22.76859947 186.8077193 -22.75797462 190.17949104 C-22.74820813 193.91929138 -22.75103715 197.65887807 -22.75708008 201.39868164 C-22.75146057 202.50563385 -22.74584106 203.61258606 -22.74005127 204.75308228 C-22.74424576 205.77151718 -22.74844025 206.78995209 -22.75276184 207.83924866 C-22.75221707 208.72048432 -22.75167231 209.60171999 -22.75111103 210.50965977 C-23 213 -23 213 -25 218 C-41.83 218 -58.66 218 -76 218 C-77.12504339 207.87460953 -77.12504339 207.87460953 -77.12698364 202.83155823 C-77.12980347 201.69034012 -77.13262329 200.54912201 -77.13552856 199.37332153 C-77.13350433 198.14999115 -77.1314801 196.92666077 -77.12939453 195.66625977 C-77.13114685 194.3540596 -77.13289917 193.04185944 -77.13470459 191.68989563 C-77.13924272 188.10560587 -77.13750133 184.5213451 -77.1343255 180.93705487 C-77.13176993 177.14398455 -77.13414948 173.3509165 -77.13571167 169.55784607 C-77.13752965 163.16331547 -77.13514259 156.76879642 -77.13037109 150.37426758 C-77.12498747 143.07717234 -77.12664901 135.78010532 -77.1321975 128.48301083 C-77.13680997 122.15453469 -77.13733868 115.82606681 -77.13475883 109.49758953 C-77.13323227 105.74744297 -77.13289727 101.99730939 -77.13629532 98.24716377 C-77.14785199 83.12053542 -77.07269864 67.99395132 -76.7275846 52.87076366 C-76.69593745 51.41705999 -76.6686487 49.96325324 -76.64625382 48.5093776 C-76.3797861 32.03978628 -73.05956663 15.03897924 -61.6875 2.4375 C-44.60851581 -13.05274148 -18.59087302 -13.05032559 0 0 Z " fill="#0072BD" transform="translate(848,240)"/>
<path d="M0 0 C0.97898726 0.00054477 1.95797453 0.00108953 2.96662807 0.00165081 C4.08913464 -0.00254368 5.2116412 -0.00673817 6.36816311 -0.01105976 C7.60596523 -0.00544025 8.84376736 0.00017925 10.11907864 0.00596905 C11.41854931 0.0040707 12.71801998 0.00217236 14.05686855 0.00021648 C17.63220414 -0.00464438 21.20741548 0.00304486 24.78273606 0.01316953 C28.53575354 0.02195761 32.2887672 0.02019225 36.04179287 0.01980877 C42.36119564 0.02074686 48.68055056 0.02944027 54.99993801 0.04307842 C62.26598614 0.05870357 69.53198149 0.06408007 76.79804522 0.06334287 C84.56572886 0.06266161 92.3333926 0.0696464 100.10107017 0.07878947 C102.31888167 0.0809024 104.53668988 0.08162819 106.7545023 0.08202839 C148.04182245 0.09647523 148.04182245 0.09647523 159.86492825 2.87388897 C160.96937283 3.12513531 160.96937283 3.12513531 162.09612942 3.38145733 C169.55296625 5.22453038 176.0397405 8.41911197 182.67742825 12.24888897 C183.53723293 12.70134991 184.39703762 13.15381084 185.282897 13.61998272 C197.13981952 21.68578483 202.95379674 38.87199826 205.67742825 52.24888897 C206.14072501 55.30797538 206.46948319 58.37206277 206.76751614 61.45128155 C206.8523705 62.32110826 206.93722486 63.19093496 207.02465057 64.08712006 C207.88721351 73.57983864 208.02429384 83.0470718 208.048522 92.57310772 C208.05753545 94.45761446 208.06665771 96.34212067 208.075881 98.2266264 C208.09219944 102.14511609 208.10003955 106.06352212 208.10296535 109.98204327 C208.10727022 113.9429275 208.12813694 117.90316088 208.16448879 121.8638792 C208.54946583 164.56766237 208.54946583 164.56766237 202.67742825 185.24888897 C202.47664669 185.96692699 202.27586514 186.68496502 202.06899929 187.42476177 C201.61376051 189.03526521 201.14715816 190.6425523 200.67742825 192.24888897 C200.01742825 192.24888897 199.35742825 192.24888897 198.67742825 192.24888897 C198.40930325 193.11513897 198.14117825 193.98138897 197.86492825 194.87388897 C196.70630837 198.16680861 195.29532986 201.16016771 193.67742825 204.24888897 C193.01742825 204.24888897 192.35742825 204.24888897 191.67742825 204.24888897 C191.67742825 204.90888897 191.67742825 205.56888897 191.67742825 206.24888897 C175.49605192 222.92309909 154.4951239 224.94453698 132.39310741 225.30200863 C123.62467212 225.3816049 114.85618381 225.36729145 106.08751655 225.35028291 C102.26523982 225.34395514 98.44296197 225.34343822 94.62068081 225.3422575 C87.4105486 225.33917159 80.20043188 225.33099583 72.99030644 225.32090801 C64.76999821 225.30966089 56.54968917 225.30421493 48.32937515 225.29921257 C31.44538384 225.28881036 14.56140803 225.27126501 -2.32257175 225.24888897 C-4.9946648 221.30874726 -4.60082521 217.03495179 -4.57653904 212.46724224 C-4.57965902 211.57093771 -4.582779 210.67463317 -4.58599353 209.75116789 C-4.59398382 206.74171546 -4.58764587 203.73246408 -4.58136082 200.72301006 C-4.58407018 198.56805586 -4.5876308 196.41310257 -4.59198093 194.25815105 C-4.6011126 188.40097939 -4.59755774 182.54387804 -4.59122276 176.68670511 C-4.58616811 170.56571764 -4.5908526 164.44473629 -4.59399509 158.32374859 C-4.59763575 148.04585467 -4.59283245 137.76798947 -4.58331394 127.49009991 C-4.57242343 115.59306107 -4.57595892 103.69609074 -4.58696675 91.79905355 C-4.5960299 81.59689698 -4.59732985 71.39476109 -4.59208941 61.1926018 C-4.5889651 55.09372148 -4.58857311 48.99487341 -4.59516239 42.89599514 C-4.60092131 37.16524628 -4.59696574 31.43458616 -4.58537388 25.70384693 C-4.58271973 23.59546017 -4.58350516 21.48706599 -4.58789921 19.37868214 C-4.59332628 16.51120857 -4.58655534 13.64402337 -4.57653904 10.77656841 C-4.58100048 9.9330049 -4.58546193 9.08944138 -4.59005857 8.22031534 C-4.53728744 0.48621998 -4.53728744 0.48621998 0 0 Z M48.67742825 50.24888897 C48.67742825 91.82888897 48.67742825 133.40888897 48.67742825 176.24888897 C62.12492825 176.31076397 75.57242825 176.37263897 89.42742825 176.43638897 C95.76333157 176.47735699 95.76333157 176.47735699 102.22723293 176.51915264 C106.06038969 176.52919464 106.06038969 176.52919464 109.89355373 176.53522015 C111.58221728 176.53978439 113.27087193 176.5502459 114.9594717 176.56561565 C130.73628011 176.84605654 130.73628011 176.84605654 145.67742825 172.24888897 C145.67742825 171.58888897 145.67742825 170.92888897 145.67742825 170.24888897 C146.33742825 170.24888897 146.99742825 170.24888897 147.67742825 170.24888897 C153.34538007 163.34107268 153.98079963 155.2402062 153.95208645 146.56724834 C153.95975285 145.34338169 153.95975285 145.34338169 153.96757412 144.09479046 C153.98134907 141.42732972 153.9805229 138.7601308 153.9782095 136.09263897 C153.98210237 134.22134081 153.98643825 132.35004353 153.99119473 130.47874737 C153.9986304 126.56860258 153.99838445 122.65854814 153.99310207 118.74840069 C153.9873034 113.75533433 154.00426102 108.76263843 154.02744675 103.76963329 C154.04222578 99.90900315 154.04305025 96.04846146 154.03993702 92.18780804 C154.04044788 90.34753974 154.04564118 88.50726618 154.05574894 86.66702557 C154.06818086 84.08795285 154.06128231 81.50959218 154.0497427 78.93052959 C154.05738644 78.18221371 154.06503017 77.43389782 154.07290554 76.66290569 C154.01802484 71.07204755 152.63314497 66.45686313 150.67742825 61.24888897 C150.36805325 60.25888897 150.05867825 59.26888897 149.73992825 58.24888897 C149.38930325 57.58888897 149.03867825 56.92888897 148.67742825 56.24888897 C146.65279569 55.59675605 146.65279569 55.59675605 144.67742825 55.24888897 C144.18242825 53.76388897 144.18242825 53.76388897 143.67742825 52.24888897 C138.76982981 49.95418009 134.12191758 49.97491843 128.82635403 50.02183819 C127.50199243 50.02147658 127.50199243 50.02147658 126.15087605 50.02110767 C123.30805986 50.02259409 120.46550969 50.03779598 117.62274075 50.05357647 C115.86159294 50.05651899 114.10044339 50.05855814 112.33929348 50.05967999 C105.8269783 50.07014313 99.31470063 50.09806566 92.80242825 50.12388897 C78.24117825 50.16513897 63.67992825 50.20638897 48.67742825 50.24888897 Z " fill="#0072BD" transform="translate(1476.3225717544556,232.7511110305786)"/>
<path d="M0 0 C1.16554064 -0.00233999 1.16554064 -0.00233999 2.35462755 -0.00472724 C4.96637217 -0.00872576 7.57805899 -0.00555203 10.18980408 -0.00241089 C12.05889927 -0.00376543 13.9279942 -0.00554566 15.79708862 -0.00772095 C20.87953443 -0.01228871 25.96196 -0.01050849 31.04440618 -0.00734186 C36.35527811 -0.00481526 41.66614827 -0.00715661 46.97702026 -0.00872803 C55.89560763 -0.01054868 64.81418672 -0.00814596 73.73277283 -0.00338745 C84.05574298 0.00205663 94.3786934 0.00029103 104.70166308 -0.00521386 C113.55348793 -0.00974595 122.40530683 -0.01039511 131.25713247 -0.00777519 C136.54894836 -0.00621316 141.84075496 -0.00601666 147.13257027 -0.00931168 C152.10570644 -0.01219184 157.07881705 -0.010212 162.05195045 -0.00441742 C163.88136503 -0.00309068 165.71078173 -0.00348249 167.54019547 -0.00568008 C170.02886092 -0.00839489 172.51744341 -0.00500638 175.00610352 0 C175.73751165 -0.00223072 176.46891978 -0.00446144 177.2224918 -0.00675976 C182.21125955 0.01283345 182.21125955 0.01283345 184.43955994 1.12698364 C184.43955994 16.96698364 184.43955994 32.80698364 184.43955994 49.12698364 C181.03448681 50.26200802 178.44735282 50.24714592 174.85679626 50.24050903 C174.19311539 50.24065506 173.52943451 50.24080109 172.84564209 50.24095154 C170.65425842 50.24025546 168.46295999 50.23247734 166.27159119 50.22463989 C164.75130256 50.22277463 163.23101332 50.22135124 161.71072388 50.22035217 C157.71091551 50.21653552 153.7111435 50.20671249 149.71134949 50.19564819 C145.62922152 50.18541577 141.54708766 50.18085063 137.46495056 50.17581177 C129.45647034 50.16508947 121.44801966 50.14802326 113.43955994 50.12698364 C113.60156387 51.28328278 113.76356781 52.43958191 113.93048096 53.63092041 C114.71506168 60.75478606 114.58750327 67.90722362 114.58482361 75.06399536 C114.58781986 76.66634702 114.59122346 78.26869796 114.59500122 79.87104797 C114.60379126 84.19909471 114.60617703 88.52712165 114.60681701 92.85517645 C114.60752957 95.56002983 114.60966764 98.26487823 114.61231422 100.96973038 C114.62154627 110.40724252 114.6256512 119.84474057 114.62486267 129.28225708 C114.62426025 138.08073935 114.63484972 146.87916063 114.65060633 155.67762744 C114.66366349 163.23788106 114.66904744 170.79811467 114.66840726 178.35837948 C114.66815203 182.87159001 114.67101799 187.38474611 114.68158531 191.8979454 C114.69123728 196.13495324 114.69136557 200.37185422 114.68406868 204.60886574 C114.68301969 206.16534518 114.68540426 207.72183119 114.69142914 209.27829933 C114.69910688 211.3985507 114.69453291 213.51842898 114.6867981 215.63867188 C114.68734286 216.82623518 114.68788763 218.01379848 114.68844891 219.23734856 C114.43955994 222.12698364 114.43955994 222.12698364 112.43955994 225.12698364 C110.2696228 225.49447632 110.2696228 225.49447632 107.54673767 225.48342896 C106.02021828 225.4879306 106.02021828 225.4879306 104.46286011 225.49252319 C103.36075699 225.48017639 102.25865387 225.46782959 101.12315369 225.45510864 C99.99635696 225.45323547 98.86956024 225.4513623 97.70861816 225.44943237 C95.32373603 225.44270128 92.93886513 225.42876602 90.55406189 225.40823364 C86.888838 225.37708374 83.22404366 225.36726533 79.55870056 225.36135864 C77.24684632 225.35218903 74.93499648 225.34181339 72.62315369 225.33010864 C71.51902634 225.32585876 70.41489899 225.32160889 69.27731323 225.31723022 C67.75552208 225.30281891 67.75552208 225.30281891 66.20298767 225.28811646 C65.30523117 225.28128845 64.40747467 225.27446045 63.48251343 225.26742554 C61.43955994 225.12698364 61.43955994 225.12698364 60.43955994 224.12698364 C60.34251352 221.88673721 60.31769338 219.6433631 60.31930542 217.40101624 C60.318451 216.6896237 60.31759657 215.97823116 60.31671625 215.24528128 C60.31505937 212.84376316 60.32058619 210.44231376 60.32603455 208.040802 C60.3263164 206.3263906 60.32615872 204.61197908 60.32559204 202.89756775 C60.32530399 198.22834391 60.3312019 193.55914553 60.338166 188.88992763 C60.34439832 184.01586837 60.34500324 179.1418086 60.34619141 174.26774597 C60.34930508 165.03128935 60.35751895 155.79484449 60.3675409 146.55839306 C60.37870091 136.04587499 60.3842122 125.53335637 60.38923633 115.02083385 C60.39970154 93.38954387 60.41730168 71.75826449 60.43955994 50.12698364 C59.12744286 50.13031456 59.12744286 50.13031456 57.78881836 50.13371277 C49.56280647 50.15371342 41.3368027 50.16895662 33.11077213 50.17879581 C28.88124623 50.1840242 24.65174034 50.19112104 20.42222595 50.2024231 C16.34387451 50.21325356 12.26554237 50.21926081 8.18717766 50.22186089 C6.62778354 50.22371485 5.06839053 50.22733492 3.50900459 50.2327137 C1.33226832 50.23992626 -0.84438721 50.2409745 -3.02113342 50.24050903 C-4.88311623 50.24383995 -4.88311623 50.24383995 -6.78271484 50.24723816 C-9.56044006 50.12698364 -9.56044006 50.12698364 -10.56044006 49.12698364 C-10.65355896 47.62279625 -10.67790034 46.11427008 -10.67396545 44.60720825 C-10.67388992 43.64628769 -10.67381439 42.68536713 -10.67373657 41.69532776 C-10.66857529 40.65054764 -10.663414 39.60576752 -10.65809631 38.52932739 C-10.65668137 37.46533218 -10.65526642 36.40133698 -10.65380859 35.30509949 C-10.6481907 31.89153281 -10.63563517 28.47803065 -10.62294006 25.06448364 C-10.61792737 22.75654188 -10.61336406 20.44859909 -10.60926819 18.14065552 C-10.59821546 12.46940938 -10.58145993 6.79820112 -10.56044006 1.12698364 C-6.97811727 -0.06712396 -3.7276667 -0.01140379 0 0 Z " fill="#0072BD" transform="translate(1228.5604400634766,232.87301635742188)"/>
<path d="M0 0 C1.16554064 -0.00233999 1.16554064 -0.00233999 2.35462755 -0.00472724 C4.96637217 -0.00872576 7.57805899 -0.00555203 10.18980408 -0.00241089 C12.05889927 -0.00376543 13.9279942 -0.00554566 15.79708862 -0.00772095 C20.87953443 -0.01228871 25.96196 -0.01050849 31.04440618 -0.00734186 C36.35527811 -0.00481526 41.66614827 -0.00715661 46.97702026 -0.00872803 C55.89560763 -0.01054868 64.81418672 -0.00814596 73.73277283 -0.00338745 C84.05574298 0.00205663 94.3786934 0.00029103 104.70166308 -0.00521386 C113.55348793 -0.00974595 122.40530683 -0.01039511 131.25713247 -0.00777519 C136.54894836 -0.00621316 141.84075496 -0.00601666 147.13257027 -0.00931168 C152.10570644 -0.01219184 157.07881705 -0.010212 162.05195045 -0.00441742 C163.88136503 -0.00309068 165.71078173 -0.00348249 167.54019547 -0.00568008 C170.02886092 -0.00839489 172.51744341 -0.00500638 175.00610352 0 C175.73751165 -0.00223072 176.46891978 -0.00446144 177.2224918 -0.00675976 C182.21125955 0.01283345 182.21125955 0.01283345 184.43955994 1.12698364 C185.76365305 9.58274282 185.59280573 18.13177365 185.56993103 26.67019653 C185.56451708 29.0835889 185.56993216 31.49679965 185.57627869 33.91018677 C185.57561878 35.44990072 185.57433943 36.98961456 185.57237244 38.52932739 C185.57439667 39.24805527 185.5764209 39.96678314 185.57850647 40.70729065 C185.56396493 43.78993543 185.42234046 46.17864209 184.43955994 49.12698364 C180.16619092 49.9419811 176.13934614 50.24896766 171.79161072 50.24050903 C170.49071503 50.2404335 169.18981934 50.24035797 167.84950256 50.24028015 C166.44462546 50.23517466 165.03974875 50.22995868 163.63487244 50.22463989 C162.18613229 50.22277287 160.73739152 50.22135031 159.28865051 50.22035217 C155.49109631 50.21654938 151.69358085 50.20673838 147.89604187 50.19564819 C144.01471989 50.18538579 140.1333916 50.18084424 136.25205994 50.17581177 C128.64787568 50.16511394 121.04372325 50.14806462 113.43955994 50.12698364 C113.44140352 51.01066022 113.44324711 51.8943368 113.44514656 52.80479145 C113.48927609 74.28638257 113.52239237 95.7679659 113.54318428 117.24959278 C113.55350581 127.63785744 113.56758287 138.02609189 113.59043884 148.41433716 C113.6103459 157.46657493 113.62326999 166.51879082 113.62773693 175.57104987 C113.63034886 180.36609237 113.6365062 185.16107227 113.65102005 189.95609474 C113.66456159 194.46629067 113.66878955 198.976398 113.6657753 203.48661232 C113.666327 205.14467856 113.67032482 206.80274766 113.67797089 208.46079636 C113.68787859 210.71945253 113.68554426 212.97777143 113.68006897 215.23643494 C113.68191256 216.5020567 113.68375614 217.76767847 113.68565559 219.07165241 C113.43955994 222.12698364 113.43955994 222.12698364 111.43955994 225.12698364 C109.26289368 225.48774719 109.26289368 225.48774719 106.53086853 225.46755981 C104.9995076 225.46721992 104.9995076 225.46721992 103.43721008 225.46687317 C102.33196991 225.45138931 101.22672974 225.43590546 100.08799744 225.41995239 C98.95882904 225.41570755 97.82966064 225.41146271 96.66627502 225.40708923 C93.04879721 225.39025496 89.43187024 225.35259339 85.81455994 225.31448364 C83.3666513 225.29944298 80.91873395 225.2857535 78.47080994 225.27346802 C72.46020434 225.24033591 66.44992148 225.19008943 60.43955994 225.12698364 C59.69853414 220.49297506 59.31412176 216.05196179 59.31257629 211.3609314 C59.31023631 210.39579986 59.31023631 210.39579986 59.30784905 209.41117072 C59.30389001 207.2750766 59.30700884 205.13905474 59.31016541 203.00296021 C59.30880905 201.46314452 59.3070278 199.92332916 59.30485535 198.3835144 C59.3003074 194.2138937 59.30206013 190.04429782 59.30523443 185.8746767 C59.30777349 181.49961088 59.30541602 177.12454712 59.30384827 172.7494812 C59.30203032 165.39907451 59.30442227 158.04867787 59.30918884 150.69827271 C59.31462264 142.22151768 59.31287372 133.74478675 59.30736244 125.26803231 C59.30281097 117.97351001 59.30219094 110.67899492 59.30480111 103.38447165 C59.30635375 99.03531484 59.30658571 94.68616931 59.30326462 90.33701324 C59.30035658 86.242845 59.30241503 82.1487075 59.30815887 78.05454254 C59.30947119 76.55947928 59.30911864 75.06441339 59.30689621 73.5693512 C59.2958436 65.3725275 59.4989878 57.27835195 60.43955994 49.12698364 C59.44955994 49.62198364 59.44955994 49.62198364 58.43955994 50.12698364 C56.32610444 50.22384764 54.2095304 50.25495145 52.09385681 50.25637817 C51.11800377 50.25900665 51.11800377 50.25900665 50.12243652 50.26168823 C47.96770068 50.26609662 45.81304664 50.26317233 43.65830994 50.25979614 C42.16380294 50.26046947 40.66929605 50.26143974 39.17478943 50.26269531 C36.0408677 50.26417091 32.90697445 50.26202215 29.77305603 50.25735474 C25.75112898 50.25165752 21.72926866 50.25493726 17.70734406 50.2609272 C14.62076818 50.26453653 11.53420818 50.26339251 8.44763184 50.26079941 C6.9644266 50.26013117 5.48121993 50.26095498 3.99801636 50.26327896 C1.9270596 50.26581156 -0.14378831 50.26195631 -2.21473694 50.25637817 C-3.98439819 50.25518478 -3.98439819 50.25518478 -5.78981018 50.25396729 C-8.56044006 50.12698364 -8.56044006 50.12698364 -10.56044006 49.12698364 C-10.56044006 33.28698364 -10.56044006 17.44698364 -10.56044006 1.12698364 C-6.97811727 -0.06712396 -3.7276667 -0.01140379 0 0 Z " fill="#0072BD" transform="translate(1019.5604400634766,232.87301635742188)"/>
<path d="M0 0 C0.77632153 -0.00226556 1.55264305 -0.00453111 2.35248947 -0.00686532 C4.961896 -0.01321122 7.57125066 -0.01237559 10.18066406 -0.0115509 C12.04813708 -0.01454198 13.91560948 -0.01794439 15.78308105 -0.02172852 C20.86145857 -0.03057682 25.93981925 -0.03290695 31.01820374 -0.0335443 C35.25307265 -0.03449263 39.48793762 -0.03816996 43.72280502 -0.0417164 C53.71006215 -0.04986372 63.69731025 -0.05230034 73.68457031 -0.05158997 C83.99958312 -0.05098873 94.31454371 -0.06154896 104.6295433 -0.07733363 C113.47628908 -0.09039088 122.32301775 -0.09577465 131.1697731 -0.09513456 C136.45772384 -0.09487908 141.74562816 -0.09775758 147.03356934 -0.10831261 C152.00426618 -0.11796337 156.97487193 -0.11809364 161.9455719 -0.11079597 C163.77295565 -0.10974643 165.60034499 -0.11213476 167.42771912 -0.11815643 C169.91611404 -0.12582723 172.4041905 -0.12126445 174.89257812 -0.11352539 C175.62107342 -0.11866895 176.34956871 -0.12381252 177.10013962 -0.12911195 C180.77745275 -0.10371852 182.29820607 0.03499077 185.44628906 2.13371277 C185.81378174 4.10710144 185.81378174 4.10710144 185.80273438 6.55168152 C185.80723602 7.92320374 185.80723602 7.92320374 185.81182861 9.32243347 C185.79330841 10.80682922 185.79330841 10.80682922 185.77441406 12.32121277 C185.77254089 13.33465759 185.77066772 14.34810242 185.76873779 15.39225769 C185.76200742 17.53755476 185.74807352 19.68283936 185.72753906 21.82804871 C185.69641722 25.12015628 185.68657296 28.41178527 185.68066406 31.70402527 C185.67149307 33.7847603 185.66111699 35.86549044 185.64941406 37.94621277 C185.64516418 38.93580994 185.64091431 39.9254071 185.63653564 40.94499207 C185.6269281 41.85934021 185.61732056 42.77368835 185.60742188 43.71574402 C185.59717987 44.92581116 185.59717987 44.92581116 185.58673096 46.1603241 C185.44628906 48.13371277 185.44628906 48.13371277 184.44628906 50.13371277 C161.01628906 50.13371277 137.58628906 50.13371277 113.44628906 50.13371277 C113.45152588 55.39945251 113.4567627 60.66519226 113.4621582 66.09049988 C113.47868903 83.44108092 113.48980907 100.79166226 113.49810123 118.14224911 C113.50326471 128.66732115 113.51030837 139.19238574 113.52172852 149.717453 C113.5316738 158.88759874 113.53814212 168.05773909 113.54037756 177.22789007 C113.54168493 182.08656421 113.54477245 186.94522293 113.55201912 191.80389214 C113.55877688 196.37151851 113.56090653 200.93912302 113.55939674 205.50675392 C113.55967318 207.18823236 113.56167975 208.86971148 113.56549454 210.55118561 C113.57042799 212.83673291 113.56928866 215.12219635 113.56654358 217.40774536 C113.56746537 218.6899594 113.56838717 219.97217344 113.56933689 221.29324245 C113.44628906 224.13371277 113.44628906 224.13371277 112.44628906 225.13371277 C110.89275966 225.26673326 109.33340365 225.33255412 107.7746582 225.37077332 C106.78015152 225.39717392 105.78564484 225.42357452 104.76100159 225.45077515 C103.67874802 225.47376175 102.59649445 225.49674835 101.48144531 225.52043152 C99.82597939 225.55871819 99.82597939 225.55871819 98.1370697 225.59777832 C95.79757275 225.64989207 93.45801437 225.69930601 91.1184082 225.7462616 C87.52748928 225.82082447 83.93720423 225.91144568 80.34667969 226.00285339 C78.07912248 226.0513673 75.81154458 226.0989253 73.54394531 226.14543152 C72.46371597 226.17449081 71.38348663 226.20355011 70.27052307 226.23348999 C69.27286423 226.25043411 68.27520538 226.26737823 67.24731445 226.28483582 C66.36652725 226.30402573 65.48574005 226.32321564 64.57826233 226.34298706 C62.44628906 226.13371277 62.44628906 226.13371277 60.44628906 224.13371277 C60.20019341 221.17019463 60.20019341 221.17019463 60.20578003 217.28749084 C60.20407118 216.57524388 60.20236233 215.86299692 60.2006017 215.12916672 C60.19729439 212.73067897 60.20833067 210.33246792 60.21923828 207.93400574 C60.21980213 206.21944689 60.21948635 204.50488755 60.21835327 202.79032898 C60.21777772 198.12526494 60.22956466 193.46030304 60.24350119 188.79526281 C60.25597494 183.92388262 60.25717639 179.05250027 60.259552 174.18110657 C60.26577666 164.95174943 60.28220078 155.72243948 60.30225098 146.49310315 C60.32457935 135.9878219 60.33559569 125.48253843 60.34564185 114.97723937 C60.36656618 93.36270413 60.40176126 71.74821142 60.44628906 50.13371277 C59.58629303 50.13593338 58.726297 50.13815399 57.84024048 50.14044189 C49.74698552 50.16045502 41.65373884 50.17569214 33.56046486 50.18552494 C29.39934867 50.19074996 25.23825288 50.19784072 21.07714844 50.20915222 C17.06363092 50.21999461 13.05013305 50.22599248 9.03660202 50.22859001 C7.50315415 50.23044181 5.96970739 50.23405777 4.43626785 50.23944283 C2.29326274 50.24667117 0.1503395 50.24770295 -1.99267578 50.24723816 C-3.82468033 50.25056908 -3.82468033 50.25056908 -5.69369507 50.25396729 C-8.55371094 50.13371277 -8.55371094 50.13371277 -10.55371094 49.13371277 C-10.55371094 33.29371277 -10.55371094 17.45371277 -10.55371094 1.13371277 C-6.97426421 -0.05943614 -3.72489139 -0.0079182 0 0 Z " fill="#0072BD" transform="translate(1932.5537109375,232.8662872314453)"/>
<path d="" fill="#0072BD" transform="translate(0,0)"/>
<path d="" fill="#0072BD" transform="translate(0,0)"/>
</svg>
