<?xml version="1.0" encoding="UTF-8"?>
<svg version="1.1" xmlns="http://www.w3.org/2000/svg" width="842" height="595">
<path d="M0 0 C10.43341129 2.23733712 21.14401384 4.79030568 30.6875 9.65234375 C35.44200489 12.01093644 39.16864913 11.98764082 44.40625 11.78515625 C60.22330044 11.74676535 75.3362501 18.68622996 86.66503906 29.50024414 C98.4866419 41.49231137 104.46018108 57.27243816 105 73.90234375 C104.7104139 91.82048389 97.91999184 106.73784548 85.625 119.77734375 C83.35699471 121.6922713 81.15780634 123.21454835 78.625 124.77734375 C79.97608361 127.86744586 81.41517933 129.74644528 84 131.90234375 C84.58523438 132.39992188 85.17046875 132.8975 85.7734375 133.41015625 C89.04840052 135.82837789 90.74019901 136.87943617 94.875 136.40234375 C95.7825 136.19609375 96.69 135.98984375 97.625 135.77734375 C97.95411401 141.74153183 96.81495493 146.65541011 95.0625 152.33984375 C94.79655029 153.21302246 94.53060059 154.08620117 94.2565918 154.98583984 C88.09257749 174.46562542 88.09257749 174.46562542 81.625 178.77734375 C76.33847764 179.80886031 72.78862876 177.69653591 68.4609375 174.921875 C60.11852218 168.61335433 53.17133465 160.73696878 46.75 152.52734375 C46.29012695 151.94025635 45.83025391 151.35316895 45.35644531 150.74829102 C43.42256179 148.24194124 41.61744538 145.76514013 39.94921875 143.0703125 C35.21044814 135.68664666 28.51939773 134.46972817 20.51220703 132.32470703 C6.53027935 128.26940537 -5.14833913 117.04382546 -12.1640625 104.60546875 C-16.58443653 95.5034178 -19.31010924 86.59173049 -19.625 76.46484375 C-19.91754426 72.43713613 -20.30720077 70.10136402 -23.125 67.15234375 C-24.51146527 65.99032675 -25.9335666 64.87043075 -27.375 63.77734375 C-28.84453125 62.57271484 -28.84453125 62.57271484 -30.34375 61.34375 C-37.01980053 55.96659633 -43.7815981 51.764649 -51.375 47.77734375 C-34.87731484 98.45325213 -5.90286956 181.68320384 44.20703125 208.140625 C45.7050744 208.80615306 47.21794073 209.44046642 48.75 210.0234375 C50.625 210.77734375 50.625 210.77734375 53.625 212.77734375 C43.03179405 221.38432358 28.46985815 231.10284905 14.5625 232.40234375 C-2.0514808 229.76520394 -15.87447327 210.63018447 -25.30859375 197.83984375 C-34.50649343 185.13176503 -42.95211347 171.89510512 -50.66967773 158.24023438 C-55.28724182 150.07511842 -60.12702865 142.81954875 -66.375 135.77734375 C-67.25095182 134.73735976 -68.12317943 133.69423063 -68.9921875 132.6484375 C-71.75277312 129.32863358 -74.55234392 126.04448932 -77.375 122.77734375 C-78.04402344 122.00124756 -78.04402344 122.00124756 -78.7265625 121.20947266 C-87.89239784 110.66005179 -98.49756124 99.66914488 -111.375 93.77734375 C-112.365 93.77734375 -113.355 93.77734375 -114.375 93.77734375 C-99.34537191 139.384039 -72.27862076 211.86920794 -26.375 235.77734375 C-26.375 236.43734375 -26.375 237.09734375 -26.375 237.77734375 C-53.20631632 235.50177642 -77.45251062 227.81108363 -95.67578125 207.0703125 C-118.31219979 179.90153672 -140.7007529 140.37379132 -138.5703125 103.85449219 C-137.10875508 88.310829 -131.43718887 73.29646219 -124.3125 59.52734375 C-123.99635742 58.90706299 -123.68021484 58.28678223 -123.35449219 57.64770508 C-121.25205103 53.75926712 -119.11695388 51.14763049 -115.375 48.77734375 C-108.72133881 47.15586329 -103.22337246 49.34040802 -97.40625 52.48828125 C-95.375 53.77734375 -95.375 53.77734375 -93.375 55.77734375 C-93.53613281 54.6790625 -93.69726562 53.58078125 -93.86328125 52.44921875 C-94.5032219 47.30704077 -94.55885983 42.20367209 -94.5625 37.02734375 C-94.57474609 36.09535156 -94.58699219 35.16335937 -94.59960938 34.203125 C-94.60154297 33.30464844 -94.60347656 32.40617187 -94.60546875 31.48046875 C-94.60957764 30.67254883 -94.61368652 29.86462891 -94.61791992 29.03222656 C-94.34425945 26.4919973 -93.72917804 24.93576233 -92.375 22.77734375 C-90.3741837 21.21429783 -88.45594813 19.86260652 -86.3125 18.52734375 C-85.70124268 18.1411084 -85.08998535 17.75487305 -84.46020508 17.35693359 C-77.09293801 12.82280388 -69.31372904 9.18786773 -61.375 5.77734375 C-60.48683594 5.39320313 -59.59867187 5.0090625 -58.68359375 4.61328125 C-51.70580513 1.94199902 -45.02578749 1.4410806 -37.94921875 4.03125 C-28.97871367 8.25670103 -21.41111597 13.74122778 -14.375 20.77734375 C-14.24544922 19.13185547 -14.24544922 19.13185547 -14.11328125 17.453125 C-13.97251928 15.99858469 -13.83052705 14.54416308 -13.6875 13.08984375 C-13.63400391 12.36861328 -13.58050781 11.64738281 -13.52539062 10.90429688 C-13.10513543 6.9027365 -12.59039079 5.05892423 -10.07421875 1.76953125 C-6.26034062 -1.04534263 -4.53152956 -0.6464818 0 0 Z " fill="#0086C1" transform="translate(175.375,173.22265625)"/>
<path d="M0 0 C5.56329342 2.01360978 10.0595727 4.54881253 14 9 C15.09326172 11.49511719 15.09326172 11.49511719 15.9296875 14.296875 C16.24679688 15.32989746 16.56390625 16.36291992 16.890625 17.42724609 C17.37789062 19.07200928 17.37789062 19.07200928 17.875 20.75 C18.57789335 23.02952219 19.28362175 25.30817213 19.9921875 27.5859375 C20.33475586 28.69163086 20.67732422 29.79732422 21.03027344 30.93652344 C25.14856697 43.94668136 30.63324131 56.46848226 36 69 C46.95553253 69 58.86830624 63.58047952 68 58 C70.98357998 56.65028525 72.70334304 56 76 56 C76.27972656 56.58563721 76.55945313 57.17127441 76.84765625 57.7746582 C82.83913293 70.23322115 89.18397399 82.37386985 96.25 94.25 C96.89839844 95.34223877 97.54679688 96.43447754 98.21484375 97.55981445 C120.24063307 135.45065412 120.24063307 135.45065412 154.125 161.24609375 C156 162 156 162 159 164 C148.40679405 172.60697983 133.84485815 182.3255053 119.9375 183.625 C103.3235192 180.98786019 89.50052673 161.85284072 80.06640625 149.0625 C70.86850657 136.35442128 62.42288653 123.11776137 54.70532227 109.46289062 C50.08775818 101.29777467 45.24797135 94.042205 39 87 C38.12404818 85.96001601 37.25182057 84.91688688 36.3828125 83.87109375 C33.62222688 80.55128983 30.82265608 77.26714557 28 74 C27.33097656 73.22390381 27.33097656 73.22390381 26.6484375 72.43212891 C17.48260216 61.88270804 6.87743876 50.89180113 -6 45 C-6.99 45 -7.98 45 -9 45 C6.02962809 90.60669525 33.09637924 163.09186419 79 187 C79 187.66 79 188.32 79 189 C52.16868368 186.72443267 27.92248938 179.03373988 9.69921875 158.29296875 C-12.93719979 131.12419297 -35.3257529 91.59644757 -33.1953125 55.07714844 C-31.73375508 39.53348525 -26.06218887 24.51911844 -18.9375 10.75 C-18.62135742 10.12971924 -18.30521484 9.50943848 -17.97949219 8.87036133 C-13.63809309 0.84099935 -8.78395348 -1.48729748 0 0 Z " fill="#0080B8" transform="translate(70,222)"/>
<path d="M0 0 C12.23161711 10.31179801 20.89951839 25.37376774 22.5703125 41.41796875 C24.02597817 60.87909904 18.57075554 76.98823365 5.9609375 91.95703125 C2.55708872 95.46099323 -1.18153245 98.03779677 -5.4296875 100.41796875 C-30.70453504 73.73111855 -53.08095384 32.80149268 -54.0234375 -4.26953125 C-53.26193085 -8.51793678 -51.79094982 -9.95483771 -48.4296875 -12.58203125 C-33.25908746 -18.49943547 -12.00832736 -9.43211002 0 0 Z " fill="#B4891D" transform="translate(257.4296875,198.58203125)"/>
<path d="M0 0 C1.42284474 4.26853423 0.91673735 8.30701488 0.7421875 12.7734375 C0.96467395 22.99109551 4.83334335 33.2232283 8.0625 42.8125 C8.6495874 44.55901855 8.6495874 44.55901855 9.24853516 46.34082031 C13.28394842 58.13516728 17.92173765 69.61887549 23 81 C23.42506836 81.95326172 23.85013672 82.90652344 24.28808594 83.88867188 C38.25224436 114.84308174 61.89372479 165.76658863 95 181 C95 181.66 95 182.32 95 183 C68.16868368 180.72443267 43.92248938 173.03373988 25.69921875 152.29296875 C3.06280021 125.12419297 -19.3257529 85.59644757 -17.1953125 49.07714844 C-15.54932128 31.57203178 -8.72353983 15.07262504 0 0 Z " fill="#0081BB" transform="translate(54,228)"/>
<path d="M0 0 C1.27297026 2.54594051 0.72651707 3.3115196 0 6 C-1.30852148 20.11381202 0.68477532 32.63226352 5 46 C5.31114746 47.00272949 5.62229492 48.00545898 5.94287109 49.03857422 C11.03731141 65.43421837 17.15738914 81.13789769 24.13305664 96.81469727 C25 99 25 99 25 101 C24.05125 101.391875 23.1025 101.78375 22.125 102.1875 C19.0926852 103.47836494 16.1764361 104.92285895 13.25 106.4375 C5.73091737 110.22556591 -1.95204176 113.0051871 -10.22265625 114.60546875 C-12.09242234 114.94506059 -12.09242234 114.94506059 -14 116 C-21.74740353 98.88308033 -28.35730027 81.50359226 -33.9375 63.5625 C-34.32728027 62.31186768 -34.71706055 61.06123535 -35.11865234 59.77270508 C-37.88221798 50.74403152 -39.18099516 42.79401246 -39.1875 33.375 C-39.19974609 32.43398437 -39.21199219 31.49296875 -39.22460938 30.5234375 C-39.22750977 29.1621875 -39.22750977 29.1621875 -39.23046875 27.7734375 C-39.23457764 26.95278809 -39.23868652 26.13213867 -39.24291992 25.28662109 C-38.97115284 22.72845979 -38.3656368 21.1714725 -37 19 C-34.99924134 17.43699911 -33.08077494 16.08541152 -30.9375 14.75 C-30.32841797 14.36448975 -29.71933594 13.97897949 -29.09179688 13.58178711 C-20.02178508 7.9929518 -10.18407625 3.16661121 0 0 Z " fill="#C5E4F8" transform="translate(120,177)"/>
<path d="M0 0 C9.63937059 3.47846066 17.47558562 9.10049461 25 16 C25.70640625 16.52335937 26.4128125 17.04671875 27.140625 17.5859375 C30.17728044 21.52848595 30.64055825 26.13001943 31.625 30.9375 C39.15513099 64.65487365 52.68179559 95.77387811 71.78442383 124.42651367 C72.60269653 125.66171753 72.60269653 125.66171753 73.4375 126.921875 C74.17806641 128.02934082 74.17806641 128.02934082 74.93359375 129.15917969 C76 131 76 131 76 133 C58.0663528 129.97568671 44.36586085 122.47307112 33.0390625 107.984375 C26.02817788 97.72323352 22.13519882 86.07549411 21.75 73.6875 C21.45745574 69.65979238 21.06779923 67.32402027 18.25 64.375 C16.86376069 63.21271346 15.4417134 62.09271767 14 61 C13.03191406 60.20851562 12.06382812 59.41703125 11.06640625 58.6015625 C5.7075895 54.28767001 0.70705608 50.8028367 -5.5625 47.875 C-9.73270499 45.49517364 -11.74128004 43.50541636 -13.24731445 38.87109375 C-16.05013672 27.74147992 -17.80898764 11.67527043 -13 1 C-8.89910619 -1.05044691 -4.44170767 -0.63225265 0 0 Z " fill="#00537A" transform="translate(134,176)"/>
<path d="M0 0 C5.56354371 2.00287573 10.06291722 4.55259057 14 9 C15.09326172 11.49511719 15.09326172 11.49511719 15.9296875 14.296875 C16.24655518 15.3293335 16.56342285 16.36179199 16.88989258 17.42553711 C17.21497803 18.52260986 17.54006348 19.61968262 17.875 20.75 C18.58192409 23.03859968 19.29155594 25.32636473 20.00390625 27.61328125 C20.34695801 28.72010254 20.69000977 29.82692383 21.04345703 30.96728516 C27.44089709 51.25033784 36.15391011 71.25320228 46.09082031 90.03417969 C46.48881836 90.79633789 46.88681641 91.55849609 47.296875 92.34375 C47.65104492 93.00568359 48.00521484 93.66761719 48.37011719 94.34960938 C48.57797852 94.89423828 48.78583984 95.43886719 49 96 C48.67 96.66 48.34 97.32 48 98 C47.47792969 97.35675781 46.95585938 96.71351563 46.41796875 96.05078125 C40.36819933 88.62365628 34.26264897 81.24884125 28 74 C27.33097656 73.22390381 27.33097656 73.22390381 26.6484375 72.43212891 C17.39362894 61.78030429 5.34307871 48.13780432 -8.640625 44.26953125 C-11 43 -11 43 -12.328125 39.953125 C-12.63234375 38.73109375 -12.9365625 37.5090625 -13.25 36.25 C-13.56453125 35.03828125 -13.8790625 33.8265625 -14.203125 32.578125 C-15.45170643 26.97174954 -16.15595964 21.75296142 -16.1875 16 C-16.20167969 14.824375 -16.21585938 13.64875 -16.23046875 12.4375 C-15.92887327 7.93912673 -15.42164271 4.42769225 -12.1640625 1.15625 C-8.19589667 -0.96392524 -4.36559987 -0.67354969 0 0 Z " fill="#01547B" transform="translate(70,222)"/>
<path d="M0 0 C156.09 0 312.18 0 473 0 C472.67 1.32 472.34 2.64 472 4 C427.21988006 4.01711093 382.43975977 4.03301595 337.65963745 4.04234314 C336.99733692 4.0424812 336.33503639 4.04261925 335.65266615 4.04276149 C321.26059868 4.0457541 306.86853118 4.04852432 292.47646362 4.05106533 C285.41904215 4.05231271 278.36162068 4.05360926 271.30419922 4.05493164 C270.2507274 4.05512778 270.2507274 4.05512778 269.17597332 4.05532788 C246.39410112 4.05959254 223.61223139 4.06710631 200.83036069 4.07629722 C176.76479586 4.08598843 152.69923265 4.09199393 128.63366592 4.09408849 C114.20943276 4.09546376 99.7852067 4.09981454 85.36097573 4.10791647 C75.48304998 4.1131837 65.60512793 4.11480435 55.72720088 4.11350138 C50.01974724 4.11285796 44.31230604 4.11387591 38.60485458 4.11920547 C33.38778433 4.12404183 28.17073499 4.12433707 22.95366381 4.12089889 C21.05862015 4.12047344 19.16357523 4.12176718 17.26853408 4.12488318 C14.70774983 4.12885161 12.14704271 4.12676055 9.58625984 4.12304783 C8.83747151 4.12567484 8.08868318 4.12830186 7.3172043 4.13100848 C2.2282916 4.1141458 2.2282916 4.1141458 0 3 C0 2.01 0 1.02 0 0 Z " fill="#545152" transform="translate(330,300)"/>
<path d="M0 0 C1.84376314 3.40834283 3.03826297 6.9056716 4.25 10.58203125 C4.69227866 11.90924166 5.1352602 13.236218 5.57885742 14.56298828 C5.92598282 15.60329193 5.92598282 15.60329193 6.28012085 16.66461182 C14.6984564 41.78222141 25.07301123 64.36040117 39.78442383 86.42651367 C40.60269653 87.66171753 40.60269653 87.66171753 41.4375 88.921875 C41.93121094 89.66018555 42.42492187 90.39849609 42.93359375 91.15917969 C44 93 44 93 44 95 C26.0663528 91.97568671 12.36586085 84.47307112 1.0390625 69.984375 C-9.68208888 54.29288141 -11.93646869 37.27514539 -8.49414062 18.9050293 C-7.11473038 12.49248811 -4.73198543 4.73198543 0 0 Z " fill="#AA7F13" transform="translate(166,214)"/>
<path d="M0 0 C0 0.99 0 1.98 0 3 C0.33197674 6.73473827 0.71540951 8.63779392 3.0625 11.625 C6.21420323 17.1150637 5.74972346 23.20690758 4.5390625 29.33203125 C4.09575704 30.90929921 3.55990551 32.46025984 3 34 C3.61875 33.505 4.2375 33.01 4.875 32.5 C7 31 7 31 9 31 C8.8125 34.3125 8.8125 34.3125 8 38 C6.36067932 39.04422482 4.68935083 40.03881763 3 41 C1.52307498 42.43980303 0.08599306 43.92140058 -1.3125 45.4375 C-6.08693833 50.33946923 -10.4947946 52.8315982 -17 55 C-16.67 55.99 -16.34 56.98 -16 58 C-16.66 58 -17.32 58 -18 58 C-19.61929015 53.94337158 -21.21750616 49.87873602 -22.8125 45.8125 C-23.26431641 44.68134766 -23.71613281 43.55019531 -24.18164062 42.38476562 C-28.14389288 32.23330182 -31.40535705 21.97858193 -31.5 11 C-31.5309375 9.783125 -31.561875 8.56625 -31.59375 7.3125 C-30.83224335 3.06409447 -29.36126232 1.62719354 -26 -1 C-18.07595015 -4.12390427 -8.01164262 -1.5417594 0 0 Z M5 39 C5.33 39.66 5.66 40.32 6 41 C4.02 43.31 2.04 45.62 0 48 C0 43.61031544 2.12805101 42.23094261 5 39 Z " fill="#F4EAC9" transform="translate(235,187)"/>
<path d="M0 0 C3.33303003 -0.1174875 6.66551837 -0.18767324 10 -0.25 C10.93457031 -0.28351563 11.86914062 -0.31703125 12.83203125 -0.3515625 C19.0010349 -0.43784227 23.94310312 0.23901216 29 4 C31.68699595 8.03049393 31.92676952 11.26405067 31 16 C29.33249461 18.71609007 27.31975503 20.83048817 25 23 C24.34 23.66 23.68 24.32 23 25 C31.19783175 35.46558436 31.19783175 35.46558436 42 43 C44.56471962 40.43528038 44.24759745 38.73178658 44.27789307 35.23477173 C44.2738446 34.44831268 44.26979614 33.66185364 44.265625 32.8515625 C44.26753845 32.04262543 44.2694519 31.23368835 44.27142334 30.40023804 C44.27278557 28.6870696 44.26908649 26.97389085 44.26074219 25.26074219 C44.25007067 22.64234071 44.26062164 20.02462967 44.2734375 17.40625 C44.27211537 15.74218599 44.26955186 14.0781224 44.265625 12.4140625 C44.26967346 11.63165192 44.27372192 10.84924133 44.27789307 10.04312134 C44.24231496 5.90077306 43.90013315 3.80026629 42 0 C46.95 0 51.9 0 57 0 C56.67 1.32 56.34 2.64 56 4 C55.90450556 6.86267119 55.85992675 9.70010185 55.8671875 12.5625 C55.86623077 13.39080322 55.86527405 14.21910645 55.86428833 15.07250977 C55.86360894 16.82080156 55.8654464 18.56909589 55.86962891 20.31738281 C55.87498056 22.99029212 55.86967576 25.6630334 55.86328125 28.3359375 C55.86394207 30.0364587 55.86522333 31.7369798 55.8671875 33.4375 C55.86516327 34.23551025 55.86313904 35.03352051 55.86105347 35.85571289 C55.87602873 39.40729137 56.04364237 42.58300463 57 46 C53.12506384 46.05834395 49.25024164 46.09371201 45.375 46.125 C44.28058594 46.14175781 43.18617188 46.15851563 42.05859375 46.17578125 C29.54874257 46.25159853 29.54874257 46.25159853 24.62109375 41.8984375 C20.22454463 36.81763119 16.34786747 31.83176914 13 26 C12.94616152 28.45862401 12.90640962 30.9160755 12.875 33.375 C12.85824219 34.07367188 12.84148438 34.77234375 12.82421875 35.4921875 C12.80655733 37.32897486 12.89696739 39.16601963 13 41 C13.66 41.66 14.32 42.32 15 43 C15 43.99 15 44.98 15 46 C10.05 46 5.1 46 0 46 C1 42 1 42 2 40 C2.08683445 37.22839374 2.1155579 34.48225235 2.09765625 31.7109375 C2.0962413 30.89251373 2.09482635 30.07408997 2.09336853 29.23086548 C2.0877629 26.61220675 2.07520948 23.99363296 2.0625 21.375 C2.05748572 19.60156373 2.05292269 17.82812613 2.04882812 16.0546875 C2.03779164 11.70309218 2.02052325 7.3515605 2 3 C1.34 3 0.68 3 0 3 C0 2.01 0 1.02 0 0 Z M12 7 C12 11.29 12 15.58 12 20 C17.63808115 19.4820835 17.63808115 19.4820835 20.4375 17.375 C22.35403147 14.95981491 22.35403147 14.95981491 21.875 11.3125 C21.58625 10.219375 21.2975 9.12625 21 8 C18.04335481 6.5216774 15.25770263 6.93967217 12 7 Z " fill="#3E3A3B" transform="translate(654,237)"/>
<path d="M0 0 C4.62 0 9.24 0 14 0 C14.37511719 1.02738281 14.75023437 2.05476562 15.13671875 3.11328125 C18.12531472 11.22938955 21.26125453 19.19164662 25 27 C29.21735778 18.19206693 32.65430679 9.16329035 36 0 C40.62 0 45.24 0 50 0 C49.34 1.65 48.68 3.3 48 5 C48.17192425 7.93845682 48.45599992 10.68574959 48.8984375 13.58203125 C49.01224762 14.39621017 49.12605774 15.2103891 49.24331665 16.04924011 C49.6082033 18.63892825 49.99131877 21.22553653 50.375 23.8125 C50.62620864 25.5720935 50.87622226 27.33185804 51.125 29.09179688 C51.73617176 33.39663601 52.36370063 37.69880622 53 42 C53.66 42 54.32 42 55 42 C55 43.32 55 44.64 55 46 C50.05 46 45.1 46 40 46 C40.33 44.68 40.66 43.36 41 42 C41.66 42 42.32 42 43 42 C41.68 33.42 40.36 24.84 39 16 C38.21753906 17.99804688 37.43507813 19.99609375 36.62890625 22.0546875 C35.87123605 23.98755526 35.11324597 25.92029728 34.35522461 27.85302734 C33.82819686 29.19729708 33.30150226 30.54169748 32.77514648 31.88623047 C32.01894071 33.81772684 31.26154186 35.74875162 30.50390625 37.6796875 C30.04830322 38.84226074 29.5927002 40.00483398 29.12329102 41.20263672 C28 44 28 44 27 46 C22.54055924 44.0888111 19.75435419 41.62129856 17.69140625 37.1875 C17.31886719 36.135625 16.94632813 35.08375 16.5625 34 C14.22250574 27.58318345 11.66282289 21.28879447 9 15 C8.49418146 18.39499304 7.99637756 21.79111482 7.5 25.1875 C7.28537109 26.62706055 7.28537109 26.62706055 7.06640625 28.09570312 C6.86337891 29.49272461 6.86337891 29.49272461 6.65625 30.91796875 C6.53056641 31.77156982 6.40488281 32.6251709 6.27539062 33.50463867 C5.77569816 38.03243712 6.09431099 41.47155496 7 46 C3.04 46 -0.92 46 -5 46 C-4 41 -4 41 -3.00439453 37.65405273 C-1.98144891 33.93250992 -1.40620121 30.36314975 -0.9296875 26.53515625 C-0.84373322 25.85698349 -0.75777893 25.17881073 -0.66921997 24.48008728 C-0.39934837 22.34149759 -0.13704617 20.20206114 0.125 18.0625 C0.30809126 16.60084843 0.49168047 15.13925914 0.67578125 13.67773438 C1.12294025 10.11919058 1.56332205 6.55984696 2 3 C1.34 3 0.68 3 0 3 C0 2.01 0 1.02 0 0 Z " fill="#3B3738" transform="translate(548,237)"/>
<path d="M0 0 C4.33533531 -1.12484376 7.67654293 -1.2545746 12 0 C16.67221727 3.7861071 20.05790947 8.97869677 23.49121094 13.86132812 C25.27155549 16.38492331 27.13268452 18.83800784 29.01220703 21.28808594 C30.69820786 23.50780764 32.34554311 25.75666863 34 28 C34 20.08 34 12.16 34 4 C33.34 3.67 32.68 3.34 32 3 C32 2.01 32 1.02 32 0 C36.62 0 41.24 0 46 0 C46 0.99 46 1.98 46 3 C45.34 3 44.68 3 44 3 C43.67 17.85 43.34 32.7 43 48 C35.20516411 46.44103282 31.31242721 41.78573374 26.8125 35.48828125 C23.91786746 31.51439994 20.83594699 27.68813572 17.78222656 23.8359375 C15.75709719 21.27219477 13.81337727 18.7200659 12 16 C11.94214353 19.95827235 11.90645283 23.9164367 11.875 27.875 C11.85824219 29.00292969 11.84148437 30.13085938 11.82421875 31.29296875 C11.81455078 32.90751953 11.81455078 32.90751953 11.8046875 34.5546875 C11.78897705 36.04718018 11.78897705 36.04718018 11.77294922 37.56982422 C11.75620599 40.18171417 11.75620599 40.18171417 14 42 C14 43.32 14 44.64 14 46 C9.38 46 4.76 46 0 46 C1 42 1 42 3 39 C3.20725504 36.50501771 3.30405934 34.12432693 3.30078125 31.62890625 C3.30506638 30.9101683 3.3093515 30.19143036 3.31376648 29.45091248 C3.3195045 27.93204806 3.32001391 26.41315616 3.31567383 24.89428711 C3.31251596 22.57422836 3.33596998 20.25544779 3.36132812 17.93554688 C3.36360145 16.45833494 3.36430446 14.98111958 3.36328125 13.50390625 C3.372491 12.81212784 3.38170074 12.12034943 3.39118958 11.40760803 C3.35137857 7.24869368 2.76415682 5.09854168 0 2 C0 1.34 0 0.68 0 0 Z " fill="#343132" transform="translate(451,317)"/>
<path d="M0 0 C6.34174113 3.66503221 10.8765874 8.67144669 13.15234375 15.703125 C14.27351891 21.81086017 13.56170811 27.82195477 10.5 33.25 C5.83927049 39.74838857 -0.22518341 43.56199333 -7.93359375 45.52734375 C-15.99224592 46.84740378 -22.66590965 44.27669598 -29.4375 39.9375 C-34.4793202 34.8956798 -37.04988542 28.81364581 -37.75 21.8125 C-37.17361723 14.66535369 -34.9659745 8.90539988 -29.625 4 C-20.84145197 -2.82092375 -10.36161475 -4.74255177 0 0 Z M-24.4375 9.9375 C-27.72124766 15.54545866 -27.85984431 20.74014266 -26.4375 26.9375 C-24.38768113 32.26702907 -21.55797147 35.37726427 -16.4375 37.9375 C-11.69768474 38.51575746 -8.31752177 38.41010429 -4.0625 36.125 C1.11634775 31.88244178 1.11634775 31.88244178 2.80078125 25.51953125 C2.97085137 19.17323029 2.62926343 14.03594973 -1.4375 8.9375 C-4.84758558 5.8900058 -7.86437144 5.01937551 -12.375 4.375 C-17.21606974 4.67638956 -20.9954471 6.5428148 -24.4375 9.9375 Z " fill="#3B3839" transform="translate(519.4375,238.0625)"/>
<path d="M0 0 C6.48444436 4.45960829 10.04766637 10.10629387 11.7890625 17.65234375 C12.27046334 24.87335638 10.68391624 30.75319731 6.0390625 36.40234375 C0.63360805 42.28347819 -5.46055451 45.12005349 -13.47265625 45.53125 C-20.74409977 45.15455041 -27.65132775 42.72562958 -32.8515625 37.50390625 C-37.362485 31.78861124 -39.5332757 26.14978445 -39.3359375 18.8359375 C-38.25614064 11.8285058 -34.43869332 5.8360032 -28.828125 1.5859375 C-20.13714739 -3.92319684 -9.27608307 -4.73923517 0 0 Z M-25.7734375 9.96484375 C-28.86796068 13.99072827 -29.22845756 18.44535435 -28.9609375 23.40234375 C-27.19168924 29.39812951 -24.1773652 33.07320645 -19.1484375 36.71484375 C-15.01492249 38.01394847 -11.04976706 38.16907682 -6.9921875 36.6796875 C-2.96039743 34.56983126 -0.91552504 32.43762126 1.0390625 28.40234375 C1.9732274 22.32248719 2.04086887 16.21395224 -1.0859375 10.77734375 C-3.57759287 7.45980261 -5.95088308 5.68556116 -9.9609375 4.40234375 C-16.78795547 3.67087754 -20.75796026 5.39518671 -25.7734375 9.96484375 Z " fill="#3C3839" transform="translate(404.9609375,238.59765625)"/>
<path d="M0 0 C4.26883147 -0.93869592 7.74679467 -1.09919858 12 0 C15.88044379 3.51011098 18.6475285 7.53528861 21.54541016 11.86816406 C24.11940079 15.64058537 26.92400553 19.24054637 29.6875 22.875 C31.46295361 25.24659131 33.23137188 27.6233095 35 30 C35.02899599 26.22918278 35.04679729 22.45839417 35.0625 18.6875 C35.07506836 17.0797168 35.07506836 17.0797168 35.08789062 15.43945312 C35.09111328 14.41142578 35.09433594 13.38339844 35.09765625 12.32421875 C35.10289307 11.37635498 35.10812988 10.42849121 35.11352539 9.4519043 C35.10498854 6.86161319 35.10498854 6.86161319 34 4 C33.34 3.67 32.68 3.34 32 3 C32 2.01 32 1.02 32 0 C36.62 0 41.24 0 46 0 C46 0.99 46 1.98 46 3 C45.34 3.33 44.68 3.66 44 4 C43.67 18.52 43.34 33.04 43 48 C34.63375775 45.21125258 31.16098852 41.25493887 26.1875 34.375 C25.13538173 32.94437974 24.08199384 31.51469234 23.02734375 30.0859375 C22.5154248 29.39081055 22.00350586 28.69568359 21.47607422 27.97949219 C18.43075541 23.89556151 15.21399358 19.95170926 12 16 C11.94215292 20.12494151 11.90645593 24.24977944 11.875 28.375 C11.85824219 29.550625 11.84148438 30.72625 11.82421875 31.9375 C11.81455078 33.61972656 11.81455078 33.61972656 11.8046875 35.3359375 C11.78897705 36.89127197 11.78897705 36.89127197 11.77294922 38.47802734 C11.74384974 41.17108623 11.74384974 41.17108623 14 43 C14 43.99 14 44.98 14 46 C9.38 46 4.76 46 0 46 C1 42 1 42 3 39 C3.20725504 36.50501771 3.30405934 34.12432693 3.30078125 31.62890625 C3.30506638 30.9101683 3.3093515 30.19143036 3.31376648 29.45091248 C3.3195045 27.93204806 3.32001391 26.41315616 3.31567383 24.89428711 C3.31251596 22.57422836 3.33596998 20.25544779 3.36132812 17.93554688 C3.36360145 16.45833494 3.36430446 14.98111958 3.36328125 13.50390625 C3.372491 12.81212784 3.38170074 12.12034943 3.39118958 11.40760803 C3.35137857 7.24869368 2.76415682 5.09854168 0 2 C0 1.34 0 0.68 0 0 Z " fill="#393636" transform="translate(719,237)"/>
<path d="M0 0 C5.28 0 10.56 0 16 0 C15.34 1.32 14.68 2.64 14 4 C12.95023036 7.14930893 12.89868405 9.38814456 12.9375 12.6875 C12.94652344 13.68136719 12.95554687 14.67523438 12.96484375 15.69921875 C12.97644531 16.45847656 12.98804688 17.21773438 13 18 C14.48075386 15.87609042 15.95966056 13.75093595 17.4375 11.625 C17.85837891 11.02171875 18.27925781 10.4184375 18.71289062 9.796875 C21.0220743 6.49925179 21.0220743 6.49925179 23 3 C22.34 3 21.68 3 21 3 C21 2.01 21 1.02 21 0 C25.62 0 30.24 0 35 0 C34.07953221 3.68187117 33.47677928 5.01978283 31.27734375 7.890625 C30.73916016 8.59960938 30.20097656 9.30859375 29.64648438 10.0390625 C29.08251953 10.76867187 28.51855469 11.49828125 27.9375 12.25 C27.08575195 13.36761719 27.08575195 13.36761719 26.21679688 14.5078125 C24.81687317 16.34300661 23.41116779 18.17344687 22 20 C28.8274446 31.46271579 28.8274446 31.46271579 38.4375 40.3125 C39.283125 40.869375 40.12875 41.42625 41 42 C41 43.32 41 44.64 41 46 C35.15883137 46.30742993 31.23299698 45.96207376 26 43 C24.06342357 41.01376776 22.59387402 39.23498535 21 37 C20.31164062 36.06414062 19.62328125 35.12828125 18.9140625 34.1640625 C16.9278562 31.45306513 14.95842481 28.73110358 13 26 C12.64631979 33.12600133 13.04328652 38.47059106 16 45 C15 46 15 46 11.83984375 46.09765625 C10.55207031 46.08605469 9.26429688 46.07445312 7.9375 46.0625 C6.64714844 46.05347656 5.35679687 46.04445313 4.02734375 46.03515625 C3.02832031 46.02355469 2.02929688 46.01195312 1 46 C1 42 1 42 2 41 C2.08858646 38.26105915 2.11523479 35.5474673 2.09765625 32.80859375 C2.0962413 31.98875504 2.09482635 31.16891632 2.09336853 30.32423401 C2.08775289 27.69528618 2.07519779 25.06642227 2.0625 22.4375 C2.05748701 20.65950643 2.05292376 18.88151154 2.04882812 17.10351562 C2.03777839 12.73564455 2.02050331 8.36783652 2 4 C1.34 3.67 0.68 3.34 0 3 C0 2.01 0 1.02 0 0 Z " fill="#3F3B3C" transform="translate(330,317)"/>
<path d="M0 0 C4.95 0 9.9 0 15 0 C15 0.99 15 1.98 15 3 C14.34 3 13.68 3 13 3 C13 7.95 13 12.9 13 18 C14.48075386 15.87609042 15.95966056 13.75093595 17.4375 11.625 C17.85837891 11.02171875 18.27925781 10.4184375 18.71289062 9.796875 C21.0220743 6.49925179 21.0220743 6.49925179 23 3 C22.34 3 21.68 3 21 3 C21 2.01 21 1.02 21 0 C25.62 0 30.24 0 35 0 C34.04628013 3.81487949 33.45129675 5.01008935 31.05859375 7.890625 C30.47529297 8.59960938 29.89199219 9.30859375 29.29101562 10.0390625 C28.67935547 10.76867187 28.06769531 11.49828125 27.4375 12.25 C26.51420898 13.36761719 26.51420898 13.36761719 25.57226562 14.5078125 C24.05416536 16.34365468 22.52997563 18.17405355 21 20 C21.38671875 20.51079102 21.7734375 21.02158203 22.171875 21.54785156 C25.199055 25.56223693 28.13407153 29.61828646 31 33.75 C34.01848153 37.95265505 36.61970059 40.37182035 41 43 C41 43.99 41 44.98 41 46 C35.50582597 46.28916705 30.59640088 46.39901913 26 43 C21.09472099 37.79439778 16.77514418 32.07305802 13 26 C12.94581674 28.08304538 12.90712449 30.16649768 12.875 32.25 C12.85179687 33.41015625 12.82859375 34.5703125 12.8046875 35.765625 C12.99374054 38.89634337 13.50373246 40.33735067 15 43 C15 43.99 15 44.98 15 46 C10.05 46 5.1 46 0 46 C1 42 1 42 2 41 C2.08858646 38.26105915 2.11523479 35.5474673 2.09765625 32.80859375 C2.0962413 31.98875504 2.09482635 31.16891632 2.09336853 30.32423401 C2.08775289 27.69528618 2.07519779 25.06642227 2.0625 22.4375 C2.05748701 20.65950643 2.05292376 18.88151154 2.04882812 17.10351562 C2.03777839 12.73564455 2.02050331 8.36783652 2 4 C1.34 3.67 0.68 3.34 0 3 C0 2.01 0 1.02 0 0 Z " fill="#3E3A3B" transform="translate(421,237)"/>
<path d="M0 0 C3.96 0 7.92 0 12 0 C16.10706232 7.72980125 19.12620403 15.84920631 22.21826172 24.02392578 C22.92032676 25.87517305 23.63194971 27.72278655 24.34375 29.5703125 C24.75818359 30.66102051 25.17261719 31.75172852 25.59960938 32.87548828 C26.94151707 36.10165346 26.94151707 36.10165346 29.10351562 39.15185547 C31 42 31 42 32 46 C26.72 46 21.44 46 16 46 C16.33 44.68 16.66 43.36 17 42 C17 38.41936487 16.65592475 36.52512014 15.5 33.25 C15.005 31.8475 14.51 30.445 14 29 C9.38 29.33 4.76 29.66 0 30 C-2.68902652 36.02341941 -3.27170568 39.525862 -2 46 C-6.62 46 -11.24 46 -16 46 C-16 42 -16 42 -14.68017578 40.64941406 C-14.12571777 40.10510742 -13.57125977 39.56080078 -13 39 C-11.9662386 36.90416466 -11.01527544 34.76683333 -10.1171875 32.609375 C-9.85745148 31.98653625 -9.59771545 31.36369751 -9.33010864 30.72198486 C-8.78357878 29.40554769 -8.24084105 28.08753058 -7.70166016 26.76806641 C-6.88162318 24.76616869 -6.04527181 22.77167622 -5.20703125 20.77734375 C-4.67608058 19.49260145 -4.14610129 18.20745719 -3.6171875 16.921875 C-3.13878418 15.76268555 -2.66038086 14.60349609 -2.16748047 13.40917969 C-0.63665304 8.93898432 0 4.71673166 0 0 Z M6 11 C4.68 14.63 3.36 18.26 2 22 C4.97 22 7.94 22 11 22 C10.54917531 20.53932801 10.08906463 19.08151968 9.625 17.625 C9.36976563 16.81289062 9.11453125 16.00078125 8.8515625 15.1640625 C8.10145717 12.83540815 8.10145717 12.83540815 6 11 Z " fill="#383435" transform="translate(620,237)"/>
<path d="M0 0 C8.58 0 17.16 0 26 0 C26 3.3 26 6.6 26 10 C25.175 9.690625 24.35 9.38125 23.5 9.0625 C19.60873845 7.88122417 16.03833047 7.41775832 12 7 C12 10.3 12 13.6 12 17 C13.629375 16.979375 15.25875 16.95875 16.9375 16.9375 C18.62499341 16.91613932 20.31391034 16.92794489 22 17 C23 18 23 18 23.09765625 19.84765625 C23.06510417 21.8984375 23.03255208 23.94921875 23 26 C19.37 25.67 15.74 25.34 12 25 C12 29.29 12 33.58 12 38 C13.876875 37.896875 15.75375 37.79375 17.6875 37.6875 C18.74324219 37.62949219 19.79898438 37.57148438 20.88671875 37.51171875 C24.24294101 36.96006867 26.18132333 35.84127215 29 34 C29.66 34 30.32 34 31 34 C31.19491883 38.19075475 30.93330576 41.24079436 29 45 C26.23382437 46.38308781 23.98982 46.11210196 20.8984375 46.09765625 C19.08085938 46.09282227 19.08085938 46.09282227 17.2265625 46.08789062 C15.95554687 46.07951172 14.68453125 46.07113281 13.375 46.0625 C12.09625 46.05798828 10.8175 46.05347656 9.5 46.04882812 C6.33328708 46.03701203 3.16666644 46.02053815 0 46 C0.91717949 41.28307692 0.91717949 41.28307692 1.55200195 39.11328125 C2.58605517 34.23548033 2.18588691 29.07539454 2.18530273 24.10058594 C2.18749272 22.00695571 2.20568002 19.91384987 2.22460938 17.8203125 C2.2275431 16.48437679 2.22952804 15.1484386 2.23046875 13.8125 C2.23457764 12.60207031 2.23868652 11.39164063 2.24291992 10.14453125 C2.00801555 7.10375912 1.45521149 5.60114098 0 3 C0 2.01 0 1.02 0 0 Z " fill="#2F2B2C" transform="translate(772,237)"/>
<path d="M0 0 C1.42284474 4.26853423 0.91673735 8.30701488 0.7421875 12.7734375 C0.98445538 23.43188578 5.14345939 33.97041097 8.5625 43.9375 C8.96146484 45.11634766 9.36042969 46.29519531 9.77148438 47.50976562 C10.50962387 49.6896801 11.25025265 51.86875473 11.99438477 54.04663086 C13.00915425 57.02688491 14.00743279 60.01228649 15 63 C12.37780428 64.00900158 11.28948419 64.11416951 8.6328125 63.06640625 C-2.73267511 56.25065434 -6.87385442 47.42906258 -10.96484375 35.08984375 C-14.09379672 22.5232921 -6.17337639 10.5297661 0 0 Z " fill="#6EC3EE" transform="translate(54,228)"/>
<path d="M0 0 C-0.875 7.625 -0.875 7.625 -2 11 C-2.99 11 -3.98 11 -5 11 C-5.33 10.34 -5.66 9.68 -6 9 C-7.89533342 8.53476937 -7.89533342 8.53476937 -10.0625 8.375 C-11.361875 8.25125 -12.66125 8.1275 -14 8 C-13.93104723 12.48459681 -13.84304555 16.96829709 -13.73754883 21.45214844 C-13.7043412 22.9767834 -13.67629622 24.50154006 -13.65356445 26.02636719 C-13.61994042 28.22122954 -13.56762458 30.41498088 -13.51171875 32.609375 C-13.48553467 33.92905273 -13.45935059 35.24873047 -13.43237305 36.60839844 C-12.97837401 40.16963761 -12.26056982 41.342806 -10 44 C-10 44.99 -10 45.98 -10 47 C-15.28 47 -20.56 47 -26 47 C-26 46.01 -26 45.02 -26 44 C-25.01 43.505 -25.01 43.505 -24 43 C-23.67 31.78 -23.34 20.56 -23 9 C-29.31312366 8.7745205 -29.31312366 8.7745205 -34 11 C-34.99 11 -35.98 11 -37 11 C-36.69201674 9.51988629 -36.378482 8.04092675 -36.0625 6.5625 C-35.88847656 5.73878906 -35.71445312 4.91507813 -35.53515625 4.06640625 C-35 2 -35 2 -34 1 C-31.56558709 0.84015137 -29.15618715 0.74068356 -26.71875 0.68359375 C-25.99006714 0.66281265 -25.26138428 0.64203156 -24.51062012 0.62062073 C-22.17384585 0.55505181 -19.83695536 0.49622349 -17.5 0.4375 C-15.92316501 0.39431898 -14.34634181 0.35070483 -12.76953125 0.30664062 C-1.66656981 0 -1.66656981 0 0 0 Z " fill="#242021" transform="translate(367,236)"/>
<path d="M0 0 C0 0.99 0 1.98 0 3 C0.33197674 6.73473827 0.71540951 8.63779392 3.0625 11.625 C6.21420323 17.1150637 5.74972346 23.20690758 4.5390625 29.33203125 C4.09575704 30.90929921 3.55990551 32.46025984 3 34 C3.61875 33.505 4.2375 33.01 4.875 32.5 C7 31 7 31 9 31 C8.8125 34.3125 8.8125 34.3125 8 38 C6.36067932 39.04422482 4.68935083 40.03881763 3 41 C1.52307498 42.43980303 0.08599306 43.92140058 -1.3125 45.4375 C-6.08693833 50.33946923 -10.4947946 52.8315982 -17 55 C-16.67 55.99 -16.34 56.98 -16 58 C-16.66 58 -17.32 58 -18 58 C-18.99 54.7 -19.98 51.4 -21 48 C-20.05125 47.690625 -19.1025 47.38125 -18.125 47.0625 C-11.70255578 44.23138173 -5.69591309 39.6406278 -2.6953125 33.19921875 C-0.66223239 25.88981169 -0.67186865 18.53486793 -1 11 C-1.8971875 10.566875 -1.8971875 10.566875 -2.8125 10.125 C-5 9 -5 9 -8 7 C-8.33 7.66 -8.66 8.32 -9 9 C-12.59391114 7.66511872 -15.75490696 6.03977277 -19 4 C-18.34 5.32 -17.68 6.64 -17 8 C-23.93 7.505 -23.93 7.505 -31 7 C-30 2 -30 2 -28.1875 0.25 C-19.83822095 -4.5210166 -8.8705496 -1.70704735 0 0 Z M5 39 C5.33 39.66 5.66 40.32 6 41 C4.02 43.31 2.04 45.62 0 48 C0 43.61031544 2.12805101 42.23094261 5 39 Z " fill="#E8CC81" transform="translate(235,187)"/>
<path d="M0 0 C4.95 0 9.9 0 15 0 C15 0.99 15 1.98 15 3 C14.34 3 13.68 3 13 3 C12.67 14.22 12.34 25.44 12 37 C20.24337376 37 23.06175006 36.9213684 30 34 C30.99 34 31.98 34 33 34 C32.32823171 37.80668696 31.39463134 41.39036593 30 45 C27.18175808 46.40912096 24.82748718 46.11183553 21.6796875 46.09765625 C20.42285156 46.09443359 19.16601562 46.09121094 17.87109375 46.08789062 C16.55238281 46.07951172 15.23367188 46.07113281 13.875 46.0625 C12.53515789 46.05748489 11.195314 46.05292201 9.85546875 46.04882812 C6.57026794 46.03701086 3.28515603 46.02053617 0 46 C0.875 42.125 0.875 42.125 2 41 C2.08861992 38.1883662 2.11522355 35.40141745 2.09765625 32.58984375 C2.0962413 31.74780899 2.09482635 30.90577423 2.09336853 30.03822327 C2.08775263 27.33794665 2.07519748 24.63775172 2.0625 21.9375 C2.05748705 20.11132932 2.05292379 18.28515734 2.04882812 16.45898438 C2.03777804 11.97262458 2.02050279 7.48632616 2 3 C1.34 3 0.68 3 0 3 C0 2.01 0 1.02 0 0 Z " fill="#363333" transform="translate(411,317)"/>
<path d="M0 0 C4.84146109 1.46710942 8.55948972 4.3512744 12 8 C12 8.66 12 9.32 12 10 C12.66 10 13.32 10 14 10 C14.81604999 11.9151579 15.62770632 13.83218834 16.4375 15.75 C16.88996094 16.81734375 17.34242188 17.8846875 17.80859375 18.984375 C22.36788261 30.52460779 21.4876366 46.59392364 17 58 C16.34 58 15.68 58 15 58 C-0.44060015 13.49075709 -0.44060015 13.49075709 0 0 Z " fill="#1AB2E8" transform="translate(162,189)"/>
<path d="M0 0 C4.95 0 9.9 0 15 0 C14.67 1.32 14.34 2.64 14 4 C13.90467373 6.77831119 13.85991282 9.53058756 13.8671875 12.30859375 C13.86623077 13.11232925 13.86527405 13.91606476 13.86428833 14.74415588 C13.86360896 16.44117308 13.8654463 18.1381929 13.86962891 19.83520508 C13.87497358 22.42470173 13.86967931 25.0140244 13.86328125 27.60351562 C13.86394221 29.25520871 13.86522375 30.9069017 13.8671875 32.55859375 C13.86516327 33.32956894 13.86313904 34.10054413 13.86105347 34.8948822 C13.87802043 38.81064508 14.22444181 42.12220903 15 46 C10.05 46 5.1 46 0 46 C1 42 1 42 2 41 C2.08858646 38.26105915 2.11523479 35.5474673 2.09765625 32.80859375 C2.0962413 31.98875504 2.09482635 31.16891632 2.09336853 30.32423401 C2.08775289 27.69528618 2.07519779 25.06642227 2.0625 22.4375 C2.05748701 20.65950643 2.05292376 18.88151154 2.04882812 17.10351562 C2.03777839 12.73564455 2.02050331 8.36783652 2 4 C1.34 3.67 0.68 3.34 0 3 C0 2.01 0 1.02 0 0 Z " fill="#2C2829" transform="translate(379,317)"/>
<path d="M0 0 C3.44216672 2.6598561 3.99504674 5.90288286 5 10 C4.05125 10.391875 3.1025 10.78375 2.125 11.1875 C-0.9073148 12.47836494 -3.8235639 13.92285895 -6.75 15.4375 C-14.26908263 19.22556591 -21.95204176 22.0051871 -30.22265625 23.60546875 C-32.09242234 23.94506059 -32.09242234 23.94506059 -34 25 C-34.86366822 23.21289414 -35.71568594 21.4201535 -36.5625 19.625 C-37.03816406 18.62726563 -37.51382813 17.62953125 -38.00390625 16.6015625 C-38.33261719 15.74304688 -38.66132812 14.88453125 -39 14 C-38 12 -38 12 -36.125 11.375 C-34 11 -34 11 -31 11 C-30.401875 10.484375 -29.80375 9.96875 -29.1875 9.4375 C-26.15930108 7.44754071 -24.47869831 8.36105541 -21 9 C-18.42383077 8.16953416 -18.42383077 8.16953416 -16 7 C-14.33333333 6.66666667 -12.66666667 6.33333333 -11 6 C-6.86497085 4.62165695 -3.56599344 2.4879024 0 0 Z " fill="#17B1E7" transform="translate(140,268)"/>
<path d="M0 0 C4.95 0 9.9 0 15 0 C14.34 1.32 13.68 2.64 13 4 C12.76312944 6.92877937 12.62771428 9.77161186 12.5859375 12.703125 C12.56657135 13.54091492 12.5472052 14.37870483 12.5272522 15.24188232 C12.46759276 17.91115213 12.42112587 20.58046539 12.375 23.25 C12.33680764 25.06251854 12.29775518 26.87501918 12.2578125 28.6875 C12.16190248 33.12485415 12.0778212 37.56229325 12 42 C12.99 42.33 13.98 42.66 15 43 C15 43.99 15 44.98 15 46 C10.05 46 5.1 46 0 46 C1 42 1 42 2 40 C2.08683445 37.22839374 2.1155579 34.48225235 2.09765625 31.7109375 C2.0962413 30.89251373 2.09482635 30.07408997 2.09336853 29.23086548 C2.0877629 26.61220675 2.07520948 23.99363296 2.0625 21.375 C2.05748572 19.60156373 2.05292269 17.82812613 2.04882812 16.0546875 C2.03779164 11.70309218 2.02052325 7.3515605 2 3 C1.34 3 0.68 3 0 3 C0 2.01 0 1.02 0 0 Z " fill="#333030" transform="translate(463,237)"/>
<path d="M0 0 C0.33 0.66 0.66 1.32 1 2 C4.96 2 8.92 2 13 2 C12.67 2.66 12.34 3.32 12 4 C11.86453809 6.7245594 11.78732404 9.42233763 11.76171875 12.1484375 C11.753647 12.95737457 11.74557526 13.76631165 11.73725891 14.59976196 C11.7234201 16.31290545 11.71269703 18.02607648 11.70483398 19.73925781 C11.68761211 22.35795324 11.64372521 24.97538894 11.59960938 27.59375 C11.58948311 29.25780321 11.5809668 30.92186716 11.57421875 32.5859375 C11.55671066 33.36834808 11.53920258 34.15075867 11.52116394 34.95687866 C11.53592618 38.66065176 11.67053673 40.58937152 14.02661133 43.52587891 C14.67782959 44.01233887 15.32904785 44.49879883 16 45 C15 46 15 46 11.83984375 46.09765625 C10.55207031 46.08605469 9.26429688 46.07445312 7.9375 46.0625 C6.64714844 46.05347656 5.35679687 46.04445313 4.02734375 46.03515625 C3.02832031 46.02355469 2.02929688 46.01195312 1 46 C1 42 1 42 2 41 C2.08858646 38.26105915 2.11523479 35.5474673 2.09765625 32.80859375 C2.0962413 31.98875504 2.09482635 31.16891632 2.09336853 30.32423401 C2.08775289 27.69528618 2.07519779 25.06642227 2.0625 22.4375 C2.05748701 20.65950643 2.05292376 18.88151154 2.04882812 17.10351562 C2.03777839 12.73564455 2.02050331 8.36783652 2 4 C1.34 3.67 0.68 3.34 0 3 C0 2.01 0 1.02 0 0 Z " fill="#2A2627" transform="translate(330,317)"/>
<path d="M0 0 C4.95 0 9.9 0 15 0 C14.67 1.32 14.34 2.64 14 4 C13.8913807 5.37273678 13.82517402 6.74928691 13.79467773 8.12597656 C13.77473251 8.92650452 13.75478729 9.72703247 13.73423767 10.55181885 C13.70916893 11.83327789 13.70916893 11.83327789 13.68359375 13.140625 C13.66281265 14.02280701 13.64203156 14.90498901 13.62062073 15.81390381 C13.55535133 18.62585831 13.49634553 21.43790445 13.4375 24.25 C13.39429327 26.15886356 13.35067829 28.06771793 13.30664062 29.9765625 C13.19969313 34.65094826 13.09836215 39.32542602 13 44 C9.7 44 6.4 44 3 44 C3.33 42.68 3.66 41.36 4 40 C4.12987006 37.34438119 4.2116005 34.7152293 4.23828125 32.05859375 C4.246353 31.29450699 4.25442474 30.53042023 4.26274109 29.74317932 C4.2765376 28.13195031 4.28727947 26.52069261 4.29516602 24.90942383 C4.30673517 23.25959735 4.32726416 21.6098097 4.35668945 19.96020508 C4.39920804 17.57607609 4.41550727 15.19305393 4.42578125 12.80859375 C4.44328934 12.07104355 4.46079742 11.33349335 4.47883606 10.57359314 C4.51381945 8.24724404 4.51381945 8.24724404 4 5 C2.09148718 3.10911652 2.09148718 3.10911652 0 2 C0 1.34 0 0.68 0 0 Z " fill="#312D2E" transform="translate(696,237)"/>
<path d="M0 0 C1.2887476 2.5774952 0.71668849 3.24566775 0 6 C-0.2198223 8.24707241 -0.40483987 10.49771238 -0.5625 12.75 C-0.64628906 13.92046875 -0.73007813 15.0909375 -0.81640625 16.296875 C-0.90728516 17.63492188 -0.90728516 17.63492188 -1 19 C-2.05316406 18.96519531 -3.10632813 18.93039063 -4.19140625 18.89453125 C-14.26011362 18.66783264 -23.20118032 19.6709702 -33 22 C-34.66519519 22.34060811 -36.33131401 22.67692734 -38 23 C-37.875 21.265625 -37.875 21.265625 -37 19 C-35.01696925 17.39181043 -33.15988517 16.07674468 -31 14.75 C-30.38640625 14.36448975 -29.7728125 13.97897949 -29.140625 13.58178711 C-20.04173603 8.01440442 -10.19745931 3.1707725 0 0 Z " fill="#61BFEC" transform="translate(120,177)"/>
<path d="M0 0 C1.13190294 3.39570883 0.99536556 5.80415511 0.875 9.375 C0.83747381 21.64606523 4.70795294 32.53688917 8.66235352 44.01782227 C8.96326904 44.89237061 9.26418457 45.76691895 9.57421875 46.66796875 C9.84838623 47.45453857 10.12255371 48.2411084 10.4050293 49.05151367 C11 51 11 51 11 53 C7.47975677 52.3481031 4.85251303 51.17691784 2 49 C1.28591666 47.01643517 0.61382258 45.01684563 0 43 C-0.99 42.67 -1.98 42.34 -3 42 C-4.71336364 34.77097295 -5.3932385 27.85867865 -5.4375 20.4375 C-5.47037109 19.46103516 -5.50324219 18.48457031 -5.53710938 17.47851562 C-5.58905627 10.41845996 -3.99861697 5.80917481 0 0 Z " fill="#8DCDF1" transform="translate(54,228)"/>
<path d="M0 0 C4.95 0 9.9 0 15 0 C15 0.99 15 1.98 15 3 C14.34 3 13.68 3 13 3 C11.74992295 6.85761115 11.85581743 10.71408457 11.8671875 14.72265625 C11.86623077 15.46454697 11.86527405 16.20643768 11.86428833 16.97080994 C11.8636094 18.53498418 11.86544362 20.09916128 11.86962891 21.66333008 C11.87498885 24.05751866 11.86967032 26.4515203 11.86328125 28.84570312 C11.86394193 30.36718791 11.86522289 31.88867259 11.8671875 33.41015625 C11.86516327 34.12583267 11.86313904 34.84150909 11.86105347 35.57887268 C11.87561073 38.66182725 12.01713967 41.05141902 13 44 C9.7 44 6.4 44 3 44 C3.33 42.68 3.66 41.36 4 40 C4.08332859 37.3083968 4.11629936 34.6439167 4.09765625 31.953125 C4.09553383 30.79632233 4.09553383 30.79632233 4.09336853 29.6161499 C4.08778534 27.16072662 4.07523595 24.70539558 4.0625 22.25 C4.05748283 20.58203257 4.0529203 18.91406371 4.04882812 17.24609375 C4.03782141 13.16402713 4.02056836 9.08202919 4 5 C2.68 4.34 1.36 3.68 0 3 C0 2.01 0 1.02 0 0 Z " fill="#2D292A" transform="translate(421,237)"/>
<path d="M0 0 C1.09731445 0.00676758 1.09731445 0.00676758 2.21679688 0.01367188 C3.99873419 0.02531852 5.78062863 0.04324809 7.5625 0.0625 C8.0575 2.5375 8.0575 2.5375 8.5625 5.0625 C7.43070313 5.11148438 6.29890625 5.16046875 5.1328125 5.2109375 C3.65101661 5.28596514 2.169247 5.36151297 0.6875 5.4375 C-0.05886719 5.4684375 -0.80523437 5.499375 -1.57421875 5.53125 C-5.97223188 5.61893831 -5.97223188 5.61893831 -9.4375 8.0625 C-11.108125 8.5265625 -11.108125 8.5265625 -12.8125 9 C-16.21359431 9.99687247 -17.71483121 10.9751206 -20.4375 13.0625 C-22.9375 13.6875 -22.9375 13.6875 -25.4375 14.0625 C-26.7575 14.3925 -28.0775 14.7225 -29.4375 15.0625 C-29.4375 11.7625 -29.4375 8.4625 -29.4375 5.0625 C-27.25176438 4.41072031 -25.0638177 3.76635326 -22.875 3.125 C-21.65683594 2.76535156 -20.43867187 2.40570313 -19.18359375 2.03515625 C-12.72793104 0.35897271 -6.62091415 -0.07874829 0 0 Z " fill="#99D1F2" transform="translate(110.4375,194.9375)"/>
<path d="M0 0 C0 3 0 6 0 9 C-2.64 8.34 -5.28 7.68 -8 7 C-8.33 7.66 -8.66 8.32 -9 9 C-12.59391114 7.66511872 -15.75490696 6.03977277 -19 4 C-18.34 5.32 -17.68 6.64 -17 8 C-23.93 7.505 -23.93 7.505 -31 7 C-30 2 -30 2 -28.1875 0.25 C-19.83822095 -4.5210166 -8.8705496 -1.70704735 0 0 Z " fill="#DFBA5E" transform="translate(235,187)"/>
<path d="M0 0 C3.14212817 0.23275024 4.2143781 1.19869189 6.5625 3.375 C12.88954603 11.6353101 12.88349191 23.06358452 12 33 C10.98046875 35.9453125 10.98046875 35.9453125 10 38 C8.28789811 35.43184716 7.46687392 33.73295429 6.5625 30.8671875 C6.30726563 30.06023437 6.05203125 29.25328125 5.7890625 28.421875 C5.52867187 27.58140625 5.26828125 26.7409375 5 25.875 C4.73960937 25.05773437 4.47921875 24.24046875 4.2109375 23.3984375 C1.77186265 15.61310767 -0.34911071 8.20410159 0 0 Z " fill="#71C1E9" transform="translate(164,198)"/>
<path d="M0 0 C1.5 1.375 1.5 1.375 3 3 C3 3.66 3 4.32 3 5 C-2.87080633 8.75079293 -8.39455246 10.85623287 -15.203125 12.32421875 C-17.94943587 12.98778269 -20.39940084 13.90705716 -23 15 C-27.84518435 16.61506145 -31.89355197 17.20842645 -37 17 C-37.66 15.35 -38.32 13.7 -39 12 C-36.23735711 11.40267181 -33.83967231 11 -31 11 C-30.401875 10.484375 -29.80375 9.96875 -29.1875 9.4375 C-26.15930108 7.44754071 -24.47869831 8.36105541 -21 9 C-18.42383077 8.16953416 -18.42383077 8.16953416 -16 7 C-14.33333333 6.66666667 -12.66666667 6.33333333 -11 6 C-6.86497085 4.62165695 -3.56599344 2.4879024 0 0 Z " fill="#58BCEC" transform="translate(140,268)"/>
<path d="M0 0 C0.33 1.32 0.66 2.64 1 4 C1.66 3.67 2.32 3.34 3 3 C4.87379605 2.92966231 6.75001102 2.9156978 8.625 2.9375 C10.12933594 2.95103516 10.12933594 2.95103516 11.6640625 2.96484375 C12.43492187 2.97644531 13.20578125 2.98804688 14 3 C14.02471738 7.78718692 14.04286825 12.5743367 14.05493164 17.36157227 C14.05996065 18.99015958 14.06678465 20.61874237 14.07543945 22.24731445 C14.08756769 24.58806472 14.09324263 26.9287553 14.09765625 29.26953125 C14.10281754 29.99775589 14.10797882 30.72598053 14.11329651 31.47627258 C14.11364279 34.59602288 13.99455604 37.01633188 13 40 C15.97 40 18.94 40 22 40 C21.34 39.34 20.68 38.68 20 38 C19.82489614 35.34708243 19.76844517 32.80013826 19.8046875 30.1484375 C19.8075174 29.37440582 19.81034729 28.60037415 19.81326294 27.80288696 C19.82447246 25.32676843 19.84957797 22.8510095 19.875 20.375 C19.88502882 18.69792188 19.89415484 17.02083811 19.90234375 15.34375 C19.92441426 11.22902777 19.95894898 7.11457489 20 3 C23.3 3 26.6 3 30 3 C30.495 3.99 30.495 3.99 31 5 C27.7 4.67 24.4 4.34 21 4 C21.06895277 8.48459681 21.15695445 12.96829709 21.26245117 17.45214844 C21.2956588 18.9767834 21.32370378 20.50154006 21.34643555 22.02636719 C21.38005958 24.22122954 21.43237542 26.41498088 21.48828125 28.609375 C21.51446533 29.92905273 21.54064941 31.24873047 21.56762695 32.60839844 C22.02162599 36.16963761 22.73943018 37.342806 25 40 C25 40.99 25 41.98 25 43 C19.72 43 14.44 43 9 43 C9 42.01 9 41.02 9 40 C9.99 39.505 9.99 39.505 11 39 C11.33 27.78 11.66 16.56 12 5 C5.68687634 4.7745205 5.68687634 4.7745205 1 7 C0.01 7 -0.98 7 -2 7 C-1.34 4.69 -0.68 2.38 0 0 Z " fill="#444041" transform="translate(332,240)"/>
<path d="M0 0 C4.53208646 0.26659332 6.7782635 2.12896878 9.7734375 5.30078125 C11.54161836 7.75033117 11.85842511 10.02692733 12 13 C12.66 13 13.32 13 14 13 C16.8190677 19.3898868 17.18142049 25.56157606 17.1875 32.4375 C17.19974609 33.16259766 17.21199219 33.88769531 17.22460938 34.63476562 C17.23766274 39.47756436 16.51594104 43.40030057 15 48 C14.65864073 49.33130115 14.32074044 50.66358148 14 52 C12.22182723 47.81606408 12.00281856 44.97019229 12.69140625 40.515625 C13.97754311 30.03116754 13.52696692 19.68267925 9 10 C7.22991391 7.59846594 7.22991391 7.59846594 5 6 C3.68 6 2.36 6 1 6 C0.67 4.02 0.34 2.04 0 0 Z " fill="#43B8E9" transform="translate(162,193)"/>
<path d="M0 0 C1.2887476 2.5774952 0.71668849 3.24566775 0 6 C-0.2198223 8.24707241 -0.40483987 10.49771238 -0.5625 12.75 C-0.64628906 13.92046875 -0.73007813 15.0909375 -0.81640625 16.296875 C-0.90728516 17.63492188 -0.90728516 17.63492188 -1 19 C-1.33 19 -1.66 19 -2 19 C-2 16.69 -2 14.38 -2 12 C-8.93 12 -15.86 12 -23 12 C-23 11.34 -23 10.68 -23 10 C-20.29363164 8.70407751 -17.5850566 7.41316835 -14.875 6.125 C-14.11445312 5.76019531 -13.35390625 5.39539063 -12.5703125 5.01953125 C-8.44138513 3.06185017 -4.38453786 1.33077028 0 0 Z " fill="#00A8E3" transform="translate(120,177)"/>
<path d="M0 0 C0.66 0.33 1.32 0.66 2 1 C2.34818914 3.3867324 2.6035885 5.72593316 2.8125 8.125 C3.48237202 14.49477852 4.87680115 18.11726452 9 23 C9 24.32 9 25.64 9 27 C9.639375 27.268125 10.27875 27.53625 10.9375 27.8125 C13 29 13 29 14 32 C16.69861733 33.31075699 19.35182621 34.09472244 22.25 34.875 C23.1575 35.24625 24.065 35.6175 25 36 C25.875 38.125 25.875 38.125 26 40 C23.37780428 41.00900158 22.28948419 41.11416951 19.6328125 40.06640625 C9.38565082 33.92130151 4.69635448 26.29750449 1 15 C-1.49211789 4.47635367 -1.49211789 4.47635367 0 0 Z " fill="#23B4E9" transform="translate(43,251)"/>
<path d="M0 0 C2.44832878 4.66357935 4.00949441 9.582287 5.6875 14.5625 C6.02072266 15.52091797 6.35394531 16.47933594 6.69726562 17.46679688 C7.00728516 18.38654297 7.31730469 19.30628906 7.63671875 20.25390625 C7.92248779 21.09252197 8.20825684 21.9311377 8.50268555 22.79516602 C9 25 9 25 8 28 C7.34 28 6.68 28 6 28 C6 27.01 6 26.02 6 25 C5.34 25 4.68 25 4 25 C3.67 24.34 3.34 23.68 3 23 C2.67 25.64 2.34 28.28 2 31 C1.67 31 1.34 31 1 31 C0.67 27.04 0.34 23.08 0 19 C-0.66 19.33 -1.32 19.66 -2 20 C-2 16.37 -2 12.74 -2 9 C-2.99 9.33 -3.98 9.66 -5 10 C-3.84414715 6.08788267 -2.64465038 3.1254959 0 0 Z " fill="#E1C063" transform="translate(166,214)"/>
<path d="M0 0 C2 2 2 2 2.25 5.0625 C1.27336116 10.94705806 -4.51610952 14.61814098 -9 18 C-12.15049919 19.91640535 -13.08647512 20 -17 20 C-17.33 18.68 -17.66 17.36 -18 16 C-17.53851563 15.68289062 -17.07703125 15.36578125 -16.6015625 15.0390625 C-10.43965381 10.63074048 -5.25010671 5.44375819 0 0 Z " fill="#F1E3B6" transform="translate(230,215)"/>
<path d="M0 0 C0.66 0 1.32 0 2 0 C2.23074219 0.99257812 2.46148437 1.98515625 2.69921875 3.0078125 C4.6757886 11.30550206 6.99891492 19.22908755 10.046875 27.20703125 C11 30 11 30 11 33 C8.75 32.5625 8.75 32.5625 6 31 C1.54096606 23.68416127 -0.27520795 15.54924896 -0.125 7.0625 C-0.11597656 6.37865234 -0.10695312 5.69480469 -0.09765625 4.99023438 C-0.07438958 3.32666713 -0.03853167 1.66328369 0 0 Z " fill="#A3D4F2" transform="translate(53,246)"/>
<path d="M0 0 C0.66 0.33 1.32 0.66 2 1 C2.04949353 5.91128067 2.08576382 10.82241566 2.10986328 15.73388672 C2.1199115 17.40415985 2.13355236 19.07441542 2.15087891 20.74462891 C2.17517926 23.14750504 2.18649487 25.55014827 2.1953125 27.953125 C2.20563507 28.69806213 2.21595764 29.44299927 2.22659302 30.21051025 C2.22747381 34.2944573 1.88064875 36.23870251 0 40 C4.455 39.505 4.455 39.505 9 39 C8.67 38.34 8.34 37.68 8 37 C7.91691362 35.62451844 7.89263984 34.24514204 7.90234375 32.8671875 C7.90556641 32.06152344 7.90878906 31.25585938 7.91210938 30.42578125 C7.92048828 29.58402344 7.92886719 28.74226563 7.9375 27.875 C7.94201172 27.02550781 7.94652344 26.17601562 7.95117188 25.30078125 C7.96297126 23.20049091 7.98090694 21.1002367 8 19 C8.33 19 8.66 19 9 19 C9.04898437 20.10859375 9.09796875 21.2171875 9.1484375 22.359375 C9.22349215 23.82294065 9.29903881 25.28648112 9.375 26.75 C9.4059375 27.47960937 9.436875 28.20921875 9.46875 28.9609375 C9.67865815 32.80925364 10.07926091 35.6582263 12 39 C12 39.99 12 40.98 12 42 C7.05 42 2.1 42 -3 42 C-2 38 -2 38 -1 37 C-0.83989519 34.26298822 -0.74053172 31.5483241 -0.68359375 28.80859375 C-0.66281265 27.98875504 -0.64203156 27.16891632 -0.62062073 26.32423401 C-0.55503506 23.69541099 -0.49619874 21.06648496 -0.4375 18.4375 C-0.39432333 16.65949439 -0.35070933 14.88149935 -0.30664062 13.10351562 C-0.19934457 8.73578366 -0.09810296 4.36794773 0 0 Z " fill="#4B4849" transform="translate(424,241)"/>
<path d="M0 0 C8.58 0 17.16 0 26 0 C26 3.3 26 6.6 26 10 C25.175 9.690625 24.35 9.38125 23.5 9.0625 C19.60873845 7.88122417 16.03833047 7.41775832 12 7 C12 10.3 12 13.6 12 17 C15.3 17 18.6 17 22 17 C22 19.64 22 22.28 22 25 C21.67 25 21.34 25 21 25 C21 23.02 21 21.04 21 19 C17.37 19 13.74 19 10 19 C9.97313447 17.02090602 9.95366625 15.04171029 9.9375 13.0625 C9.92589844 11.96035156 9.91429687 10.85820312 9.90234375 9.72265625 C10 7 10 7 11 6 C12.810285 5.90120435 14.62452727 5.87028486 16.4375 5.875 C17.42621094 5.87242187 18.41492188 5.86984375 19.43359375 5.8671875 C22 6 22 6 24 7 C24 5.35 24 3.7 24 2 C16.08 2 8.16 2 0 2 C0 1.34 0 0.68 0 0 Z " fill="#6E6B6C" transform="translate(772,237)"/>
<path d="M0 0 C4.95 0 9.9 0 15 0 C14.67 1.32 14.34 2.64 14 4 C13.90467498 6.81334704 13.85990966 9.60101429 13.8671875 12.4140625 C13.86623077 13.22491302 13.86527405 14.03576355 13.86428833 14.8711853 C13.86360917 16.58079099 13.86544502 18.29039929 13.86962891 20 C13.87499479 22.6224543 13.86966788 25.24473842 13.86328125 27.8671875 C13.86394181 29.52864621 13.8652225 31.19010482 13.8671875 32.8515625 C13.86516327 33.63802155 13.86313904 34.42448059 13.86105347 35.23477173 C13.78775868 39.24754101 13.78775868 39.24754101 15 43 C13.68 42.34 12.36 41.68 11 41 C10.97531916 35.90967159 10.95714918 30.81937785 10.94506836 25.72900391 C10.94003318 23.99657586 10.93320468 22.26415208 10.92456055 20.53173828 C10.91245935 18.04458567 10.90676362 15.55748913 10.90234375 13.0703125 C10.89718246 12.29317902 10.89202118 11.51604553 10.88670349 10.71536255 C10.88612829 5.22774341 10.88612829 5.22774341 12 3 C9.36 2.67 6.72 2.34 4 2 C4 2.66 4 3.32 4 4 C2.68 3.67 1.36 3.34 0 3 C0 2.01 0 1.02 0 0 Z " fill="#535051" transform="translate(379,317)"/>
<path d="M0 0 C4.95 0 9.9 0 15 0 C15 0.66 15 1.32 15 2 C11.37 2.33 7.74 2.66 4 3 C4.33 3.99 4.66 4.98 5 6 C5.10836894 8.46662289 5.16401191 10.90415677 5.16796875 13.37109375 C5.17129715 14.0898317 5.17462555 14.80856964 5.17805481 15.54908752 C5.18311293 17.06795615 5.18546348 18.58683586 5.18530273 20.10571289 C5.18748867 22.42547972 5.2056541 24.74477044 5.22460938 27.06445312 C5.22754367 28.54166504 5.22952822 30.01887922 5.23046875 31.49609375 C5.23765427 32.18787216 5.24483978 32.87965057 5.25224304 33.59239197 C5.23502554 37.23385138 4.99389547 39.90272021 3 43 C2.34 42.67 1.68 42.34 1 42 C1.495 41.505 1.495 41.505 2 41 C2.08861992 38.1883662 2.11522355 35.40141745 2.09765625 32.58984375 C2.0962413 31.74780899 2.09482635 30.90577423 2.09336853 30.03822327 C2.08775263 27.33794665 2.07519748 24.63775172 2.0625 21.9375 C2.05748705 20.11132932 2.05292379 18.28515734 2.04882812 16.45898438 C2.03777804 11.97262458 2.02050279 7.48632616 2 3 C1.34 3 0.68 3 0 3 C0 2.01 0 1.02 0 0 Z " fill="#3C393A" transform="translate(411,317)"/>
<path d="M0 0 C3 1 3 1 4 2 C5.85625 2.1546875 5.85625 2.1546875 7.75 2.3125 C11.83696155 2.77559097 14.12238742 3.94253663 17 7 C17 7.99 17 8.98 17 10 C13.40608886 8.66511872 10.24509304 7.03977277 7 5 C7.66 6.32 8.32 7.64 9 9 C2.07 8.505 2.07 8.505 -5 8 C-4 3 -4 3 -2.125 1.125 C-1.42375 0.75375 -0.7225 0.3825 0 0 Z " fill="#E6CD84" transform="translate(209,186)"/>
<path d="M0 0 C0.53625 0.2475 1.0725 0.495 1.625 0.75 C-0.03515625 1.69401042 -1.6953125 2.63802083 -3.35546875 3.58203125 C-4.82962706 4.43459089 -6.28436065 5.3209939 -7.7265625 6.2265625 C-16.93268913 11.52212207 -27.71374922 14.95646788 -38.375 14.75 C-38.705 13.76 -39.035 12.77 -39.375 11.75 C-38.364375 11.62625 -37.35375 11.5025 -36.3125 11.375 C-31.69348129 10.64182243 -27.35521551 9.57977311 -23.03515625 7.76953125 C-20.19151855 6.67967891 -17.41077616 6.02552374 -14.4375 5.375 C-10.80097103 4.50937225 -7.88866362 3.73519808 -4.875 1.5 C-2.375 -0.25 -2.375 -0.25 0 0 Z " fill="#3AB7EA" transform="translate(142.375,273.25)"/>
<path d="M0 0 C2.4789742 2.4789742 2.24593676 3.9235766 2.27789307 7.30783081 C2.2738446 8.02866852 2.26979614 8.74950623 2.265625 9.4921875 C2.26753845 10.23453644 2.2694519 10.97688538 2.27142334 11.74172974 C2.2727853 13.31366311 2.26908805 14.88560772 2.26074219 16.45751953 C2.25007262 18.85865748 2.26062104 21.25904211 2.2734375 23.66015625 C2.27211531 25.18750165 2.2695517 26.71484658 2.265625 28.2421875 C2.26967346 28.95897675 2.27372192 29.67576599 2.27789307 30.41427612 C2.24045651 34.41633991 1.84673919 36.30652163 0 40 C8.58 40 17.16 40 26 40 C26.33 39.34 26.66 38.68 27 38 C27 38.99 27 39.98 27 41 C24.23382437 42.38308781 21.98982 42.11210196 18.8984375 42.09765625 C17.08085938 42.09282227 17.08085938 42.09282227 15.2265625 42.08789062 C13.95554687 42.07951172 12.68453125 42.07113281 11.375 42.0625 C10.09625 42.05798828 8.8175 42.05347656 7.5 42.04882812 C4.33328708 42.03701203 1.16666644 42.02053815 -2 42 C-1.07758034 37.25612745 -1.07758034 37.25612745 -0.44360352 35.16308594 C0.2215219 31.91982167 0.12191297 28.68603693 0.09765625 25.390625 C0.0962413 24.66381531 0.09482635 23.93700562 0.09336853 23.18817139 C0.08778792 20.87540506 0.07523904 18.56273688 0.0625 16.25 C0.05748249 14.67838682 0.05292002 13.10677211 0.04882812 11.53515625 C0.03782485 7.69006657 0.02057361 3.8450499 0 0 Z " fill="#524F50" transform="translate(774,241)"/>
<path d="M0 0 C4.62 0 9.24 0 14 0 C14 0.99 14 1.98 14 3 C10.7 3 7.4 3 4 3 C4.33 3.66 4.66 4.32 5 5 C5.08543895 7.10528933 5.10714725 9.21331157 5.09765625 11.3203125 C5.09443359 12.57714844 5.09121094 13.83398438 5.08789062 15.12890625 C5.07951172 16.44761719 5.07113281 17.76632812 5.0625 19.125 C5.05748489 20.46484211 5.05292201 21.804686 5.04882812 23.14453125 C5.03701086 26.42973206 5.02053617 29.71484397 5 33 C4.34 33 3.68 33 3 33 C2.34 31.35 1.68 29.7 1 28 C1.33 28 1.66 28 2 28 C2 20.08 2 12.16 2 4 C1.34 3.67 0.68 3.34 0 3 C0 2.01 0 1.02 0 0 Z " fill="#4A4647" transform="translate(483,317)"/>
<path d="M0 0 C0.66 0.33 1.32 0.66 2 1 C-3.0166956 5.36938004 -9.12577239 10.32657044 -16.0625 10.3125 C-17.031875 10.209375 -18.00125 10.10625 -19 10 C-19.66 8.35 -20.32 6.7 -21 5 C-18.23735711 4.40267181 -15.83967231 4 -13 4 C-12.401875 3.484375 -11.80375 2.96875 -11.1875 2.4375 C-8.16791434 0.45320085 -6.44780843 1.33978136 -3 2 C-2.01 1.34 -1.02 0.68 0 0 Z " fill="#65BFEC" transform="translate(122,275)"/>
<path d="M0 0 C1.09731445 0.00676758 1.09731445 0.00676758 2.21679688 0.01367188 C3.99873419 0.02531852 5.78062863 0.04324809 7.5625 0.0625 C8.0575 1.5475 8.0575 1.5475 8.5625 3.0625 C7.77488281 3.03929687 6.98726562 3.01609375 6.17578125 2.9921875 C-2.54167276 2.84775631 -11.86987166 2.81895199 -20.07421875 6.125 C-23.24731967 7.38375078 -26.05966045 7.1949643 -29.4375 7.0625 C-29.4375 6.4025 -29.4375 5.7425 -29.4375 5.0625 C-27.25176438 4.41072031 -25.0638177 3.76635326 -22.875 3.125 C-21.65683594 2.76535156 -20.43867187 2.40570313 -19.18359375 2.03515625 C-12.72793104 0.35897271 -6.62091415 -0.07874829 0 0 Z " fill="#87CAF0" transform="translate(110.4375,194.9375)"/>
<path d="M0 0 C3.3 0 6.6 0 10 0 C10.33 0.66 10.66 1.32 11 2 C7.7 1.67 4.4 1.34 1 1 C1.06895277 5.48459681 1.15695445 9.96829709 1.26245117 14.45214844 C1.2956588 15.9767834 1.32370378 17.50154006 1.34643555 19.02636719 C1.38005958 21.22122954 1.43237542 23.41498088 1.48828125 25.609375 C1.51446533 26.92905273 1.54064941 28.24873047 1.56762695 29.60839844 C2.02162599 33.16963761 2.73943018 34.342806 5 37 C5 37.99 5 38.98 5 40 C-0.28 40 -5.56 40 -11 40 C-11 39.01 -11 38.02 -11 37 C-9 35.3125 -9 35.3125 -7 34 C-7 34.99 -7 35.98 -7 37 C-4.03 37 -1.06 37 2 37 C1.34 36.34 0.68 35.68 0 35 C-0.17510386 32.34708243 -0.23155483 29.80013826 -0.1953125 27.1484375 C-0.1924826 26.37440582 -0.18965271 25.60037415 -0.18673706 24.80288696 C-0.17552754 22.32676843 -0.15042203 19.8510095 -0.125 17.375 C-0.11497118 15.69792188 -0.10584516 14.02083811 -0.09765625 12.34375 C-0.07558574 8.22902777 -0.04105102 4.11457489 0 0 Z " fill="#524F4F" transform="translate(352,243)"/>
<path d="M0 0 C1 3 1 3 -0.41015625 6.4375 C-2.59408534 11.88922488 -2.47701507 17.19487736 -2.4375 23 C-2.45748047 24.0415625 -2.47746094 25.083125 -2.49804688 26.15625 C-2.49373279 32.98976139 -1.3002948 37.06081917 2 43 C1.67 43.99 1.34 44.98 1 46 C0.505 44.515 0.505 44.515 0 43 C-0.99 42.67 -1.98 42.34 -3 42 C-4.71336364 34.77097295 -5.3932385 27.85867865 -5.4375 20.4375 C-5.47037109 19.46103516 -5.50324219 18.48457031 -5.53710938 17.47851562 C-5.58905627 10.41845996 -3.99861697 5.80917481 0 0 Z " fill="#7FC8F0" transform="translate(54,228)"/>
<path d="M0 0 C1 3 1 3 0.5703125 5.09765625 C-0.23902025 9.21638388 -0.14433827 13.25076381 -0.125 17.4375 C-0.12886719 18.27087891 -0.13273437 19.10425781 -0.13671875 19.96289062 C-0.12966873 24.42202587 0.10083209 28.61120425 1 33 C-2.17493083 30.61391236 -3.31544059 28.61403178 -4.00390625 24.8046875 C-4.21715312 23.16474923 -4.40225242 21.52096248 -4.5625 19.875 C-4.65128418 19.02639404 -4.74006836 18.17778809 -4.83154297 17.3034668 C-5.35620245 10.47177232 -4.24399783 5.53998374 0 0 Z " fill="#4EBBEB" transform="translate(49,238)"/>
<path d="M0 0 C5.17765893 5.17765893 5.22454906 13.96746855 5.3125 20.875 C5.2981992 25.44172299 4.97507701 28.860994 3 33 C0.94572085 29.91858128 0.7582026 29.3668193 0.83984375 25.91015625 C0.85080078 25.12576172 0.86175781 24.34136719 0.87304688 23.53320312 C0.89431641 22.71787109 0.91558594 21.90253906 0.9375 21.0625 C0.97209578 19.44931173 1.00219699 17.83601948 1.02734375 16.22265625 C1.04531006 15.50859619 1.06327637 14.79453613 1.08178711 14.05883789 C0.99639111 11.90915294 0.5587601 10.07141511 0 8 C-0.12205329 5.32459184 -0.04467313 2.68038762 0 0 Z " fill="#60BEEC" transform="translate(171,203)"/>
<path d="M0 0 C-0.33 2.31 -0.66 4.62 -1 7 C-1.495 5.02 -1.495 5.02 -2 3 C-2.86278564 3.01047363 -3.72557129 3.02094727 -4.61450195 3.03173828 C-7.81810521 3.06583983 -11.0216159 3.09090857 -14.2253418 3.10986328 C-15.61144048 3.1199157 -16.99751799 3.1335597 -18.38354492 3.15087891 C-20.3766975 3.17515952 -22.37000533 3.18542031 -24.36328125 3.1953125 C-26.16212769 3.21102295 -26.16212769 3.21102295 -27.99731445 3.22705078 C-31 3 -31 3 -34 1 C-29.31860934 0.85739262 -24.63721278 0.71498107 -19.95581055 0.57275391 C-18.36205889 0.52430568 -16.76830889 0.47580319 -15.17456055 0.42724609 C-12.88851339 0.35760586 -10.60246045 0.28815845 -8.31640625 0.21875 C-7.59973282 0.19687622 -6.88305939 0.17500244 -6.14466858 0.15246582 C-1.11387171 0 -1.11387171 0 0 0 Z " fill="#888686" transform="translate(367,236)"/>
<path d="M0 0 C1.06541016 0.07025391 2.13082031 0.14050781 3.22851562 0.21289062 C5.84254082 0.38872192 8.4521774 0.58915859 11.0625 0.8125 C11.0625 1.1425 11.0625 1.4725 11.0625 1.8125 C6.81452223 2.51290743 2.56388178 3.19558614 -1.6875 3.875 C-2.8940625 4.07416016 -4.100625 4.27332031 -5.34375 4.47851562 C-6.50390625 4.66220703 -7.6640625 4.84589844 -8.859375 5.03515625 C-9.92768555 5.20797119 -10.99599609 5.38078613 -12.09667969 5.55883789 C-14.73733578 5.79462697 -16.45199449 5.65411104 -18.9375 4.8125 C-12.74690898 -0.83367025 -8.12546337 -0.70107971 0 0 Z " fill="#43B8EA" transform="translate(106.9375,188.1875)"/>
<path d="M0 0 C0 4.33778858 -2.56467327 6.53412014 -5.25 9.6875 C-5.74113281 10.29400391 -6.23226562 10.90050781 -6.73828125 11.52539062 C-8.203125 13.26171875 -8.203125 13.26171875 -11 16 C-12.32 16 -13.64 16 -15 16 C-15.33 14.35 -15.66 12.7 -16 11 C-15.030625 10.67 -14.06125 10.34 -13.0625 10 C-7.85555755 7.81265737 -4.03491597 3.85192658 0 0 Z " fill="#EDD594" transform="translate(230,224)"/>
<path d="M0 0 C1.63474626 3.26949252 1.01418775 6.77156225 0.9375 10.37109375 C0.87393186 13.11111337 0.87393186 13.11111337 2 16 C2.07029121 18.57265818 2.09370832 21.11641431 2.0625 23.6875 C2.05798828 24.38939453 2.05347656 25.09128906 2.04882812 25.81445312 C2.03706927 27.54300538 2.01913454 29.27151365 2 31 C1.67 31 1.34 31 1 31 C0.67 27.04 0.34 23.08 0 19 C-0.66 19.33 -1.32 19.66 -2 20 C-2 16.37 -2 12.74 -2 9 C-2.99 9.33 -3.98 9.66 -5 10 C-3.84414715 6.08788267 -2.64465038 3.1254959 0 0 Z " fill="#E3B847" transform="translate(166,214)"/>
<path d="M0 0 C0 0.99 0 1.98 0 3 C-0.99797607 3.08302368 -0.99797607 3.08302368 -2.01611328 3.16772461 C-5.05262713 3.42178083 -8.08880973 3.67960673 -11.125 3.9375 C-12.69507813 4.06801758 -12.69507813 4.06801758 -14.296875 4.20117188 C-19.23957562 4.62349123 -24.12188144 5.06319868 -29 6 C-20.2359957 0.15733047 -10.20941352 -0.16349595 0 0 Z " fill="#70C3EE" transform="translate(118,192)"/>
<path d="M0 0 C1 3 1 3 0.0625 5.25 C-3.55862102 10.07816136 -8.312316 14.74050909 -14 17 C-15.32 17 -16.64 17 -18 17 C-18 16.34 -18 15.68 -18 15 C-16.845 14.505 -15.69 14.01 -14.5 13.5 C-8.38917175 10.46633259 -3.75754163 5.63631244 0 0 Z " fill="#F0DCA6" transform="translate(231,218)"/>
<path d="M0 0 C4.95 0 9.9 0 15 0 C14.34 1.32 13.68 2.64 13 4 C11.96547066 7.10358803 11.89821065 9.25208021 11.9375 12.5 C11.95103516 13.93859375 11.95103516 13.93859375 11.96484375 15.40625 C11.97644531 16.2621875 11.98804688 17.118125 12 18 C12 18.99 12 19.98 12 21 C11.34 21 10.68 21 10 21 C9.97315688 18.18743719 9.95323812 15.37512759 9.9375 12.5625 C9.92912109 11.76005859 9.92074219 10.95761719 9.91210938 10.13085938 C9.9034857 8.08704779 9.9477185 6.04316098 10 4 C10.33 3.67 10.66 3.34 11 3 C7.37 2.67 3.74 2.34 0 2 C0 1.34 0 0.68 0 0 Z " fill="#686566" transform="translate(331,317)"/>
<path d="M0 0 C2.76223278 2.76223278 2.57856291 5.20706617 3 9 C5.97 9 8.94 9 12 9 C12 8.01 12 7.02 12 6 C13.5 7.3125 13.5 7.3125 15 9 C15 9.99 15 10.98 15 12 C9.72 12 4.44 12 -1 12 C-0.67 10.68 -0.34 9.36 0 8 C0 6.68 0 5.36 0 4 C0 2.68 0 1.36 0 0 Z " fill="#514E4F" transform="translate(637,271)"/>
<path d="M0 0 C0.33 0.66 0.66 1.32 1 2 C1.66 1.67 2.32 1.34 3 1 C5.69285235 0.74134823 8.36384736 0.53443387 11.0625 0.375 C12.18108398 0.29765625 12.18108398 0.29765625 13.32226562 0.21875 C15.21264584 0.10199627 17.10657959 0.04612984 19 0 C20 1 20 1 20.09765625 3.06640625 C20.08605469 3.89011719 20.07445313 4.71382812 20.0625 5.5625 C20.05347656 6.38878906 20.04445313 7.21507812 20.03515625 8.06640625 C20.02355469 8.70449219 20.01195313 9.34257812 20 10 C19.67 10 19.34 10 19 10 C19 7.69 19 5.38 19 3 C12.07 3 5.14 3 -2 3 C-2 2.34 -2 1.68 -2 1 C-1.34 0.67 -0.68 0.34 0 0 Z " fill="#1BADE2" transform="translate(99,186)"/>
<path d="M0 0 C1 3 1 3 0 5.6875 C-1.28196112 9.93399622 -0.74856893 12.65830019 0 17 C-4.62 17 -9.24 17 -14 17 C-13.505 15.515 -13.505 15.515 -13 14 C-10.03 14 -7.06 14 -4 14 C-3.896875 12.989375 -3.79375 11.97875 -3.6875 10.9375 C-2.96295233 6.78781792 -1.77730734 3.78643737 0 0 Z " fill="#484445" transform="translate(618,266)"/>
<path d="M0 0 C-4.30366848 5.77921196 -4.30366848 5.77921196 -7.5625 6.8125 C-8.7690625 6.9053125 -8.7690625 6.9053125 -10 7 C-11.33542939 7.32483418 -12.66961551 7.6550855 -14 8 C-14 7.01 -14 6.02 -14 5 C-9.28729999 1.43929332 -5.88624563 -0.15908772 0 0 Z " fill="#B1DAF5" transform="translate(95,202)"/>
<path d="M0 0 C4.53208646 0.26659332 6.7782635 2.12896878 9.7734375 5.30078125 C11.54161836 7.75033117 11.85842511 10.02692733 12 13 C9.66666667 10.66666667 7.33333333 8.33333333 5 6 C3.68 6 2.36 6 1 6 C0.67 4.02 0.34 2.04 0 0 Z " fill="#3EB6E9" transform="translate(162,193)"/>
<path d="M0 0 C1 2 1 2 0.375 5 C-1 8 -1 8 -3.625 9.375 C-4.40875 9.58125 -5.1925 9.7875 -6 10 C-5.49477778 5.62140745 -2.82172778 3.18348776 0 0 Z M-3 8 C-2.67 8.66 -2.34 9.32 -2 10 C-3.98 12.31 -5.96 14.62 -8 17 C-8 12.61031544 -5.87194899 11.23094261 -3 8 Z " fill="#E6C367" transform="translate(243,218)"/>
<path d="M0 0 C0.99 0 1.98 0 3 0 C3.33 1.32 3.66 2.64 4 4 C-0.62197306 6.21854707 -3.76824163 7.38281159 -9 7 C-7.79492039 4.58984078 -6.83672718 4.19684272 -4.5 2.9375 C-2.0882696 1.6858579 -2.0882696 1.6858579 0 0 Z " fill="#1BB2E8" transform="translate(141,274)"/>
<path d="M0 0 C0.66 0 1.32 0 2 0 C1.35492261 1.34391123 0.6802367 2.67353844 0 4 C-0.53625 5.093125 -1.0725 6.18625 -1.625 7.3125 C-4.174833 11.80877041 -8.00701822 14.8114296 -12 18 C-12 17.01 -12 16.02 -12 15 C-11.38125 14.7525 -10.7625 14.505 -10.125 14.25 C-7.55029694 12.73546879 -7.2651947 11.66159478 -6 9 C-5.02563191 7.40076541 -4.02454893 5.81755987 -3 4.25 C-2.484375 3.45078125 -1.96875 2.6515625 -1.4375 1.828125 C-0.963125 1.22484375 -0.48875 0.6215625 0 0 Z " fill="#E9CA78" transform="translate(238,221)"/>
<path d="M0 0 C9.58114035 -0.56359649 9.58114035 -0.56359649 14 3 C14 3.33 14 3.66 14 4 C7.07 3.505 7.07 3.505 0 3 C0 2.01 0 1.02 0 0 Z " fill="#EDD99E" transform="translate(204,191)"/>
<path d="M0 0 C0.66 0 1.32 0 2 0 C2 0.66 2 1.32 2 2 C5.3 2 8.6 2 12 2 C12 1.34 12 0.68 12 0 C12.66 0 13.32 0 14 0 C14 1.32 14 2.64 14 4 C9.05 4 4.1 4 -1 4 C-0.67 2.68 -0.34 1.36 0 0 Z " fill="#494647" transform="translate(589,279)"/>
<path d="M0 0 C0 0.33 0 0.66 0 1 C-0.69867188 1.04898438 -1.39734375 1.09796875 -2.1171875 1.1484375 C-3.02726562 1.22320312 -3.93734375 1.29796875 -4.875 1.375 C-5.77992187 1.44460937 -6.68484375 1.51421875 -7.6171875 1.5859375 C-10.17941903 1.79568132 -10.17941903 1.79568132 -12 4 C-14.31765729 4.71927295 -16.65095874 5.3909893 -19 6 C-19 5.01 -19 4.02 -19 3 C-13.0624252 -0.9583832 -6.85891381 -1.45934336 0 0 Z " fill="#A4D5F4" transform="translate(113,199)"/>
<path d="M0 0 C4.95 0 9.9 0 15 0 C15 0.66 15 1.32 15 2 C11.37 2.33 7.74 2.66 4 3 C3.67 3.99 3.34 4.98 3 6 C2.67 5.01 2.34 4.02 2 3 C1.34 3 0.68 3 0 3 C0 2.01 0 1.02 0 0 Z " fill="#636161" transform="translate(411,317)"/>
<path d="M0 0 C4.62 0 9.24 0 14 0 C14 0.99 14 1.98 14 3 C13.30132812 2.98839844 12.60265625 2.97679687 11.8828125 2.96484375 C10.97273438 2.95582031 10.06265625 2.94679688 9.125 2.9375 C8.22007812 2.92589844 7.31515625 2.91429687 6.3828125 2.90234375 C3.9831415 2.83750743 3.9831415 2.83750743 2 4 C1.34 3.67 0.68 3.34 0 3 C0 2.01 0 1.02 0 0 Z " fill="#605D5D" transform="translate(483,317)"/>
<path d="M0 0 C2 1.8125 2 1.8125 4 4 C4 4.99 4 5.98 4 7 C-0.62 7 -5.24 7 -10 7 C-9.67 6.34 -9.34 5.68 -9 5 C-6.71484375 4.5859375 -6.71484375 4.5859375 -3.9375 4.375 C-3.01839844 4.30023438 -2.09929688 4.22546875 -1.15234375 4.1484375 C-0.08693359 4.07496094 -0.08693359 4.07496094 1 4 C0.67 2.68 0.34 1.36 0 0 Z " fill="#474445" transform="translate(729,276)"/>
<path d="M0 0 C0.99 0.33 1.98 0.66 3 1 C3 1.99 3 2.98 3 4 C-1.95 4 -6.9 4 -12 4 C-12 3.34 -12 2.68 -12 2 C-8.04 2 -4.08 2 0 2 C0 1.34 0 0.68 0 0 Z " fill="#403D3E" transform="translate(475,279)"/>
<path d="M0 0 C4.95 0 9.9 0 15 0 C13 4 13 4 11 5 C11 4.34 11 3.68 11 3 C7.37 2.67 3.74 2.34 0 2 C0 1.34 0 0.68 0 0 Z " fill="#807E7F" transform="translate(463,237)"/>
<path d="M0 0 C0.99 0.66 1.98 1.32 3 2 C3 2.99 3 3.98 3 5 C-1.62 5 -6.24 5 -11 5 C-10.67 4.01 -10.34 3.02 -10 2 C-6.7 2 -3.4 2 0 2 C0 1.34 0 0.68 0 0 Z " fill="#3F3C3D" transform="translate(708,278)"/>
<path d="M0 0 C0 0.66 0 1.32 0 2 C-5.59579736 5.39374748 -10.56917213 7.71383443 -17 9 C-16.0625 7.125 -16.0625 7.125 -14 5 C-11.04514944 4.04648439 -8.0630481 3.48803282 -5 3 C-5 2.34 -5 1.68 -5 1 C-3 0 -3 0 0 0 Z " fill="#46B9EB" transform="translate(143,271)"/>
<path d="M0 0 C1.35814777 4.0744433 -0.05254238 6.81468116 -1.4375 10.6875 C-1.68048828 11.38939453 -1.92347656 12.09128906 -2.17382812 12.81445312 C-2.7744944 14.54578532 -3.38619719 16.27328137 -4 18 C-4.33 18 -4.66 18 -5 18 C-5.59672183 10.48130488 -4.14352972 6.25968955 0 0 Z " fill="#6EC2EE" transform="translate(54,228)"/>
<path d="M0 0 C3.96 0 7.92 0 12 0 C12.66 1.32 13.32 2.64 14 4 C13.34 3.67 12.68 3.34 12 3 C9.32421248 2.95752718 6.67319787 2.95235885 4 3 C3.01 3 2.02 3 1 3 C0.67 2.01 0.34 1.02 0 0 Z " fill="#7A7778" transform="translate(451,317)"/>
<path d="M0 0 C9.37226277 -0.15620438 9.37226277 -0.15620438 12 1 C12.33 1.99 12.66 2.98 13 4 C8.71 3.67 4.42 3.34 0 3 C0 2.01 0 1.02 0 0 Z " fill="#F2E4B4" transform="translate(204,194)"/>
<path d="M0 0 C0.33 1.32 0.66 2.64 1 4 C1.66 3.67 2.32 3.34 3 3 C4.87379605 2.92966231 6.75001102 2.9156978 8.625 2.9375 C10.12933594 2.95103516 10.12933594 2.95103516 11.6640625 2.96484375 C12.43492187 2.97644531 13.20578125 2.98804688 14 3 C14 3.33 14 3.66 14 4 C12.77023437 4.19916016 12.77023437 4.19916016 11.515625 4.40234375 C9.89914062 4.66724609 9.89914062 4.66724609 8.25 4.9375 C6.64898437 5.19853516 6.64898437 5.19853516 5.015625 5.46484375 C2.63652407 5.88704171 0.33084789 6.37202884 -2 7 C-1.34 4.69 -0.68 2.38 0 0 Z " fill="#454242" transform="translate(332,240)"/>
<path d="M0 0 C1.95766281 -0.08082094 3.91626728 -0.13910778 5.875 -0.1875 C7.51082031 -0.23970703 7.51082031 -0.23970703 9.1796875 -0.29296875 C10.11039063 -0.19628906 11.04109375 -0.09960938 12 0 C12.66 0.99 13.32 1.98 14 3 C13.67 3.99 13.34 4.98 13 6 C12.34 5.01 11.68 4.02 11 3 C8.3443272 2.41651248 8.3443272 2.41651248 5.375 2.3125 C4.37210938 2.24675781 3.36921875 2.18101562 2.3359375 2.11328125 C1.56507813 2.07589844 0.79421875 2.03851563 0 2 C0 1.34 0 0.68 0 0 Z " fill="#878586" transform="translate(620,237)"/>
<path d="M0 0 C4.62 0 9.24 0 14 0 C14 0.33 14 0.66 14 1 C10.37 1 6.74 1 3 1 C2.896875 2.11375 2.79375 3.2275 2.6875 4.375 C2.460625 5.57125 2.23375 6.7675 2 8 C1.01 8.66 0.02 9.32 -1 10 C0.875 5.25 0.875 5.25 2 3 C1.34 3 0.68 3 0 3 C0 2.01 0 1.02 0 0 Z " fill="#8C8B8B" transform="translate(351,317)"/>
<path d="M0 0 C4.62 0 9.24 0 14 0 C14 0.99 14 1.98 14 3 C7.07 2.505 7.07 2.505 0 2 C0 1.34 0 0.68 0 0 Z " fill="#8B8989" transform="translate(442,237)"/>
<path d="M0 0 C1.08667969 0.11085937 2.17335938 0.22171875 3.29296875 0.3359375 C4.12441406 0.43132812 4.95585938 0.52671875 5.8125 0.625 C5.8125 0.955 5.8125 1.285 5.8125 1.625 C0.8625 2.285 -4.0875 2.945 -9.1875 3.625 C-9.1875 2.965 -9.1875 2.305 -9.1875 1.625 C-5.54331659 -0.80445561 -4.25826636 -0.4578781 0 0 Z " fill="#2AB5E9" transform="translate(101.1875,188.375)"/>
<path d="M0 0 C0.721875 0.309375 1.44375 0.61875 2.1875 0.9375 C4.80307309 1.92560539 7.25118982 2.5287754 10 3 C10.33 3.99 10.66 4.98 11 6 C8 7 8 7 6.2109375 6.328125 C5.60507812 5.97234375 4.99921875 5.6165625 4.375 5.25 C3.45847656 4.73179687 3.45847656 4.73179687 2.5234375 4.203125 C1 3 1 3 0 0 Z " fill="#5ABDEC" transform="translate(56,280)"/>
<path d="M0 0 C0.66 0 1.32 0 2 0 C2.59332061 4.37573952 3.13827236 8.57528444 3 13 C2.34 13 1.68 13 1 13 C0.67 8.71 0.34 4.42 0 0 Z " fill="#AED9F5" transform="translate(54,252)"/>
<path d="M0 0 C1.051875 0.433125 1.051875 0.433125 2.125 0.875 C5.05452503 2.02133588 8.00921653 3.02625654 11 4 C10.67 4.99 10.34 5.98 10 7 C5.56541027 5.6062718 3.12621626 3.39417765 0 0 Z " fill="#38B7EA" transform="translate(57,283)"/>
<path d="M0 0 C3.63195496 1.21065165 4.42896192 2.53691126 6.6875 5.5625 C7.31011719 6.38878906 7.93273437 7.21507812 8.57421875 8.06640625 C9.04472656 8.70449219 9.51523437 9.34257812 10 10 C7 10 7 10 5.17578125 8.3203125 C4.56089844 7.59585937 3.94601562 6.87140625 3.3125 6.125 C2.68988281 5.40570313 2.06726563 4.68640625 1.42578125 3.9453125 C0 2 0 2 0 0 Z " fill="#403C3D" transform="translate(672,269)"/>
<path d="M0 0 C3.8063457 0.67170806 7.35206816 1.72746564 11 3 C10.67 3.66 10.34 4.32 10 5 C6.05140217 4.4359146 3.29120954 3.2568294 0 1 C0 0.67 0 0.34 0 0 Z " fill="#13B1E7" transform="translate(58,287)"/>
<path d="M0 0 C1 2 1 2 0.3125 5 C-1 8 -1 8 -3.125 9.375 C-3.74375 9.58125 -4.3625 9.7875 -5 10 C-3.84414715 6.08788267 -2.64465038 3.1254959 0 0 Z " fill="#CAAD4B" transform="translate(166,214)"/>
<path d="M0 0 C1.11375 0.3403125 1.11375 0.3403125 2.25 0.6875 C-0.68828597 3.19048434 -2.92902761 4.15680939 -6.75 4.6875 C-6.75 2.6875 -6.75 2.6875 -5.0625 1 C-2.75 -0.3125 -2.75 -0.3125 0 0 Z " fill="#5EBEEC" transform="translate(89.75,193.3125)"/>
<path d="M0 0 C-0.6875 1.9375 -0.6875 1.9375 -2 4 C-4.625 4.75 -4.625 4.75 -7 5 C-2.25 0 -2.25 0 0 0 Z " fill="#74C4EE" transform="translate(115,276)"/>
<path d="M0 0 C5.57142857 5.14285714 5.57142857 5.14285714 6 9 C4.125 8.4375 4.125 8.4375 2 7 C0.75 3.375 0.75 3.375 0 0 Z " fill="#5ABDEC" transform="translate(50,271)"/>
</svg>
